SplineFontDB: 3.0
FontName: Untitled1
FullName: Untitled1
FamilyName: Untitled1
Weight: Regular
Copyright: Copyright (c) 2018, lumin,,,
UComments: "2018-9-15: Created with FontForge (http://fontforge.org)"
Version: 001.000
ItalicAngle: 0
UnderlinePosition: -100
UnderlineWidth: 50
Ascent: 800
Descent: 200
InvalidEm: 0
LayerCount: 2
Layer: 0 0 "Back" 1
Layer: 1 0 "Fore" 0
XUID: [1021 255 -403148177 6782425]
OS2Version: 0
OS2_WeightWidthSlopeOnly: 0
OS2_UseTypoMetrics: 1
CreationTime: 1537018971
ModificationTime: 1537019009
OS2TypoAscent: 0
OS2TypoAOffset: 1
OS2TypoDescent: 0
OS2TypoDOffset: 1
OS2TypoLinegap: 0
OS2WinAscent: 0
OS2WinAOffset: 1
OS2WinDescent: 0
OS2WinDOffset: 1
HheadAscent: 0
HheadAOffset: 1
HheadDescent: 0
HheadDOffset: 1
OS2Vendor: 'PfEd'
DEI: 91125
Encoding: Custom
UnicodeInterp: none
NameList: AGL For New Fonts
DisplaySize: -48
AntiAlias: 1
FitToEm: 0
BeginChars: 768 511

StartChar: glyph0
Encoding: 256 1097729 0
Width: 0
VWidth: 0
Flags: H
LayerCount: 2
Fore
SplineSet
332.5 -199 m 1
 332.5 -199.5 l 1
 333 -199.5 l 1
 499 -199.5 l 1
 499.5 -199.5 l 1
 499.5 -199 l 1
 499.5 134 l 1
 499.5 134.5 l 1
 499 134.5 l 1
 333 134.5 l 1
 332.5 134.5 l 1
 332.5 134 l 1
 332.5 -199 l 1
333.5 -198.5 m 1
 333.5 133.5 l 1
 498.5 133.5 l 1
 498.5 -198.5 l 1
 333.5 -198.5 l 1
333 -199 m 1
 333 134 l 1
 499 134 l 1
 499 -199 l 1
 333 -199 l 1
EndSplineSet
EndChar

StartChar: glyph1
Encoding: 257 1097730 1
Width: 0
VWidth: 0
Flags: H
LayerCount: 2
Fore
SplineSet
165.5 -199 m 1
 165.5 -199.5 l 1
 166 -199.5 l 1
 332 -199.5 l 1
 332.5 -199.5 l 1
 332.5 -199 l 1
 332.5 134 l 1
 332.5 134.5 l 1
 332 134.5 l 1
 166 134.5 l 1
 165.5 134.5 l 1
 165.5 134 l 1
 165.5 -199 l 1
166.5 -198.5 m 1
 166.5 133.5 l 1
 331.5 133.5 l 1
 331.5 -198.5 l 1
 166.5 -198.5 l 1
166 -199 m 1
 166 134 l 1
 332 134 l 1
 332 -199 l 1
 166 -199 l 1
EndSplineSet
EndChar

StartChar: glyph2
Encoding: 258 1097731 2
Width: 0
VWidth: 0
Flags: H
LayerCount: 2
Fore
SplineSet
165.5 -199 m 1
 165.5 -199.5 l 1
 166 -199.5 l 1
 332 -199.5 l 1
 332.5 -199.5 l 1
 332.5 -199 l 1
 332.5 134 l 1
 332.5 134.5 l 1
 332 134.5 l 1
 166 134.5 l 1
 165.5 134.5 l 1
 165.5 134 l 1
 165.5 -199 l 1
166.5 -198.5 m 1
 166.5 133.5 l 1
 331.5 133.5 l 1
 331.5 -198.5 l 1
 166.5 -198.5 l 1
166 -199 m 1
 166 134 l 1
 332 134 l 1
 332 -199 l 1
 166 -199 l 1
332.5 -199 m 1
 332.5 -199.5 l 1
 333 -199.5 l 1
 499 -199.5 l 1
 499.5 -199.5 l 1
 499.5 -199 l 1
 499.5 134 l 1
 499.5 134.5 l 1
 499 134.5 l 1
 333 134.5 l 1
 332.5 134.5 l 1
 332.5 134 l 1
 332.5 -199 l 1
333.5 -198.5 m 1
 333.5 133.5 l 1
 498.5 133.5 l 1
 498.5 -198.5 l 1
 333.5 -198.5 l 1
333 -199 m 1
 333 134 l 1
 499 134 l 1
 499 -199 l 1
 333 -199 l 1
EndSplineSet
EndChar

StartChar: glyph3
Encoding: 259 1097732 3
Width: 0
VWidth: 0
Flags: H
LayerCount: 2
Fore
SplineSet
-0.5 -199 m 1
 -0.5 -199.5 l 1
 0 -199.5 l 1
 166 -199.5 l 1
 166.5 -199.5 l 1
 166.5 -199 l 1
 166.5 134 l 1
 166.5 134.5 l 1
 166 134.5 l 1
 0 134.5 l 1
 -0.5 134.5 l 1
 -0.5 134 l 1
 -0.5 -199 l 1
0.5 -198.5 m 1
 0.5 133.5 l 1
 165.5 133.5 l 1
 165.5 -198.5 l 1
 0.5 -198.5 l 1
0 -199 m 1
 0 134 l 1
 166 134 l 1
 166 -199 l 1
 0 -199 l 1
EndSplineSet
EndChar

StartChar: glyph4
Encoding: 260 1097733 4
Width: 0
VWidth: 0
Flags: H
LayerCount: 2
Fore
SplineSet
-0.5 -199 m 1
 -0.5 -199.5 l 1
 0 -199.5 l 1
 166 -199.5 l 1
 166.5 -199.5 l 1
 166.5 -199 l 1
 166.5 134 l 1
 166.5 134.5 l 1
 166 134.5 l 1
 0 134.5 l 1
 -0.5 134.5 l 1
 -0.5 134 l 1
 -0.5 -199 l 1
0.5 -198.5 m 1
 0.5 133.5 l 1
 165.5 133.5 l 1
 165.5 -198.5 l 1
 0.5 -198.5 l 1
0 -199 m 1
 0 134 l 1
 166 134 l 1
 166 -199 l 1
 0 -199 l 1
332.5 -199 m 1
 332.5 -199.5 l 1
 333 -199.5 l 1
 499 -199.5 l 1
 499.5 -199.5 l 1
 499.5 -199 l 1
 499.5 134 l 1
 499.5 134.5 l 1
 499 134.5 l 1
 333 134.5 l 1
 332.5 134.5 l 1
 332.5 134 l 1
 332.5 -199 l 1
333.5 -198.5 m 1
 333.5 133.5 l 1
 498.5 133.5 l 1
 498.5 -198.5 l 1
 333.5 -198.5 l 1
333 -199 m 1
 333 134 l 1
 499 134 l 1
 499 -199 l 1
 333 -199 l 1
EndSplineSet
EndChar

StartChar: glyph5
Encoding: 261 1097734 5
Width: 0
VWidth: 0
Flags: H
LayerCount: 2
Fore
SplineSet
-0.5 -199 m 1
 -0.5 -199.5 l 1
 0 -199.5 l 1
 166 -199.5 l 1
 166.5 -199.5 l 1
 166.5 -199 l 1
 166.5 134 l 1
 166.5 134.5 l 1
 166 134.5 l 1
 0 134.5 l 1
 -0.5 134.5 l 1
 -0.5 134 l 1
 -0.5 -199 l 1
0.5 -198.5 m 1
 0.5 133.5 l 1
 165.5 133.5 l 1
 165.5 -198.5 l 1
 0.5 -198.5 l 1
0 -199 m 1
 0 134 l 1
 166 134 l 1
 166 -199 l 1
 0 -199 l 1
165.5 -199 m 1
 165.5 -199.5 l 1
 166 -199.5 l 1
 332 -199.5 l 1
 332.5 -199.5 l 1
 332.5 -199 l 1
 332.5 134 l 1
 332.5 134.5 l 1
 332 134.5 l 1
 166 134.5 l 1
 165.5 134.5 l 1
 165.5 134 l 1
 165.5 -199 l 1
166.5 -198.5 m 1
 166.5 133.5 l 1
 331.5 133.5 l 1
 331.5 -198.5 l 1
 166.5 -198.5 l 1
166 -199 m 1
 166 134 l 1
 332 134 l 1
 332 -199 l 1
 166 -199 l 1
EndSplineSet
EndChar

StartChar: glyph6
Encoding: 262 1097735 6
Width: 0
VWidth: 0
Flags: H
LayerCount: 2
Fore
SplineSet
-0.5 -199 m 1
 -0.5 -199.5 l 1
 0 -199.5 l 1
 166 -199.5 l 1
 166.5 -199.5 l 1
 166.5 -199 l 1
 166.5 134 l 1
 166.5 134.5 l 1
 166 134.5 l 1
 0 134.5 l 1
 -0.5 134.5 l 1
 -0.5 134 l 1
 -0.5 -199 l 1
0.5 -198.5 m 1
 0.5 133.5 l 1
 165.5 133.5 l 1
 165.5 -198.5 l 1
 0.5 -198.5 l 1
0 -199 m 1
 0 134 l 1
 166 134 l 1
 166 -199 l 1
 0 -199 l 1
165.5 -199 m 1
 165.5 -199.5 l 1
 166 -199.5 l 1
 332 -199.5 l 1
 332.5 -199.5 l 1
 332.5 -199 l 1
 332.5 134 l 1
 332.5 134.5 l 1
 332 134.5 l 1
 166 134.5 l 1
 165.5 134.5 l 1
 165.5 134 l 1
 165.5 -199 l 1
166.5 -198.5 m 1
 166.5 133.5 l 1
 331.5 133.5 l 1
 331.5 -198.5 l 1
 166.5 -198.5 l 1
166 -199 m 1
 166 134 l 1
 332 134 l 1
 332 -199 l 1
 166 -199 l 1
332.5 -199 m 1
 332.5 -199.5 l 1
 333 -199.5 l 1
 499 -199.5 l 1
 499.5 -199.5 l 1
 499.5 -199 l 1
 499.5 134 l 1
 499.5 134.5 l 1
 499 134.5 l 1
 333 134.5 l 1
 332.5 134.5 l 1
 332.5 134 l 1
 332.5 -199 l 1
333.5 -198.5 m 1
 333.5 133.5 l 1
 498.5 133.5 l 1
 498.5 -198.5 l 1
 333.5 -198.5 l 1
333 -199 m 1
 333 134 l 1
 499 134 l 1
 499 -199 l 1
 333 -199 l 1
EndSplineSet
EndChar

StartChar: glyph7
Encoding: 263 1097736 7
Width: 0
VWidth: 0
Flags: H
LayerCount: 2
Fore
SplineSet
332.5 134 m 1
 332.5 133.5 l 1
 333 133.5 l 1
 499 133.5 l 1
 499.5 133.5 l 1
 499.5 134 l 1
 499.5 467 l 1
 499.5 467.5 l 1
 499 467.5 l 1
 333 467.5 l 1
 332.5 467.5 l 1
 332.5 467 l 1
 332.5 134 l 1
333.5 134.5 m 1
 333.5 466.5 l 1
 498.5 466.5 l 1
 498.5 134.5 l 1
 333.5 134.5 l 1
333 134 m 1
 333 467 l 1
 499 467 l 1
 499 134 l 1
 333 134 l 1
EndSplineSet
EndChar

StartChar: glyph8
Encoding: 264 1097737 8
Width: 0
VWidth: 0
Flags: H
LayerCount: 2
Fore
SplineSet
332.5 134 m 1
 332.5 133.5 l 1
 333 133.5 l 1
 499 133.5 l 1
 499.5 133.5 l 1
 499.5 134 l 1
 499.5 467 l 1
 499.5 467.5 l 1
 499 467.5 l 1
 333 467.5 l 1
 332.5 467.5 l 1
 332.5 467 l 1
 332.5 134 l 1
333.5 134.5 m 1
 333.5 466.5 l 1
 498.5 466.5 l 1
 498.5 134.5 l 1
 333.5 134.5 l 1
333 134 m 1
 333 467 l 1
 499 467 l 1
 499 134 l 1
 333 134 l 1
332.5 -199 m 1
 332.5 -199.5 l 1
 333 -199.5 l 1
 499 -199.5 l 1
 499.5 -199.5 l 1
 499.5 -199 l 1
 499.5 134 l 1
 499.5 134.5 l 1
 499 134.5 l 1
 333 134.5 l 1
 332.5 134.5 l 1
 332.5 134 l 1
 332.5 -199 l 1
333.5 -198.5 m 1
 333.5 133.5 l 1
 498.5 133.5 l 1
 498.5 -198.5 l 1
 333.5 -198.5 l 1
333 -199 m 1
 333 134 l 1
 499 134 l 1
 499 -199 l 1
 333 -199 l 1
EndSplineSet
EndChar

StartChar: glyph9
Encoding: 265 1097738 9
Width: 0
VWidth: 0
Flags: H
LayerCount: 2
Fore
SplineSet
332.5 134 m 1
 332.5 133.5 l 1
 333 133.5 l 1
 499 133.5 l 1
 499.5 133.5 l 1
 499.5 134 l 1
 499.5 467 l 1
 499.5 467.5 l 1
 499 467.5 l 1
 333 467.5 l 1
 332.5 467.5 l 1
 332.5 467 l 1
 332.5 134 l 1
333.5 134.5 m 1
 333.5 466.5 l 1
 498.5 466.5 l 1
 498.5 134.5 l 1
 333.5 134.5 l 1
333 134 m 1
 333 467 l 1
 499 467 l 1
 499 134 l 1
 333 134 l 1
165.5 -199 m 1
 165.5 -199.5 l 1
 166 -199.5 l 1
 332 -199.5 l 1
 332.5 -199.5 l 1
 332.5 -199 l 1
 332.5 134 l 1
 332.5 134.5 l 1
 332 134.5 l 1
 166 134.5 l 1
 165.5 134.5 l 1
 165.5 134 l 1
 165.5 -199 l 1
166.5 -198.5 m 1
 166.5 133.5 l 1
 331.5 133.5 l 1
 331.5 -198.5 l 1
 166.5 -198.5 l 1
166 -199 m 1
 166 134 l 1
 332 134 l 1
 332 -199 l 1
 166 -199 l 1
EndSplineSet
EndChar

StartChar: glyph10
Encoding: 266 1097739 10
Width: 0
VWidth: 0
Flags: H
LayerCount: 2
Fore
SplineSet
332.5 134 m 1
 332.5 133.5 l 1
 333 133.5 l 1
 499 133.5 l 1
 499.5 133.5 l 1
 499.5 134 l 1
 499.5 467 l 1
 499.5 467.5 l 1
 499 467.5 l 1
 333 467.5 l 1
 332.5 467.5 l 1
 332.5 467 l 1
 332.5 134 l 1
333.5 134.5 m 1
 333.5 466.5 l 1
 498.5 466.5 l 1
 498.5 134.5 l 1
 333.5 134.5 l 1
333 134 m 1
 333 467 l 1
 499 467 l 1
 499 134 l 1
 333 134 l 1
165.5 -199 m 1
 165.5 -199.5 l 1
 166 -199.5 l 1
 332 -199.5 l 1
 332.5 -199.5 l 1
 332.5 -199 l 1
 332.5 134 l 1
 332.5 134.5 l 1
 332 134.5 l 1
 166 134.5 l 1
 165.5 134.5 l 1
 165.5 134 l 1
 165.5 -199 l 1
166.5 -198.5 m 1
 166.5 133.5 l 1
 331.5 133.5 l 1
 331.5 -198.5 l 1
 166.5 -198.5 l 1
166 -199 m 1
 166 134 l 1
 332 134 l 1
 332 -199 l 1
 166 -199 l 1
332.5 -199 m 1
 332.5 -199.5 l 1
 333 -199.5 l 1
 499 -199.5 l 1
 499.5 -199.5 l 1
 499.5 -199 l 1
 499.5 134 l 1
 499.5 134.5 l 1
 499 134.5 l 1
 333 134.5 l 1
 332.5 134.5 l 1
 332.5 134 l 1
 332.5 -199 l 1
333.5 -198.5 m 1
 333.5 133.5 l 1
 498.5 133.5 l 1
 498.5 -198.5 l 1
 333.5 -198.5 l 1
333 -199 m 1
 333 134 l 1
 499 134 l 1
 499 -199 l 1
 333 -199 l 1
EndSplineSet
EndChar

StartChar: glyph11
Encoding: 267 1097740 11
Width: 0
VWidth: 0
Flags: H
LayerCount: 2
Fore
SplineSet
332.5 134 m 1
 332.5 133.5 l 1
 333 133.5 l 1
 499 133.5 l 1
 499.5 133.5 l 1
 499.5 134 l 1
 499.5 467 l 1
 499.5 467.5 l 1
 499 467.5 l 1
 333 467.5 l 1
 332.5 467.5 l 1
 332.5 467 l 1
 332.5 134 l 1
333.5 134.5 m 1
 333.5 466.5 l 1
 498.5 466.5 l 1
 498.5 134.5 l 1
 333.5 134.5 l 1
333 134 m 1
 333 467 l 1
 499 467 l 1
 499 134 l 1
 333 134 l 1
-0.5 -199 m 1
 -0.5 -199.5 l 1
 0 -199.5 l 1
 166 -199.5 l 1
 166.5 -199.5 l 1
 166.5 -199 l 1
 166.5 134 l 1
 166.5 134.5 l 1
 166 134.5 l 1
 0 134.5 l 1
 -0.5 134.5 l 1
 -0.5 134 l 1
 -0.5 -199 l 1
0.5 -198.5 m 1
 0.5 133.5 l 1
 165.5 133.5 l 1
 165.5 -198.5 l 1
 0.5 -198.5 l 1
0 -199 m 1
 0 134 l 1
 166 134 l 1
 166 -199 l 1
 0 -199 l 1
EndSplineSet
EndChar

StartChar: glyph12
Encoding: 268 1097741 12
Width: 0
VWidth: 0
Flags: H
LayerCount: 2
Fore
SplineSet
332.5 134 m 1
 332.5 133.5 l 1
 333 133.5 l 1
 499 133.5 l 1
 499.5 133.5 l 1
 499.5 134 l 1
 499.5 467 l 1
 499.5 467.5 l 1
 499 467.5 l 1
 333 467.5 l 1
 332.5 467.5 l 1
 332.5 467 l 1
 332.5 134 l 1
333.5 134.5 m 1
 333.5 466.5 l 1
 498.5 466.5 l 1
 498.5 134.5 l 1
 333.5 134.5 l 1
333 134 m 1
 333 467 l 1
 499 467 l 1
 499 134 l 1
 333 134 l 1
-0.5 -199 m 1
 -0.5 -199.5 l 1
 0 -199.5 l 1
 166 -199.5 l 1
 166.5 -199.5 l 1
 166.5 -199 l 1
 166.5 134 l 1
 166.5 134.5 l 1
 166 134.5 l 1
 0 134.5 l 1
 -0.5 134.5 l 1
 -0.5 134 l 1
 -0.5 -199 l 1
0.5 -198.5 m 1
 0.5 133.5 l 1
 165.5 133.5 l 1
 165.5 -198.5 l 1
 0.5 -198.5 l 1
0 -199 m 1
 0 134 l 1
 166 134 l 1
 166 -199 l 1
 0 -199 l 1
332.5 -199 m 1
 332.5 -199.5 l 1
 333 -199.5 l 1
 499 -199.5 l 1
 499.5 -199.5 l 1
 499.5 -199 l 1
 499.5 134 l 1
 499.5 134.5 l 1
 499 134.5 l 1
 333 134.5 l 1
 332.5 134.5 l 1
 332.5 134 l 1
 332.5 -199 l 1
333.5 -198.5 m 1
 333.5 133.5 l 1
 498.5 133.5 l 1
 498.5 -198.5 l 1
 333.5 -198.5 l 1
333 -199 m 1
 333 134 l 1
 499 134 l 1
 499 -199 l 1
 333 -199 l 1
EndSplineSet
EndChar

StartChar: glyph13
Encoding: 269 1097742 13
Width: 0
VWidth: 0
Flags: H
LayerCount: 2
Fore
SplineSet
332.5 134 m 1
 332.5 133.5 l 1
 333 133.5 l 1
 499 133.5 l 1
 499.5 133.5 l 1
 499.5 134 l 1
 499.5 467 l 1
 499.5 467.5 l 1
 499 467.5 l 1
 333 467.5 l 1
 332.5 467.5 l 1
 332.5 467 l 1
 332.5 134 l 1
333.5 134.5 m 1
 333.5 466.5 l 1
 498.5 466.5 l 1
 498.5 134.5 l 1
 333.5 134.5 l 1
333 134 m 1
 333 467 l 1
 499 467 l 1
 499 134 l 1
 333 134 l 1
-0.5 -199 m 1
 -0.5 -199.5 l 1
 0 -199.5 l 1
 166 -199.5 l 1
 166.5 -199.5 l 1
 166.5 -199 l 1
 166.5 134 l 1
 166.5 134.5 l 1
 166 134.5 l 1
 0 134.5 l 1
 -0.5 134.5 l 1
 -0.5 134 l 1
 -0.5 -199 l 1
0.5 -198.5 m 1
 0.5 133.5 l 1
 165.5 133.5 l 1
 165.5 -198.5 l 1
 0.5 -198.5 l 1
0 -199 m 1
 0 134 l 1
 166 134 l 1
 166 -199 l 1
 0 -199 l 1
165.5 -199 m 1
 165.5 -199.5 l 1
 166 -199.5 l 1
 332 -199.5 l 1
 332.5 -199.5 l 1
 332.5 -199 l 1
 332.5 134 l 1
 332.5 134.5 l 1
 332 134.5 l 1
 166 134.5 l 1
 165.5 134.5 l 1
 165.5 134 l 1
 165.5 -199 l 1
166.5 -198.5 m 1
 166.5 133.5 l 1
 331.5 133.5 l 1
 331.5 -198.5 l 1
 166.5 -198.5 l 1
166 -199 m 1
 166 134 l 1
 332 134 l 1
 332 -199 l 1
 166 -199 l 1
EndSplineSet
EndChar

StartChar: glyph14
Encoding: 270 1097743 14
Width: 0
VWidth: 0
Flags: H
LayerCount: 2
Fore
SplineSet
332.5 134 m 1
 332.5 133.5 l 1
 333 133.5 l 1
 499 133.5 l 1
 499.5 133.5 l 1
 499.5 134 l 1
 499.5 467 l 1
 499.5 467.5 l 1
 499 467.5 l 1
 333 467.5 l 1
 332.5 467.5 l 1
 332.5 467 l 1
 332.5 134 l 1
333.5 134.5 m 1
 333.5 466.5 l 1
 498.5 466.5 l 1
 498.5 134.5 l 1
 333.5 134.5 l 1
333 134 m 1
 333 467 l 1
 499 467 l 1
 499 134 l 1
 333 134 l 1
-0.5 -199 m 1
 -0.5 -199.5 l 1
 0 -199.5 l 1
 166 -199.5 l 1
 166.5 -199.5 l 1
 166.5 -199 l 1
 166.5 134 l 1
 166.5 134.5 l 1
 166 134.5 l 1
 0 134.5 l 1
 -0.5 134.5 l 1
 -0.5 134 l 1
 -0.5 -199 l 1
0.5 -198.5 m 1
 0.5 133.5 l 1
 165.5 133.5 l 1
 165.5 -198.5 l 1
 0.5 -198.5 l 1
0 -199 m 1
 0 134 l 1
 166 134 l 1
 166 -199 l 1
 0 -199 l 1
165.5 -199 m 1
 165.5 -199.5 l 1
 166 -199.5 l 1
 332 -199.5 l 1
 332.5 -199.5 l 1
 332.5 -199 l 1
 332.5 134 l 1
 332.5 134.5 l 1
 332 134.5 l 1
 166 134.5 l 1
 165.5 134.5 l 1
 165.5 134 l 1
 165.5 -199 l 1
166.5 -198.5 m 1
 166.5 133.5 l 1
 331.5 133.5 l 1
 331.5 -198.5 l 1
 166.5 -198.5 l 1
166 -199 m 1
 166 134 l 1
 332 134 l 1
 332 -199 l 1
 166 -199 l 1
332.5 -199 m 1
 332.5 -199.5 l 1
 333 -199.5 l 1
 499 -199.5 l 1
 499.5 -199.5 l 1
 499.5 -199 l 1
 499.5 134 l 1
 499.5 134.5 l 1
 499 134.5 l 1
 333 134.5 l 1
 332.5 134.5 l 1
 332.5 134 l 1
 332.5 -199 l 1
333.5 -198.5 m 1
 333.5 133.5 l 1
 498.5 133.5 l 1
 498.5 -198.5 l 1
 333.5 -198.5 l 1
333 -199 m 1
 333 134 l 1
 499 134 l 1
 499 -199 l 1
 333 -199 l 1
EndSplineSet
EndChar

StartChar: glyph15
Encoding: 271 1097744 15
Width: 0
VWidth: 0
Flags: H
LayerCount: 2
Fore
SplineSet
165.5 134 m 1
 165.5 133.5 l 1
 166 133.5 l 1
 332 133.5 l 1
 332.5 133.5 l 1
 332.5 134 l 1
 332.5 467 l 1
 332.5 467.5 l 1
 332 467.5 l 1
 166 467.5 l 1
 165.5 467.5 l 1
 165.5 467 l 1
 165.5 134 l 1
166.5 134.5 m 1
 166.5 466.5 l 1
 331.5 466.5 l 1
 331.5 134.5 l 1
 166.5 134.5 l 1
166 134 m 1
 166 467 l 1
 332 467 l 1
 332 134 l 1
 166 134 l 1
EndSplineSet
EndChar

StartChar: glyph16
Encoding: 272 1097745 16
Width: 0
VWidth: 0
Flags: H
LayerCount: 2
Fore
SplineSet
165.5 134 m 1
 165.5 133.5 l 1
 166 133.5 l 1
 332 133.5 l 1
 332.5 133.5 l 1
 332.5 134 l 1
 332.5 467 l 1
 332.5 467.5 l 1
 332 467.5 l 1
 166 467.5 l 1
 165.5 467.5 l 1
 165.5 467 l 1
 165.5 134 l 1
166.5 134.5 m 1
 166.5 466.5 l 1
 331.5 466.5 l 1
 331.5 134.5 l 1
 166.5 134.5 l 1
166 134 m 1
 166 467 l 1
 332 467 l 1
 332 134 l 1
 166 134 l 1
332.5 -199 m 1
 332.5 -199.5 l 1
 333 -199.5 l 1
 499 -199.5 l 1
 499.5 -199.5 l 1
 499.5 -199 l 1
 499.5 134 l 1
 499.5 134.5 l 1
 499 134.5 l 1
 333 134.5 l 1
 332.5 134.5 l 1
 332.5 134 l 1
 332.5 -199 l 1
333.5 -198.5 m 1
 333.5 133.5 l 1
 498.5 133.5 l 1
 498.5 -198.5 l 1
 333.5 -198.5 l 1
333 -199 m 1
 333 134 l 1
 499 134 l 1
 499 -199 l 1
 333 -199 l 1
EndSplineSet
EndChar

StartChar: glyph17
Encoding: 273 1097746 17
Width: 0
VWidth: 0
Flags: H
LayerCount: 2
Fore
SplineSet
165.5 134 m 1
 165.5 133.5 l 1
 166 133.5 l 1
 332 133.5 l 1
 332.5 133.5 l 1
 332.5 134 l 1
 332.5 467 l 1
 332.5 467.5 l 1
 332 467.5 l 1
 166 467.5 l 1
 165.5 467.5 l 1
 165.5 467 l 1
 165.5 134 l 1
166.5 134.5 m 1
 166.5 466.5 l 1
 331.5 466.5 l 1
 331.5 134.5 l 1
 166.5 134.5 l 1
166 134 m 1
 166 467 l 1
 332 467 l 1
 332 134 l 1
 166 134 l 1
165.5 -199 m 1
 165.5 -199.5 l 1
 166 -199.5 l 1
 332 -199.5 l 1
 332.5 -199.5 l 1
 332.5 -199 l 1
 332.5 134 l 1
 332.5 134.5 l 1
 332 134.5 l 1
 166 134.5 l 1
 165.5 134.5 l 1
 165.5 134 l 1
 165.5 -199 l 1
166.5 -198.5 m 1
 166.5 133.5 l 1
 331.5 133.5 l 1
 331.5 -198.5 l 1
 166.5 -198.5 l 1
166 -199 m 1
 166 134 l 1
 332 134 l 1
 332 -199 l 1
 166 -199 l 1
EndSplineSet
EndChar

StartChar: glyph18
Encoding: 274 1097747 18
Width: 0
VWidth: 0
Flags: H
LayerCount: 2
Fore
SplineSet
165.5 134 m 1
 165.5 133.5 l 1
 166 133.5 l 1
 332 133.5 l 1
 332.5 133.5 l 1
 332.5 134 l 1
 332.5 467 l 1
 332.5 467.5 l 1
 332 467.5 l 1
 166 467.5 l 1
 165.5 467.5 l 1
 165.5 467 l 1
 165.5 134 l 1
166.5 134.5 m 1
 166.5 466.5 l 1
 331.5 466.5 l 1
 331.5 134.5 l 1
 166.5 134.5 l 1
166 134 m 1
 166 467 l 1
 332 467 l 1
 332 134 l 1
 166 134 l 1
165.5 -199 m 1
 165.5 -199.5 l 1
 166 -199.5 l 1
 332 -199.5 l 1
 332.5 -199.5 l 1
 332.5 -199 l 1
 332.5 134 l 1
 332.5 134.5 l 1
 332 134.5 l 1
 166 134.5 l 1
 165.5 134.5 l 1
 165.5 134 l 1
 165.5 -199 l 1
166.5 -198.5 m 1
 166.5 133.5 l 1
 331.5 133.5 l 1
 331.5 -198.5 l 1
 166.5 -198.5 l 1
166 -199 m 1
 166 134 l 1
 332 134 l 1
 332 -199 l 1
 166 -199 l 1
332.5 -199 m 1
 332.5 -199.5 l 1
 333 -199.5 l 1
 499 -199.5 l 1
 499.5 -199.5 l 1
 499.5 -199 l 1
 499.5 134 l 1
 499.5 134.5 l 1
 499 134.5 l 1
 333 134.5 l 1
 332.5 134.5 l 1
 332.5 134 l 1
 332.5 -199 l 1
333.5 -198.5 m 1
 333.5 133.5 l 1
 498.5 133.5 l 1
 498.5 -198.5 l 1
 333.5 -198.5 l 1
333 -199 m 1
 333 134 l 1
 499 134 l 1
 499 -199 l 1
 333 -199 l 1
EndSplineSet
EndChar

StartChar: glyph19
Encoding: 275 1097748 19
Width: 0
VWidth: 0
Flags: H
LayerCount: 2
Fore
SplineSet
165.5 134 m 1
 165.5 133.5 l 1
 166 133.5 l 1
 332 133.5 l 1
 332.5 133.5 l 1
 332.5 134 l 1
 332.5 467 l 1
 332.5 467.5 l 1
 332 467.5 l 1
 166 467.5 l 1
 165.5 467.5 l 1
 165.5 467 l 1
 165.5 134 l 1
166.5 134.5 m 1
 166.5 466.5 l 1
 331.5 466.5 l 1
 331.5 134.5 l 1
 166.5 134.5 l 1
166 134 m 1
 166 467 l 1
 332 467 l 1
 332 134 l 1
 166 134 l 1
-0.5 -199 m 1
 -0.5 -199.5 l 1
 0 -199.5 l 1
 166 -199.5 l 1
 166.5 -199.5 l 1
 166.5 -199 l 1
 166.5 134 l 1
 166.5 134.5 l 1
 166 134.5 l 1
 0 134.5 l 1
 -0.5 134.5 l 1
 -0.5 134 l 1
 -0.5 -199 l 1
0.5 -198.5 m 1
 0.5 133.5 l 1
 165.5 133.5 l 1
 165.5 -198.5 l 1
 0.5 -198.5 l 1
0 -199 m 1
 0 134 l 1
 166 134 l 1
 166 -199 l 1
 0 -199 l 1
EndSplineSet
EndChar

StartChar: glyph20
Encoding: 276 1097749 20
Width: 0
VWidth: 0
Flags: H
LayerCount: 2
Fore
SplineSet
165.5 134 m 1
 165.5 133.5 l 1
 166 133.5 l 1
 332 133.5 l 1
 332.5 133.5 l 1
 332.5 134 l 1
 332.5 467 l 1
 332.5 467.5 l 1
 332 467.5 l 1
 166 467.5 l 1
 165.5 467.5 l 1
 165.5 467 l 1
 165.5 134 l 1
166.5 134.5 m 1
 166.5 466.5 l 1
 331.5 466.5 l 1
 331.5 134.5 l 1
 166.5 134.5 l 1
166 134 m 1
 166 467 l 1
 332 467 l 1
 332 134 l 1
 166 134 l 1
-0.5 -199 m 1
 -0.5 -199.5 l 1
 0 -199.5 l 1
 166 -199.5 l 1
 166.5 -199.5 l 1
 166.5 -199 l 1
 166.5 134 l 1
 166.5 134.5 l 1
 166 134.5 l 1
 0 134.5 l 1
 -0.5 134.5 l 1
 -0.5 134 l 1
 -0.5 -199 l 1
0.5 -198.5 m 1
 0.5 133.5 l 1
 165.5 133.5 l 1
 165.5 -198.5 l 1
 0.5 -198.5 l 1
0 -199 m 1
 0 134 l 1
 166 134 l 1
 166 -199 l 1
 0 -199 l 1
332.5 -199 m 1
 332.5 -199.5 l 1
 333 -199.5 l 1
 499 -199.5 l 1
 499.5 -199.5 l 1
 499.5 -199 l 1
 499.5 134 l 1
 499.5 134.5 l 1
 499 134.5 l 1
 333 134.5 l 1
 332.5 134.5 l 1
 332.5 134 l 1
 332.5 -199 l 1
333.5 -198.5 m 1
 333.5 133.5 l 1
 498.5 133.5 l 1
 498.5 -198.5 l 1
 333.5 -198.5 l 1
333 -199 m 1
 333 134 l 1
 499 134 l 1
 499 -199 l 1
 333 -199 l 1
EndSplineSet
EndChar

StartChar: glyph21
Encoding: 277 1097750 21
Width: 0
VWidth: 0
Flags: H
LayerCount: 2
Fore
SplineSet
165.5 134 m 1
 165.5 133.5 l 1
 166 133.5 l 1
 332 133.5 l 1
 332.5 133.5 l 1
 332.5 134 l 1
 332.5 467 l 1
 332.5 467.5 l 1
 332 467.5 l 1
 166 467.5 l 1
 165.5 467.5 l 1
 165.5 467 l 1
 165.5 134 l 1
166.5 134.5 m 1
 166.5 466.5 l 1
 331.5 466.5 l 1
 331.5 134.5 l 1
 166.5 134.5 l 1
166 134 m 1
 166 467 l 1
 332 467 l 1
 332 134 l 1
 166 134 l 1
-0.5 -199 m 1
 -0.5 -199.5 l 1
 0 -199.5 l 1
 166 -199.5 l 1
 166.5 -199.5 l 1
 166.5 -199 l 1
 166.5 134 l 1
 166.5 134.5 l 1
 166 134.5 l 1
 0 134.5 l 1
 -0.5 134.5 l 1
 -0.5 134 l 1
 -0.5 -199 l 1
0.5 -198.5 m 1
 0.5 133.5 l 1
 165.5 133.5 l 1
 165.5 -198.5 l 1
 0.5 -198.5 l 1
0 -199 m 1
 0 134 l 1
 166 134 l 1
 166 -199 l 1
 0 -199 l 1
165.5 -199 m 1
 165.5 -199.5 l 1
 166 -199.5 l 1
 332 -199.5 l 1
 332.5 -199.5 l 1
 332.5 -199 l 1
 332.5 134 l 1
 332.5 134.5 l 1
 332 134.5 l 1
 166 134.5 l 1
 165.5 134.5 l 1
 165.5 134 l 1
 165.5 -199 l 1
166.5 -198.5 m 1
 166.5 133.5 l 1
 331.5 133.5 l 1
 331.5 -198.5 l 1
 166.5 -198.5 l 1
166 -199 m 1
 166 134 l 1
 332 134 l 1
 332 -199 l 1
 166 -199 l 1
EndSplineSet
EndChar

StartChar: glyph22
Encoding: 278 1097751 22
Width: 0
VWidth: 0
Flags: H
LayerCount: 2
Fore
SplineSet
165.5 134 m 1
 165.5 133.5 l 1
 166 133.5 l 1
 332 133.5 l 1
 332.5 133.5 l 1
 332.5 134 l 1
 332.5 467 l 1
 332.5 467.5 l 1
 332 467.5 l 1
 166 467.5 l 1
 165.5 467.5 l 1
 165.5 467 l 1
 165.5 134 l 1
166.5 134.5 m 1
 166.5 466.5 l 1
 331.5 466.5 l 1
 331.5 134.5 l 1
 166.5 134.5 l 1
166 134 m 1
 166 467 l 1
 332 467 l 1
 332 134 l 1
 166 134 l 1
-0.5 -199 m 1
 -0.5 -199.5 l 1
 0 -199.5 l 1
 166 -199.5 l 1
 166.5 -199.5 l 1
 166.5 -199 l 1
 166.5 134 l 1
 166.5 134.5 l 1
 166 134.5 l 1
 0 134.5 l 1
 -0.5 134.5 l 1
 -0.5 134 l 1
 -0.5 -199 l 1
0.5 -198.5 m 1
 0.5 133.5 l 1
 165.5 133.5 l 1
 165.5 -198.5 l 1
 0.5 -198.5 l 1
0 -199 m 1
 0 134 l 1
 166 134 l 1
 166 -199 l 1
 0 -199 l 1
165.5 -199 m 1
 165.5 -199.5 l 1
 166 -199.5 l 1
 332 -199.5 l 1
 332.5 -199.5 l 1
 332.5 -199 l 1
 332.5 134 l 1
 332.5 134.5 l 1
 332 134.5 l 1
 166 134.5 l 1
 165.5 134.5 l 1
 165.5 134 l 1
 165.5 -199 l 1
166.5 -198.5 m 1
 166.5 133.5 l 1
 331.5 133.5 l 1
 331.5 -198.5 l 1
 166.5 -198.5 l 1
166 -199 m 1
 166 134 l 1
 332 134 l 1
 332 -199 l 1
 166 -199 l 1
332.5 -199 m 1
 332.5 -199.5 l 1
 333 -199.5 l 1
 499 -199.5 l 1
 499.5 -199.5 l 1
 499.5 -199 l 1
 499.5 134 l 1
 499.5 134.5 l 1
 499 134.5 l 1
 333 134.5 l 1
 332.5 134.5 l 1
 332.5 134 l 1
 332.5 -199 l 1
333.5 -198.5 m 1
 333.5 133.5 l 1
 498.5 133.5 l 1
 498.5 -198.5 l 1
 333.5 -198.5 l 1
333 -199 m 1
 333 134 l 1
 499 134 l 1
 499 -199 l 1
 333 -199 l 1
EndSplineSet
EndChar

StartChar: glyph23
Encoding: 279 1097752 23
Width: 0
VWidth: 0
Flags: H
LayerCount: 2
Fore
SplineSet
165.5 134 m 1
 165.5 133.5 l 1
 166 133.5 l 1
 332 133.5 l 1
 332.5 133.5 l 1
 332.5 134 l 1
 332.5 467 l 1
 332.5 467.5 l 1
 332 467.5 l 1
 166 467.5 l 1
 165.5 467.5 l 1
 165.5 467 l 1
 165.5 134 l 1
166.5 134.5 m 1
 166.5 466.5 l 1
 331.5 466.5 l 1
 331.5 134.5 l 1
 166.5 134.5 l 1
166 134 m 1
 166 467 l 1
 332 467 l 1
 332 134 l 1
 166 134 l 1
332.5 134 m 1
 332.5 133.5 l 1
 333 133.5 l 1
 499 133.5 l 1
 499.5 133.5 l 1
 499.5 134 l 1
 499.5 467 l 1
 499.5 467.5 l 1
 499 467.5 l 1
 333 467.5 l 1
 332.5 467.5 l 1
 332.5 467 l 1
 332.5 134 l 1
333.5 134.5 m 1
 333.5 466.5 l 1
 498.5 466.5 l 1
 498.5 134.5 l 1
 333.5 134.5 l 1
333 134 m 1
 333 467 l 1
 499 467 l 1
 499 134 l 1
 333 134 l 1
EndSplineSet
EndChar

StartChar: glyph24
Encoding: 280 1097753 24
Width: 0
VWidth: 0
Flags: H
LayerCount: 2
Fore
SplineSet
165.5 134 m 1
 165.5 133.5 l 1
 166 133.5 l 1
 332 133.5 l 1
 332.5 133.5 l 1
 332.5 134 l 1
 332.5 467 l 1
 332.5 467.5 l 1
 332 467.5 l 1
 166 467.5 l 1
 165.5 467.5 l 1
 165.5 467 l 1
 165.5 134 l 1
166.5 134.5 m 1
 166.5 466.5 l 1
 331.5 466.5 l 1
 331.5 134.5 l 1
 166.5 134.5 l 1
166 134 m 1
 166 467 l 1
 332 467 l 1
 332 134 l 1
 166 134 l 1
332.5 134 m 1
 332.5 133.5 l 1
 333 133.5 l 1
 499 133.5 l 1
 499.5 133.5 l 1
 499.5 134 l 1
 499.5 467 l 1
 499.5 467.5 l 1
 499 467.5 l 1
 333 467.5 l 1
 332.5 467.5 l 1
 332.5 467 l 1
 332.5 134 l 1
333.5 134.5 m 1
 333.5 466.5 l 1
 498.5 466.5 l 1
 498.5 134.5 l 1
 333.5 134.5 l 1
333 134 m 1
 333 467 l 1
 499 467 l 1
 499 134 l 1
 333 134 l 1
332.5 -199 m 1
 332.5 -199.5 l 1
 333 -199.5 l 1
 499 -199.5 l 1
 499.5 -199.5 l 1
 499.5 -199 l 1
 499.5 134 l 1
 499.5 134.5 l 1
 499 134.5 l 1
 333 134.5 l 1
 332.5 134.5 l 1
 332.5 134 l 1
 332.5 -199 l 1
333.5 -198.5 m 1
 333.5 133.5 l 1
 498.5 133.5 l 1
 498.5 -198.5 l 1
 333.5 -198.5 l 1
333 -199 m 1
 333 134 l 1
 499 134 l 1
 499 -199 l 1
 333 -199 l 1
EndSplineSet
EndChar

StartChar: glyph25
Encoding: 281 1097754 25
Width: 0
VWidth: 0
Flags: H
LayerCount: 2
Fore
SplineSet
165.5 134 m 1
 165.5 133.5 l 1
 166 133.5 l 1
 332 133.5 l 1
 332.5 133.5 l 1
 332.5 134 l 1
 332.5 467 l 1
 332.5 467.5 l 1
 332 467.5 l 1
 166 467.5 l 1
 165.5 467.5 l 1
 165.5 467 l 1
 165.5 134 l 1
166.5 134.5 m 1
 166.5 466.5 l 1
 331.5 466.5 l 1
 331.5 134.5 l 1
 166.5 134.5 l 1
166 134 m 1
 166 467 l 1
 332 467 l 1
 332 134 l 1
 166 134 l 1
332.5 134 m 1
 332.5 133.5 l 1
 333 133.5 l 1
 499 133.5 l 1
 499.5 133.5 l 1
 499.5 134 l 1
 499.5 467 l 1
 499.5 467.5 l 1
 499 467.5 l 1
 333 467.5 l 1
 332.5 467.5 l 1
 332.5 467 l 1
 332.5 134 l 1
333.5 134.5 m 1
 333.5 466.5 l 1
 498.5 466.5 l 1
 498.5 134.5 l 1
 333.5 134.5 l 1
333 134 m 1
 333 467 l 1
 499 467 l 1
 499 134 l 1
 333 134 l 1
165.5 -199 m 1
 165.5 -199.5 l 1
 166 -199.5 l 1
 332 -199.5 l 1
 332.5 -199.5 l 1
 332.5 -199 l 1
 332.5 134 l 1
 332.5 134.5 l 1
 332 134.5 l 1
 166 134.5 l 1
 165.5 134.5 l 1
 165.5 134 l 1
 165.5 -199 l 1
166.5 -198.5 m 1
 166.5 133.5 l 1
 331.5 133.5 l 1
 331.5 -198.5 l 1
 166.5 -198.5 l 1
166 -199 m 1
 166 134 l 1
 332 134 l 1
 332 -199 l 1
 166 -199 l 1
EndSplineSet
EndChar

StartChar: glyph26
Encoding: 282 1097755 26
Width: 0
VWidth: 0
Flags: H
LayerCount: 2
Fore
SplineSet
165.5 134 m 1
 165.5 133.5 l 1
 166 133.5 l 1
 332 133.5 l 1
 332.5 133.5 l 1
 332.5 134 l 1
 332.5 467 l 1
 332.5 467.5 l 1
 332 467.5 l 1
 166 467.5 l 1
 165.5 467.5 l 1
 165.5 467 l 1
 165.5 134 l 1
166.5 134.5 m 1
 166.5 466.5 l 1
 331.5 466.5 l 1
 331.5 134.5 l 1
 166.5 134.5 l 1
166 134 m 1
 166 467 l 1
 332 467 l 1
 332 134 l 1
 166 134 l 1
332.5 134 m 1
 332.5 133.5 l 1
 333 133.5 l 1
 499 133.5 l 1
 499.5 133.5 l 1
 499.5 134 l 1
 499.5 467 l 1
 499.5 467.5 l 1
 499 467.5 l 1
 333 467.5 l 1
 332.5 467.5 l 1
 332.5 467 l 1
 332.5 134 l 1
333.5 134.5 m 1
 333.5 466.5 l 1
 498.5 466.5 l 1
 498.5 134.5 l 1
 333.5 134.5 l 1
333 134 m 1
 333 467 l 1
 499 467 l 1
 499 134 l 1
 333 134 l 1
165.5 -199 m 1
 165.5 -199.5 l 1
 166 -199.5 l 1
 332 -199.5 l 1
 332.5 -199.5 l 1
 332.5 -199 l 1
 332.5 134 l 1
 332.5 134.5 l 1
 332 134.5 l 1
 166 134.5 l 1
 165.5 134.5 l 1
 165.5 134 l 1
 165.5 -199 l 1
166.5 -198.5 m 1
 166.5 133.5 l 1
 331.5 133.5 l 1
 331.5 -198.5 l 1
 166.5 -198.5 l 1
166 -199 m 1
 166 134 l 1
 332 134 l 1
 332 -199 l 1
 166 -199 l 1
332.5 -199 m 1
 332.5 -199.5 l 1
 333 -199.5 l 1
 499 -199.5 l 1
 499.5 -199.5 l 1
 499.5 -199 l 1
 499.5 134 l 1
 499.5 134.5 l 1
 499 134.5 l 1
 333 134.5 l 1
 332.5 134.5 l 1
 332.5 134 l 1
 332.5 -199 l 1
333.5 -198.5 m 1
 333.5 133.5 l 1
 498.5 133.5 l 1
 498.5 -198.5 l 1
 333.5 -198.5 l 1
333 -199 m 1
 333 134 l 1
 499 134 l 1
 499 -199 l 1
 333 -199 l 1
EndSplineSet
EndChar

StartChar: glyph27
Encoding: 283 1097756 27
Width: 0
VWidth: 0
Flags: H
LayerCount: 2
Fore
SplineSet
165.5 134 m 1
 165.5 133.5 l 1
 166 133.5 l 1
 332 133.5 l 1
 332.5 133.5 l 1
 332.5 134 l 1
 332.5 467 l 1
 332.5 467.5 l 1
 332 467.5 l 1
 166 467.5 l 1
 165.5 467.5 l 1
 165.5 467 l 1
 165.5 134 l 1
166.5 134.5 m 1
 166.5 466.5 l 1
 331.5 466.5 l 1
 331.5 134.5 l 1
 166.5 134.5 l 1
166 134 m 1
 166 467 l 1
 332 467 l 1
 332 134 l 1
 166 134 l 1
332.5 134 m 1
 332.5 133.5 l 1
 333 133.5 l 1
 499 133.5 l 1
 499.5 133.5 l 1
 499.5 134 l 1
 499.5 467 l 1
 499.5 467.5 l 1
 499 467.5 l 1
 333 467.5 l 1
 332.5 467.5 l 1
 332.5 467 l 1
 332.5 134 l 1
333.5 134.5 m 1
 333.5 466.5 l 1
 498.5 466.5 l 1
 498.5 134.5 l 1
 333.5 134.5 l 1
333 134 m 1
 333 467 l 1
 499 467 l 1
 499 134 l 1
 333 134 l 1
-0.5 -199 m 1
 -0.5 -199.5 l 1
 0 -199.5 l 1
 166 -199.5 l 1
 166.5 -199.5 l 1
 166.5 -199 l 1
 166.5 134 l 1
 166.5 134.5 l 1
 166 134.5 l 1
 0 134.5 l 1
 -0.5 134.5 l 1
 -0.5 134 l 1
 -0.5 -199 l 1
0.5 -198.5 m 1
 0.5 133.5 l 1
 165.5 133.5 l 1
 165.5 -198.5 l 1
 0.5 -198.5 l 1
0 -199 m 1
 0 134 l 1
 166 134 l 1
 166 -199 l 1
 0 -199 l 1
EndSplineSet
EndChar

StartChar: glyph28
Encoding: 284 1097757 28
Width: 0
VWidth: 0
Flags: H
LayerCount: 2
Fore
SplineSet
165.5 134 m 1
 165.5 133.5 l 1
 166 133.5 l 1
 332 133.5 l 1
 332.5 133.5 l 1
 332.5 134 l 1
 332.5 467 l 1
 332.5 467.5 l 1
 332 467.5 l 1
 166 467.5 l 1
 165.5 467.5 l 1
 165.5 467 l 1
 165.5 134 l 1
166.5 134.5 m 1
 166.5 466.5 l 1
 331.5 466.5 l 1
 331.5 134.5 l 1
 166.5 134.5 l 1
166 134 m 1
 166 467 l 1
 332 467 l 1
 332 134 l 1
 166 134 l 1
332.5 134 m 1
 332.5 133.5 l 1
 333 133.5 l 1
 499 133.5 l 1
 499.5 133.5 l 1
 499.5 134 l 1
 499.5 467 l 1
 499.5 467.5 l 1
 499 467.5 l 1
 333 467.5 l 1
 332.5 467.5 l 1
 332.5 467 l 1
 332.5 134 l 1
333.5 134.5 m 1
 333.5 466.5 l 1
 498.5 466.5 l 1
 498.5 134.5 l 1
 333.5 134.5 l 1
333 134 m 1
 333 467 l 1
 499 467 l 1
 499 134 l 1
 333 134 l 1
-0.5 -199 m 1
 -0.5 -199.5 l 1
 0 -199.5 l 1
 166 -199.5 l 1
 166.5 -199.5 l 1
 166.5 -199 l 1
 166.5 134 l 1
 166.5 134.5 l 1
 166 134.5 l 1
 0 134.5 l 1
 -0.5 134.5 l 1
 -0.5 134 l 1
 -0.5 -199 l 1
0.5 -198.5 m 1
 0.5 133.5 l 1
 165.5 133.5 l 1
 165.5 -198.5 l 1
 0.5 -198.5 l 1
0 -199 m 1
 0 134 l 1
 166 134 l 1
 166 -199 l 1
 0 -199 l 1
332.5 -199 m 1
 332.5 -199.5 l 1
 333 -199.5 l 1
 499 -199.5 l 1
 499.5 -199.5 l 1
 499.5 -199 l 1
 499.5 134 l 1
 499.5 134.5 l 1
 499 134.5 l 1
 333 134.5 l 1
 332.5 134.5 l 1
 332.5 134 l 1
 332.5 -199 l 1
333.5 -198.5 m 1
 333.5 133.5 l 1
 498.5 133.5 l 1
 498.5 -198.5 l 1
 333.5 -198.5 l 1
333 -199 m 1
 333 134 l 1
 499 134 l 1
 499 -199 l 1
 333 -199 l 1
EndSplineSet
EndChar

StartChar: glyph29
Encoding: 285 1097758 29
Width: 0
VWidth: 0
Flags: H
LayerCount: 2
Fore
SplineSet
165.5 134 m 1
 165.5 133.5 l 1
 166 133.5 l 1
 332 133.5 l 1
 332.5 133.5 l 1
 332.5 134 l 1
 332.5 467 l 1
 332.5 467.5 l 1
 332 467.5 l 1
 166 467.5 l 1
 165.5 467.5 l 1
 165.5 467 l 1
 165.5 134 l 1
166.5 134.5 m 1
 166.5 466.5 l 1
 331.5 466.5 l 1
 331.5 134.5 l 1
 166.5 134.5 l 1
166 134 m 1
 166 467 l 1
 332 467 l 1
 332 134 l 1
 166 134 l 1
332.5 134 m 1
 332.5 133.5 l 1
 333 133.5 l 1
 499 133.5 l 1
 499.5 133.5 l 1
 499.5 134 l 1
 499.5 467 l 1
 499.5 467.5 l 1
 499 467.5 l 1
 333 467.5 l 1
 332.5 467.5 l 1
 332.5 467 l 1
 332.5 134 l 1
333.5 134.5 m 1
 333.5 466.5 l 1
 498.5 466.5 l 1
 498.5 134.5 l 1
 333.5 134.5 l 1
333 134 m 1
 333 467 l 1
 499 467 l 1
 499 134 l 1
 333 134 l 1
-0.5 -199 m 1
 -0.5 -199.5 l 1
 0 -199.5 l 1
 166 -199.5 l 1
 166.5 -199.5 l 1
 166.5 -199 l 1
 166.5 134 l 1
 166.5 134.5 l 1
 166 134.5 l 1
 0 134.5 l 1
 -0.5 134.5 l 1
 -0.5 134 l 1
 -0.5 -199 l 1
0.5 -198.5 m 1
 0.5 133.5 l 1
 165.5 133.5 l 1
 165.5 -198.5 l 1
 0.5 -198.5 l 1
0 -199 m 1
 0 134 l 1
 166 134 l 1
 166 -199 l 1
 0 -199 l 1
165.5 -199 m 1
 165.5 -199.5 l 1
 166 -199.5 l 1
 332 -199.5 l 1
 332.5 -199.5 l 1
 332.5 -199 l 1
 332.5 134 l 1
 332.5 134.5 l 1
 332 134.5 l 1
 166 134.5 l 1
 165.5 134.5 l 1
 165.5 134 l 1
 165.5 -199 l 1
166.5 -198.5 m 1
 166.5 133.5 l 1
 331.5 133.5 l 1
 331.5 -198.5 l 1
 166.5 -198.5 l 1
166 -199 m 1
 166 134 l 1
 332 134 l 1
 332 -199 l 1
 166 -199 l 1
EndSplineSet
EndChar

StartChar: glyph30
Encoding: 286 1097759 30
Width: 0
VWidth: 0
Flags: H
LayerCount: 2
Fore
SplineSet
165.5 134 m 1
 165.5 133.5 l 1
 166 133.5 l 1
 332 133.5 l 1
 332.5 133.5 l 1
 332.5 134 l 1
 332.5 467 l 1
 332.5 467.5 l 1
 332 467.5 l 1
 166 467.5 l 1
 165.5 467.5 l 1
 165.5 467 l 1
 165.5 134 l 1
166.5 134.5 m 1
 166.5 466.5 l 1
 331.5 466.5 l 1
 331.5 134.5 l 1
 166.5 134.5 l 1
166 134 m 1
 166 467 l 1
 332 467 l 1
 332 134 l 1
 166 134 l 1
332.5 134 m 1
 332.5 133.5 l 1
 333 133.5 l 1
 499 133.5 l 1
 499.5 133.5 l 1
 499.5 134 l 1
 499.5 467 l 1
 499.5 467.5 l 1
 499 467.5 l 1
 333 467.5 l 1
 332.5 467.5 l 1
 332.5 467 l 1
 332.5 134 l 1
333.5 134.5 m 1
 333.5 466.5 l 1
 498.5 466.5 l 1
 498.5 134.5 l 1
 333.5 134.5 l 1
333 134 m 1
 333 467 l 1
 499 467 l 1
 499 134 l 1
 333 134 l 1
-0.5 -199 m 1
 -0.5 -199.5 l 1
 0 -199.5 l 1
 166 -199.5 l 1
 166.5 -199.5 l 1
 166.5 -199 l 1
 166.5 134 l 1
 166.5 134.5 l 1
 166 134.5 l 1
 0 134.5 l 1
 -0.5 134.5 l 1
 -0.5 134 l 1
 -0.5 -199 l 1
0.5 -198.5 m 1
 0.5 133.5 l 1
 165.5 133.5 l 1
 165.5 -198.5 l 1
 0.5 -198.5 l 1
0 -199 m 1
 0 134 l 1
 166 134 l 1
 166 -199 l 1
 0 -199 l 1
165.5 -199 m 1
 165.5 -199.5 l 1
 166 -199.5 l 1
 332 -199.5 l 1
 332.5 -199.5 l 1
 332.5 -199 l 1
 332.5 134 l 1
 332.5 134.5 l 1
 332 134.5 l 1
 166 134.5 l 1
 165.5 134.5 l 1
 165.5 134 l 1
 165.5 -199 l 1
166.5 -198.5 m 1
 166.5 133.5 l 1
 331.5 133.5 l 1
 331.5 -198.5 l 1
 166.5 -198.5 l 1
166 -199 m 1
 166 134 l 1
 332 134 l 1
 332 -199 l 1
 166 -199 l 1
332.5 -199 m 1
 332.5 -199.5 l 1
 333 -199.5 l 1
 499 -199.5 l 1
 499.5 -199.5 l 1
 499.5 -199 l 1
 499.5 134 l 1
 499.5 134.5 l 1
 499 134.5 l 1
 333 134.5 l 1
 332.5 134.5 l 1
 332.5 134 l 1
 332.5 -199 l 1
333.5 -198.5 m 1
 333.5 133.5 l 1
 498.5 133.5 l 1
 498.5 -198.5 l 1
 333.5 -198.5 l 1
333 -199 m 1
 333 134 l 1
 499 134 l 1
 499 -199 l 1
 333 -199 l 1
EndSplineSet
EndChar

StartChar: glyph31
Encoding: 287 1097760 31
Width: 0
VWidth: 0
Flags: H
LayerCount: 2
Fore
SplineSet
-0.5 134 m 1
 -0.5 133.5 l 1
 0 133.5 l 1
 166 133.5 l 1
 166.5 133.5 l 1
 166.5 134 l 1
 166.5 467 l 1
 166.5 467.5 l 1
 166 467.5 l 1
 0 467.5 l 1
 -0.5 467.5 l 1
 -0.5 467 l 1
 -0.5 134 l 1
0.5 134.5 m 1
 0.5 466.5 l 1
 165.5 466.5 l 1
 165.5 134.5 l 1
 0.5 134.5 l 1
0 134 m 1
 0 467 l 1
 166 467 l 1
 166 134 l 1
 0 134 l 1
EndSplineSet
EndChar

StartChar: glyph32
Encoding: 288 1097761 32
Width: 0
VWidth: 0
Flags: H
LayerCount: 2
Fore
SplineSet
-0.5 134 m 1
 -0.5 133.5 l 1
 0 133.5 l 1
 166 133.5 l 1
 166.5 133.5 l 1
 166.5 134 l 1
 166.5 467 l 1
 166.5 467.5 l 1
 166 467.5 l 1
 0 467.5 l 1
 -0.5 467.5 l 1
 -0.5 467 l 1
 -0.5 134 l 1
0.5 134.5 m 1
 0.5 466.5 l 1
 165.5 466.5 l 1
 165.5 134.5 l 1
 0.5 134.5 l 1
0 134 m 1
 0 467 l 1
 166 467 l 1
 166 134 l 1
 0 134 l 1
332.5 -199 m 1
 332.5 -199.5 l 1
 333 -199.5 l 1
 499 -199.5 l 1
 499.5 -199.5 l 1
 499.5 -199 l 1
 499.5 134 l 1
 499.5 134.5 l 1
 499 134.5 l 1
 333 134.5 l 1
 332.5 134.5 l 1
 332.5 134 l 1
 332.5 -199 l 1
333.5 -198.5 m 1
 333.5 133.5 l 1
 498.5 133.5 l 1
 498.5 -198.5 l 1
 333.5 -198.5 l 1
333 -199 m 1
 333 134 l 1
 499 134 l 1
 499 -199 l 1
 333 -199 l 1
EndSplineSet
EndChar

StartChar: glyph33
Encoding: 289 1097762 33
Width: 0
VWidth: 0
Flags: H
LayerCount: 2
Fore
SplineSet
-0.5 134 m 1
 -0.5 133.5 l 1
 0 133.5 l 1
 166 133.5 l 1
 166.5 133.5 l 1
 166.5 134 l 1
 166.5 467 l 1
 166.5 467.5 l 1
 166 467.5 l 1
 0 467.5 l 1
 -0.5 467.5 l 1
 -0.5 467 l 1
 -0.5 134 l 1
0.5 134.5 m 1
 0.5 466.5 l 1
 165.5 466.5 l 1
 165.5 134.5 l 1
 0.5 134.5 l 1
0 134 m 1
 0 467 l 1
 166 467 l 1
 166 134 l 1
 0 134 l 1
165.5 -199 m 1
 165.5 -199.5 l 1
 166 -199.5 l 1
 332 -199.5 l 1
 332.5 -199.5 l 1
 332.5 -199 l 1
 332.5 134 l 1
 332.5 134.5 l 1
 332 134.5 l 1
 166 134.5 l 1
 165.5 134.5 l 1
 165.5 134 l 1
 165.5 -199 l 1
166.5 -198.5 m 1
 166.5 133.5 l 1
 331.5 133.5 l 1
 331.5 -198.5 l 1
 166.5 -198.5 l 1
166 -199 m 1
 166 134 l 1
 332 134 l 1
 332 -199 l 1
 166 -199 l 1
EndSplineSet
EndChar

StartChar: glyph34
Encoding: 290 1097763 34
Width: 0
VWidth: 0
Flags: H
LayerCount: 2
Fore
SplineSet
-0.5 134 m 1
 -0.5 133.5 l 1
 0 133.5 l 1
 166 133.5 l 1
 166.5 133.5 l 1
 166.5 134 l 1
 166.5 467 l 1
 166.5 467.5 l 1
 166 467.5 l 1
 0 467.5 l 1
 -0.5 467.5 l 1
 -0.5 467 l 1
 -0.5 134 l 1
0.5 134.5 m 1
 0.5 466.5 l 1
 165.5 466.5 l 1
 165.5 134.5 l 1
 0.5 134.5 l 1
0 134 m 1
 0 467 l 1
 166 467 l 1
 166 134 l 1
 0 134 l 1
165.5 -199 m 1
 165.5 -199.5 l 1
 166 -199.5 l 1
 332 -199.5 l 1
 332.5 -199.5 l 1
 332.5 -199 l 1
 332.5 134 l 1
 332.5 134.5 l 1
 332 134.5 l 1
 166 134.5 l 1
 165.5 134.5 l 1
 165.5 134 l 1
 165.5 -199 l 1
166.5 -198.5 m 1
 166.5 133.5 l 1
 331.5 133.5 l 1
 331.5 -198.5 l 1
 166.5 -198.5 l 1
166 -199 m 1
 166 134 l 1
 332 134 l 1
 332 -199 l 1
 166 -199 l 1
332.5 -199 m 1
 332.5 -199.5 l 1
 333 -199.5 l 1
 499 -199.5 l 1
 499.5 -199.5 l 1
 499.5 -199 l 1
 499.5 134 l 1
 499.5 134.5 l 1
 499 134.5 l 1
 333 134.5 l 1
 332.5 134.5 l 1
 332.5 134 l 1
 332.5 -199 l 1
333.5 -198.5 m 1
 333.5 133.5 l 1
 498.5 133.5 l 1
 498.5 -198.5 l 1
 333.5 -198.5 l 1
333 -199 m 1
 333 134 l 1
 499 134 l 1
 499 -199 l 1
 333 -199 l 1
EndSplineSet
EndChar

StartChar: glyph35
Encoding: 291 1097764 35
Width: 0
VWidth: 0
Flags: H
LayerCount: 2
Fore
SplineSet
-0.5 134 m 1
 -0.5 133.5 l 1
 0 133.5 l 1
 166 133.5 l 1
 166.5 133.5 l 1
 166.5 134 l 1
 166.5 467 l 1
 166.5 467.5 l 1
 166 467.5 l 1
 0 467.5 l 1
 -0.5 467.5 l 1
 -0.5 467 l 1
 -0.5 134 l 1
0.5 134.5 m 1
 0.5 466.5 l 1
 165.5 466.5 l 1
 165.5 134.5 l 1
 0.5 134.5 l 1
0 134 m 1
 0 467 l 1
 166 467 l 1
 166 134 l 1
 0 134 l 1
-0.5 -199 m 1
 -0.5 -199.5 l 1
 0 -199.5 l 1
 166 -199.5 l 1
 166.5 -199.5 l 1
 166.5 -199 l 1
 166.5 134 l 1
 166.5 134.5 l 1
 166 134.5 l 1
 0 134.5 l 1
 -0.5 134.5 l 1
 -0.5 134 l 1
 -0.5 -199 l 1
0.5 -198.5 m 1
 0.5 133.5 l 1
 165.5 133.5 l 1
 165.5 -198.5 l 1
 0.5 -198.5 l 1
0 -199 m 1
 0 134 l 1
 166 134 l 1
 166 -199 l 1
 0 -199 l 1
EndSplineSet
EndChar

StartChar: glyph36
Encoding: 292 1097765 36
Width: 0
VWidth: 0
Flags: H
LayerCount: 2
Fore
SplineSet
-0.5 134 m 1
 -0.5 133.5 l 1
 0 133.5 l 1
 166 133.5 l 1
 166.5 133.5 l 1
 166.5 134 l 1
 166.5 467 l 1
 166.5 467.5 l 1
 166 467.5 l 1
 0 467.5 l 1
 -0.5 467.5 l 1
 -0.5 467 l 1
 -0.5 134 l 1
0.5 134.5 m 1
 0.5 466.5 l 1
 165.5 466.5 l 1
 165.5 134.5 l 1
 0.5 134.5 l 1
0 134 m 1
 0 467 l 1
 166 467 l 1
 166 134 l 1
 0 134 l 1
-0.5 -199 m 1
 -0.5 -199.5 l 1
 0 -199.5 l 1
 166 -199.5 l 1
 166.5 -199.5 l 1
 166.5 -199 l 1
 166.5 134 l 1
 166.5 134.5 l 1
 166 134.5 l 1
 0 134.5 l 1
 -0.5 134.5 l 1
 -0.5 134 l 1
 -0.5 -199 l 1
0.5 -198.5 m 1
 0.5 133.5 l 1
 165.5 133.5 l 1
 165.5 -198.5 l 1
 0.5 -198.5 l 1
0 -199 m 1
 0 134 l 1
 166 134 l 1
 166 -199 l 1
 0 -199 l 1
332.5 -199 m 1
 332.5 -199.5 l 1
 333 -199.5 l 1
 499 -199.5 l 1
 499.5 -199.5 l 1
 499.5 -199 l 1
 499.5 134 l 1
 499.5 134.5 l 1
 499 134.5 l 1
 333 134.5 l 1
 332.5 134.5 l 1
 332.5 134 l 1
 332.5 -199 l 1
333.5 -198.5 m 1
 333.5 133.5 l 1
 498.5 133.5 l 1
 498.5 -198.5 l 1
 333.5 -198.5 l 1
333 -199 m 1
 333 134 l 1
 499 134 l 1
 499 -199 l 1
 333 -199 l 1
EndSplineSet
EndChar

StartChar: glyph37
Encoding: 293 1097766 37
Width: 0
VWidth: 0
Flags: H
LayerCount: 2
Fore
SplineSet
-0.5 134 m 1
 -0.5 133.5 l 1
 0 133.5 l 1
 166 133.5 l 1
 166.5 133.5 l 1
 166.5 134 l 1
 166.5 467 l 1
 166.5 467.5 l 1
 166 467.5 l 1
 0 467.5 l 1
 -0.5 467.5 l 1
 -0.5 467 l 1
 -0.5 134 l 1
0.5 134.5 m 1
 0.5 466.5 l 1
 165.5 466.5 l 1
 165.5 134.5 l 1
 0.5 134.5 l 1
0 134 m 1
 0 467 l 1
 166 467 l 1
 166 134 l 1
 0 134 l 1
-0.5 -199 m 1
 -0.5 -199.5 l 1
 0 -199.5 l 1
 166 -199.5 l 1
 166.5 -199.5 l 1
 166.5 -199 l 1
 166.5 134 l 1
 166.5 134.5 l 1
 166 134.5 l 1
 0 134.5 l 1
 -0.5 134.5 l 1
 -0.5 134 l 1
 -0.5 -199 l 1
0.5 -198.5 m 1
 0.5 133.5 l 1
 165.5 133.5 l 1
 165.5 -198.5 l 1
 0.5 -198.5 l 1
0 -199 m 1
 0 134 l 1
 166 134 l 1
 166 -199 l 1
 0 -199 l 1
165.5 -199 m 1
 165.5 -199.5 l 1
 166 -199.5 l 1
 332 -199.5 l 1
 332.5 -199.5 l 1
 332.5 -199 l 1
 332.5 134 l 1
 332.5 134.5 l 1
 332 134.5 l 1
 166 134.5 l 1
 165.5 134.5 l 1
 165.5 134 l 1
 165.5 -199 l 1
166.5 -198.5 m 1
 166.5 133.5 l 1
 331.5 133.5 l 1
 331.5 -198.5 l 1
 166.5 -198.5 l 1
166 -199 m 1
 166 134 l 1
 332 134 l 1
 332 -199 l 1
 166 -199 l 1
EndSplineSet
EndChar

StartChar: glyph38
Encoding: 294 1097767 38
Width: 0
VWidth: 0
Flags: H
LayerCount: 2
Fore
SplineSet
-0.5 134 m 1
 -0.5 133.5 l 1
 0 133.5 l 1
 166 133.5 l 1
 166.5 133.5 l 1
 166.5 134 l 1
 166.5 467 l 1
 166.5 467.5 l 1
 166 467.5 l 1
 0 467.5 l 1
 -0.5 467.5 l 1
 -0.5 467 l 1
 -0.5 134 l 1
0.5 134.5 m 1
 0.5 466.5 l 1
 165.5 466.5 l 1
 165.5 134.5 l 1
 0.5 134.5 l 1
0 134 m 1
 0 467 l 1
 166 467 l 1
 166 134 l 1
 0 134 l 1
-0.5 -199 m 1
 -0.5 -199.5 l 1
 0 -199.5 l 1
 166 -199.5 l 1
 166.5 -199.5 l 1
 166.5 -199 l 1
 166.5 134 l 1
 166.5 134.5 l 1
 166 134.5 l 1
 0 134.5 l 1
 -0.5 134.5 l 1
 -0.5 134 l 1
 -0.5 -199 l 1
0.5 -198.5 m 1
 0.5 133.5 l 1
 165.5 133.5 l 1
 165.5 -198.5 l 1
 0.5 -198.5 l 1
0 -199 m 1
 0 134 l 1
 166 134 l 1
 166 -199 l 1
 0 -199 l 1
165.5 -199 m 1
 165.5 -199.5 l 1
 166 -199.5 l 1
 332 -199.5 l 1
 332.5 -199.5 l 1
 332.5 -199 l 1
 332.5 134 l 1
 332.5 134.5 l 1
 332 134.5 l 1
 166 134.5 l 1
 165.5 134.5 l 1
 165.5 134 l 1
 165.5 -199 l 1
166.5 -198.5 m 1
 166.5 133.5 l 1
 331.5 133.5 l 1
 331.5 -198.5 l 1
 166.5 -198.5 l 1
166 -199 m 1
 166 134 l 1
 332 134 l 1
 332 -199 l 1
 166 -199 l 1
332.5 -199 m 1
 332.5 -199.5 l 1
 333 -199.5 l 1
 499 -199.5 l 1
 499.5 -199.5 l 1
 499.5 -199 l 1
 499.5 134 l 1
 499.5 134.5 l 1
 499 134.5 l 1
 333 134.5 l 1
 332.5 134.5 l 1
 332.5 134 l 1
 332.5 -199 l 1
333.5 -198.5 m 1
 333.5 133.5 l 1
 498.5 133.5 l 1
 498.5 -198.5 l 1
 333.5 -198.5 l 1
333 -199 m 1
 333 134 l 1
 499 134 l 1
 499 -199 l 1
 333 -199 l 1
EndSplineSet
EndChar

StartChar: glyph39
Encoding: 295 1097768 39
Width: 0
VWidth: 0
Flags: H
LayerCount: 2
Fore
SplineSet
-0.5 134 m 1
 -0.5 133.5 l 1
 0 133.5 l 1
 166 133.5 l 1
 166.5 133.5 l 1
 166.5 134 l 1
 166.5 467 l 1
 166.5 467.5 l 1
 166 467.5 l 1
 0 467.5 l 1
 -0.5 467.5 l 1
 -0.5 467 l 1
 -0.5 134 l 1
0.5 134.5 m 1
 0.5 466.5 l 1
 165.5 466.5 l 1
 165.5 134.5 l 1
 0.5 134.5 l 1
0 134 m 1
 0 467 l 1
 166 467 l 1
 166 134 l 1
 0 134 l 1
332.5 134 m 1
 332.5 133.5 l 1
 333 133.5 l 1
 499 133.5 l 1
 499.5 133.5 l 1
 499.5 134 l 1
 499.5 467 l 1
 499.5 467.5 l 1
 499 467.5 l 1
 333 467.5 l 1
 332.5 467.5 l 1
 332.5 467 l 1
 332.5 134 l 1
333.5 134.5 m 1
 333.5 466.5 l 1
 498.5 466.5 l 1
 498.5 134.5 l 1
 333.5 134.5 l 1
333 134 m 1
 333 467 l 1
 499 467 l 1
 499 134 l 1
 333 134 l 1
EndSplineSet
EndChar

StartChar: glyph40
Encoding: 296 1097769 40
Width: 0
VWidth: 0
Flags: H
LayerCount: 2
Fore
SplineSet
-0.5 134 m 1
 -0.5 133.5 l 1
 0 133.5 l 1
 166 133.5 l 1
 166.5 133.5 l 1
 166.5 134 l 1
 166.5 467 l 1
 166.5 467.5 l 1
 166 467.5 l 1
 0 467.5 l 1
 -0.5 467.5 l 1
 -0.5 467 l 1
 -0.5 134 l 1
0.5 134.5 m 1
 0.5 466.5 l 1
 165.5 466.5 l 1
 165.5 134.5 l 1
 0.5 134.5 l 1
0 134 m 1
 0 467 l 1
 166 467 l 1
 166 134 l 1
 0 134 l 1
332.5 134 m 1
 332.5 133.5 l 1
 333 133.5 l 1
 499 133.5 l 1
 499.5 133.5 l 1
 499.5 134 l 1
 499.5 467 l 1
 499.5 467.5 l 1
 499 467.5 l 1
 333 467.5 l 1
 332.5 467.5 l 1
 332.5 467 l 1
 332.5 134 l 1
333.5 134.5 m 1
 333.5 466.5 l 1
 498.5 466.5 l 1
 498.5 134.5 l 1
 333.5 134.5 l 1
333 134 m 1
 333 467 l 1
 499 467 l 1
 499 134 l 1
 333 134 l 1
332.5 -199 m 1
 332.5 -199.5 l 1
 333 -199.5 l 1
 499 -199.5 l 1
 499.5 -199.5 l 1
 499.5 -199 l 1
 499.5 134 l 1
 499.5 134.5 l 1
 499 134.5 l 1
 333 134.5 l 1
 332.5 134.5 l 1
 332.5 134 l 1
 332.5 -199 l 1
333.5 -198.5 m 1
 333.5 133.5 l 1
 498.5 133.5 l 1
 498.5 -198.5 l 1
 333.5 -198.5 l 1
333 -199 m 1
 333 134 l 1
 499 134 l 1
 499 -199 l 1
 333 -199 l 1
EndSplineSet
EndChar

StartChar: glyph41
Encoding: 297 1097770 41
Width: 0
VWidth: 0
Flags: H
LayerCount: 2
Fore
SplineSet
-0.5 134 m 1
 -0.5 133.5 l 1
 0 133.5 l 1
 166 133.5 l 1
 166.5 133.5 l 1
 166.5 134 l 1
 166.5 467 l 1
 166.5 467.5 l 1
 166 467.5 l 1
 0 467.5 l 1
 -0.5 467.5 l 1
 -0.5 467 l 1
 -0.5 134 l 1
0.5 134.5 m 1
 0.5 466.5 l 1
 165.5 466.5 l 1
 165.5 134.5 l 1
 0.5 134.5 l 1
0 134 m 1
 0 467 l 1
 166 467 l 1
 166 134 l 1
 0 134 l 1
332.5 134 m 1
 332.5 133.5 l 1
 333 133.5 l 1
 499 133.5 l 1
 499.5 133.5 l 1
 499.5 134 l 1
 499.5 467 l 1
 499.5 467.5 l 1
 499 467.5 l 1
 333 467.5 l 1
 332.5 467.5 l 1
 332.5 467 l 1
 332.5 134 l 1
333.5 134.5 m 1
 333.5 466.5 l 1
 498.5 466.5 l 1
 498.5 134.5 l 1
 333.5 134.5 l 1
333 134 m 1
 333 467 l 1
 499 467 l 1
 499 134 l 1
 333 134 l 1
165.5 -199 m 1
 165.5 -199.5 l 1
 166 -199.5 l 1
 332 -199.5 l 1
 332.5 -199.5 l 1
 332.5 -199 l 1
 332.5 134 l 1
 332.5 134.5 l 1
 332 134.5 l 1
 166 134.5 l 1
 165.5 134.5 l 1
 165.5 134 l 1
 165.5 -199 l 1
166.5 -198.5 m 1
 166.5 133.5 l 1
 331.5 133.5 l 1
 331.5 -198.5 l 1
 166.5 -198.5 l 1
166 -199 m 1
 166 134 l 1
 332 134 l 1
 332 -199 l 1
 166 -199 l 1
EndSplineSet
EndChar

StartChar: glyph42
Encoding: 298 1097771 42
Width: 0
VWidth: 0
Flags: H
LayerCount: 2
Fore
SplineSet
-0.5 134 m 1
 -0.5 133.5 l 1
 0 133.5 l 1
 166 133.5 l 1
 166.5 133.5 l 1
 166.5 134 l 1
 166.5 467 l 1
 166.5 467.5 l 1
 166 467.5 l 1
 0 467.5 l 1
 -0.5 467.5 l 1
 -0.5 467 l 1
 -0.5 134 l 1
0.5 134.5 m 1
 0.5 466.5 l 1
 165.5 466.5 l 1
 165.5 134.5 l 1
 0.5 134.5 l 1
0 134 m 1
 0 467 l 1
 166 467 l 1
 166 134 l 1
 0 134 l 1
332.5 134 m 1
 332.5 133.5 l 1
 333 133.5 l 1
 499 133.5 l 1
 499.5 133.5 l 1
 499.5 134 l 1
 499.5 467 l 1
 499.5 467.5 l 1
 499 467.5 l 1
 333 467.5 l 1
 332.5 467.5 l 1
 332.5 467 l 1
 332.5 134 l 1
333.5 134.5 m 1
 333.5 466.5 l 1
 498.5 466.5 l 1
 498.5 134.5 l 1
 333.5 134.5 l 1
333 134 m 1
 333 467 l 1
 499 467 l 1
 499 134 l 1
 333 134 l 1
165.5 -199 m 1
 165.5 -199.5 l 1
 166 -199.5 l 1
 332 -199.5 l 1
 332.5 -199.5 l 1
 332.5 -199 l 1
 332.5 134 l 1
 332.5 134.5 l 1
 332 134.5 l 1
 166 134.5 l 1
 165.5 134.5 l 1
 165.5 134 l 1
 165.5 -199 l 1
166.5 -198.5 m 1
 166.5 133.5 l 1
 331.5 133.5 l 1
 331.5 -198.5 l 1
 166.5 -198.5 l 1
166 -199 m 1
 166 134 l 1
 332 134 l 1
 332 -199 l 1
 166 -199 l 1
332.5 -199 m 1
 332.5 -199.5 l 1
 333 -199.5 l 1
 499 -199.5 l 1
 499.5 -199.5 l 1
 499.5 -199 l 1
 499.5 134 l 1
 499.5 134.5 l 1
 499 134.5 l 1
 333 134.5 l 1
 332.5 134.5 l 1
 332.5 134 l 1
 332.5 -199 l 1
333.5 -198.5 m 1
 333.5 133.5 l 1
 498.5 133.5 l 1
 498.5 -198.5 l 1
 333.5 -198.5 l 1
333 -199 m 1
 333 134 l 1
 499 134 l 1
 499 -199 l 1
 333 -199 l 1
EndSplineSet
EndChar

StartChar: glyph43
Encoding: 299 1097772 43
Width: 0
VWidth: 0
Flags: H
LayerCount: 2
Fore
SplineSet
-0.5 134 m 1
 -0.5 133.5 l 1
 0 133.5 l 1
 166 133.5 l 1
 166.5 133.5 l 1
 166.5 134 l 1
 166.5 467 l 1
 166.5 467.5 l 1
 166 467.5 l 1
 0 467.5 l 1
 -0.5 467.5 l 1
 -0.5 467 l 1
 -0.5 134 l 1
0.5 134.5 m 1
 0.5 466.5 l 1
 165.5 466.5 l 1
 165.5 134.5 l 1
 0.5 134.5 l 1
0 134 m 1
 0 467 l 1
 166 467 l 1
 166 134 l 1
 0 134 l 1
332.5 134 m 1
 332.5 133.5 l 1
 333 133.5 l 1
 499 133.5 l 1
 499.5 133.5 l 1
 499.5 134 l 1
 499.5 467 l 1
 499.5 467.5 l 1
 499 467.5 l 1
 333 467.5 l 1
 332.5 467.5 l 1
 332.5 467 l 1
 332.5 134 l 1
333.5 134.5 m 1
 333.5 466.5 l 1
 498.5 466.5 l 1
 498.5 134.5 l 1
 333.5 134.5 l 1
333 134 m 1
 333 467 l 1
 499 467 l 1
 499 134 l 1
 333 134 l 1
-0.5 -199 m 1
 -0.5 -199.5 l 1
 0 -199.5 l 1
 166 -199.5 l 1
 166.5 -199.5 l 1
 166.5 -199 l 1
 166.5 134 l 1
 166.5 134.5 l 1
 166 134.5 l 1
 0 134.5 l 1
 -0.5 134.5 l 1
 -0.5 134 l 1
 -0.5 -199 l 1
0.5 -198.5 m 1
 0.5 133.5 l 1
 165.5 133.5 l 1
 165.5 -198.5 l 1
 0.5 -198.5 l 1
0 -199 m 1
 0 134 l 1
 166 134 l 1
 166 -199 l 1
 0 -199 l 1
EndSplineSet
EndChar

StartChar: glyph44
Encoding: 300 1097773 44
Width: 0
VWidth: 0
Flags: H
LayerCount: 2
Fore
SplineSet
-0.5 134 m 1
 -0.5 133.5 l 1
 0 133.5 l 1
 166 133.5 l 1
 166.5 133.5 l 1
 166.5 134 l 1
 166.5 467 l 1
 166.5 467.5 l 1
 166 467.5 l 1
 0 467.5 l 1
 -0.5 467.5 l 1
 -0.5 467 l 1
 -0.5 134 l 1
0.5 134.5 m 1
 0.5 466.5 l 1
 165.5 466.5 l 1
 165.5 134.5 l 1
 0.5 134.5 l 1
0 134 m 1
 0 467 l 1
 166 467 l 1
 166 134 l 1
 0 134 l 1
332.5 134 m 1
 332.5 133.5 l 1
 333 133.5 l 1
 499 133.5 l 1
 499.5 133.5 l 1
 499.5 134 l 1
 499.5 467 l 1
 499.5 467.5 l 1
 499 467.5 l 1
 333 467.5 l 1
 332.5 467.5 l 1
 332.5 467 l 1
 332.5 134 l 1
333.5 134.5 m 1
 333.5 466.5 l 1
 498.5 466.5 l 1
 498.5 134.5 l 1
 333.5 134.5 l 1
333 134 m 1
 333 467 l 1
 499 467 l 1
 499 134 l 1
 333 134 l 1
-0.5 -199 m 1
 -0.5 -199.5 l 1
 0 -199.5 l 1
 166 -199.5 l 1
 166.5 -199.5 l 1
 166.5 -199 l 1
 166.5 134 l 1
 166.5 134.5 l 1
 166 134.5 l 1
 0 134.5 l 1
 -0.5 134.5 l 1
 -0.5 134 l 1
 -0.5 -199 l 1
0.5 -198.5 m 1
 0.5 133.5 l 1
 165.5 133.5 l 1
 165.5 -198.5 l 1
 0.5 -198.5 l 1
0 -199 m 1
 0 134 l 1
 166 134 l 1
 166 -199 l 1
 0 -199 l 1
332.5 -199 m 1
 332.5 -199.5 l 1
 333 -199.5 l 1
 499 -199.5 l 1
 499.5 -199.5 l 1
 499.5 -199 l 1
 499.5 134 l 1
 499.5 134.5 l 1
 499 134.5 l 1
 333 134.5 l 1
 332.5 134.5 l 1
 332.5 134 l 1
 332.5 -199 l 1
333.5 -198.5 m 1
 333.5 133.5 l 1
 498.5 133.5 l 1
 498.5 -198.5 l 1
 333.5 -198.5 l 1
333 -199 m 1
 333 134 l 1
 499 134 l 1
 499 -199 l 1
 333 -199 l 1
EndSplineSet
EndChar

StartChar: glyph45
Encoding: 301 1097774 45
Width: 0
VWidth: 0
Flags: H
LayerCount: 2
Fore
SplineSet
-0.5 134 m 1
 -0.5 133.5 l 1
 0 133.5 l 1
 166 133.5 l 1
 166.5 133.5 l 1
 166.5 134 l 1
 166.5 467 l 1
 166.5 467.5 l 1
 166 467.5 l 1
 0 467.5 l 1
 -0.5 467.5 l 1
 -0.5 467 l 1
 -0.5 134 l 1
0.5 134.5 m 1
 0.5 466.5 l 1
 165.5 466.5 l 1
 165.5 134.5 l 1
 0.5 134.5 l 1
0 134 m 1
 0 467 l 1
 166 467 l 1
 166 134 l 1
 0 134 l 1
332.5 134 m 1
 332.5 133.5 l 1
 333 133.5 l 1
 499 133.5 l 1
 499.5 133.5 l 1
 499.5 134 l 1
 499.5 467 l 1
 499.5 467.5 l 1
 499 467.5 l 1
 333 467.5 l 1
 332.5 467.5 l 1
 332.5 467 l 1
 332.5 134 l 1
333.5 134.5 m 1
 333.5 466.5 l 1
 498.5 466.5 l 1
 498.5 134.5 l 1
 333.5 134.5 l 1
333 134 m 1
 333 467 l 1
 499 467 l 1
 499 134 l 1
 333 134 l 1
-0.5 -199 m 1
 -0.5 -199.5 l 1
 0 -199.5 l 1
 166 -199.5 l 1
 166.5 -199.5 l 1
 166.5 -199 l 1
 166.5 134 l 1
 166.5 134.5 l 1
 166 134.5 l 1
 0 134.5 l 1
 -0.5 134.5 l 1
 -0.5 134 l 1
 -0.5 -199 l 1
0.5 -198.5 m 1
 0.5 133.5 l 1
 165.5 133.5 l 1
 165.5 -198.5 l 1
 0.5 -198.5 l 1
0 -199 m 1
 0 134 l 1
 166 134 l 1
 166 -199 l 1
 0 -199 l 1
165.5 -199 m 1
 165.5 -199.5 l 1
 166 -199.5 l 1
 332 -199.5 l 1
 332.5 -199.5 l 1
 332.5 -199 l 1
 332.5 134 l 1
 332.5 134.5 l 1
 332 134.5 l 1
 166 134.5 l 1
 165.5 134.5 l 1
 165.5 134 l 1
 165.5 -199 l 1
166.5 -198.5 m 1
 166.5 133.5 l 1
 331.5 133.5 l 1
 331.5 -198.5 l 1
 166.5 -198.5 l 1
166 -199 m 1
 166 134 l 1
 332 134 l 1
 332 -199 l 1
 166 -199 l 1
EndSplineSet
EndChar

StartChar: glyph46
Encoding: 302 1097775 46
Width: 0
VWidth: 0
Flags: H
LayerCount: 2
Fore
SplineSet
-0.5 134 m 1
 -0.5 133.5 l 1
 0 133.5 l 1
 166 133.5 l 1
 166.5 133.5 l 1
 166.5 134 l 1
 166.5 467 l 1
 166.5 467.5 l 1
 166 467.5 l 1
 0 467.5 l 1
 -0.5 467.5 l 1
 -0.5 467 l 1
 -0.5 134 l 1
0.5 134.5 m 1
 0.5 466.5 l 1
 165.5 466.5 l 1
 165.5 134.5 l 1
 0.5 134.5 l 1
0 134 m 1
 0 467 l 1
 166 467 l 1
 166 134 l 1
 0 134 l 1
332.5 134 m 1
 332.5 133.5 l 1
 333 133.5 l 1
 499 133.5 l 1
 499.5 133.5 l 1
 499.5 134 l 1
 499.5 467 l 1
 499.5 467.5 l 1
 499 467.5 l 1
 333 467.5 l 1
 332.5 467.5 l 1
 332.5 467 l 1
 332.5 134 l 1
333.5 134.5 m 1
 333.5 466.5 l 1
 498.5 466.5 l 1
 498.5 134.5 l 1
 333.5 134.5 l 1
333 134 m 1
 333 467 l 1
 499 467 l 1
 499 134 l 1
 333 134 l 1
-0.5 -199 m 1
 -0.5 -199.5 l 1
 0 -199.5 l 1
 166 -199.5 l 1
 166.5 -199.5 l 1
 166.5 -199 l 1
 166.5 134 l 1
 166.5 134.5 l 1
 166 134.5 l 1
 0 134.5 l 1
 -0.5 134.5 l 1
 -0.5 134 l 1
 -0.5 -199 l 1
0.5 -198.5 m 1
 0.5 133.5 l 1
 165.5 133.5 l 1
 165.5 -198.5 l 1
 0.5 -198.5 l 1
0 -199 m 1
 0 134 l 1
 166 134 l 1
 166 -199 l 1
 0 -199 l 1
165.5 -199 m 1
 165.5 -199.5 l 1
 166 -199.5 l 1
 332 -199.5 l 1
 332.5 -199.5 l 1
 332.5 -199 l 1
 332.5 134 l 1
 332.5 134.5 l 1
 332 134.5 l 1
 166 134.5 l 1
 165.5 134.5 l 1
 165.5 134 l 1
 165.5 -199 l 1
166.5 -198.5 m 1
 166.5 133.5 l 1
 331.5 133.5 l 1
 331.5 -198.5 l 1
 166.5 -198.5 l 1
166 -199 m 1
 166 134 l 1
 332 134 l 1
 332 -199 l 1
 166 -199 l 1
332.5 -199 m 1
 332.5 -199.5 l 1
 333 -199.5 l 1
 499 -199.5 l 1
 499.5 -199.5 l 1
 499.5 -199 l 1
 499.5 134 l 1
 499.5 134.5 l 1
 499 134.5 l 1
 333 134.5 l 1
 332.5 134.5 l 1
 332.5 134 l 1
 332.5 -199 l 1
333.5 -198.5 m 1
 333.5 133.5 l 1
 498.5 133.5 l 1
 498.5 -198.5 l 1
 333.5 -198.5 l 1
333 -199 m 1
 333 134 l 1
 499 134 l 1
 499 -199 l 1
 333 -199 l 1
EndSplineSet
EndChar

StartChar: glyph47
Encoding: 303 1097776 47
Width: 0
VWidth: 0
Flags: H
LayerCount: 2
Fore
SplineSet
-0.5 134 m 1
 -0.5 133.5 l 1
 0 133.5 l 1
 166 133.5 l 1
 166.5 133.5 l 1
 166.5 134 l 1
 166.5 467 l 1
 166.5 467.5 l 1
 166 467.5 l 1
 0 467.5 l 1
 -0.5 467.5 l 1
 -0.5 467 l 1
 -0.5 134 l 1
0.5 134.5 m 1
 0.5 466.5 l 1
 165.5 466.5 l 1
 165.5 134.5 l 1
 0.5 134.5 l 1
0 134 m 1
 0 467 l 1
 166 467 l 1
 166 134 l 1
 0 134 l 1
165.5 134 m 1
 165.5 133.5 l 1
 166 133.5 l 1
 332 133.5 l 1
 332.5 133.5 l 1
 332.5 134 l 1
 332.5 467 l 1
 332.5 467.5 l 1
 332 467.5 l 1
 166 467.5 l 1
 165.5 467.5 l 1
 165.5 467 l 1
 165.5 134 l 1
166.5 134.5 m 1
 166.5 466.5 l 1
 331.5 466.5 l 1
 331.5 134.5 l 1
 166.5 134.5 l 1
166 134 m 1
 166 467 l 1
 332 467 l 1
 332 134 l 1
 166 134 l 1
EndSplineSet
EndChar

StartChar: glyph48
Encoding: 304 1097777 48
Width: 0
VWidth: 0
Flags: H
LayerCount: 2
Fore
SplineSet
-0.5 134 m 1
 -0.5 133.5 l 1
 0 133.5 l 1
 166 133.5 l 1
 166.5 133.5 l 1
 166.5 134 l 1
 166.5 467 l 1
 166.5 467.5 l 1
 166 467.5 l 1
 0 467.5 l 1
 -0.5 467.5 l 1
 -0.5 467 l 1
 -0.5 134 l 1
0.5 134.5 m 1
 0.5 466.5 l 1
 165.5 466.5 l 1
 165.5 134.5 l 1
 0.5 134.5 l 1
0 134 m 1
 0 467 l 1
 166 467 l 1
 166 134 l 1
 0 134 l 1
165.5 134 m 1
 165.5 133.5 l 1
 166 133.5 l 1
 332 133.5 l 1
 332.5 133.5 l 1
 332.5 134 l 1
 332.5 467 l 1
 332.5 467.5 l 1
 332 467.5 l 1
 166 467.5 l 1
 165.5 467.5 l 1
 165.5 467 l 1
 165.5 134 l 1
166.5 134.5 m 1
 166.5 466.5 l 1
 331.5 466.5 l 1
 331.5 134.5 l 1
 166.5 134.5 l 1
166 134 m 1
 166 467 l 1
 332 467 l 1
 332 134 l 1
 166 134 l 1
332.5 -199 m 1
 332.5 -199.5 l 1
 333 -199.5 l 1
 499 -199.5 l 1
 499.5 -199.5 l 1
 499.5 -199 l 1
 499.5 134 l 1
 499.5 134.5 l 1
 499 134.5 l 1
 333 134.5 l 1
 332.5 134.5 l 1
 332.5 134 l 1
 332.5 -199 l 1
333.5 -198.5 m 1
 333.5 133.5 l 1
 498.5 133.5 l 1
 498.5 -198.5 l 1
 333.5 -198.5 l 1
333 -199 m 1
 333 134 l 1
 499 134 l 1
 499 -199 l 1
 333 -199 l 1
EndSplineSet
EndChar

StartChar: glyph49
Encoding: 305 1097778 49
Width: 0
VWidth: 0
Flags: H
LayerCount: 2
Fore
SplineSet
-0.5 134 m 1
 -0.5 133.5 l 1
 0 133.5 l 1
 166 133.5 l 1
 166.5 133.5 l 1
 166.5 134 l 1
 166.5 467 l 1
 166.5 467.5 l 1
 166 467.5 l 1
 0 467.5 l 1
 -0.5 467.5 l 1
 -0.5 467 l 1
 -0.5 134 l 1
0.5 134.5 m 1
 0.5 466.5 l 1
 165.5 466.5 l 1
 165.5 134.5 l 1
 0.5 134.5 l 1
0 134 m 1
 0 467 l 1
 166 467 l 1
 166 134 l 1
 0 134 l 1
165.5 134 m 1
 165.5 133.5 l 1
 166 133.5 l 1
 332 133.5 l 1
 332.5 133.5 l 1
 332.5 134 l 1
 332.5 467 l 1
 332.5 467.5 l 1
 332 467.5 l 1
 166 467.5 l 1
 165.5 467.5 l 1
 165.5 467 l 1
 165.5 134 l 1
166.5 134.5 m 1
 166.5 466.5 l 1
 331.5 466.5 l 1
 331.5 134.5 l 1
 166.5 134.5 l 1
166 134 m 1
 166 467 l 1
 332 467 l 1
 332 134 l 1
 166 134 l 1
165.5 -199 m 1
 165.5 -199.5 l 1
 166 -199.5 l 1
 332 -199.5 l 1
 332.5 -199.5 l 1
 332.5 -199 l 1
 332.5 134 l 1
 332.5 134.5 l 1
 332 134.5 l 1
 166 134.5 l 1
 165.5 134.5 l 1
 165.5 134 l 1
 165.5 -199 l 1
166.5 -198.5 m 1
 166.5 133.5 l 1
 331.5 133.5 l 1
 331.5 -198.5 l 1
 166.5 -198.5 l 1
166 -199 m 1
 166 134 l 1
 332 134 l 1
 332 -199 l 1
 166 -199 l 1
EndSplineSet
EndChar

StartChar: glyph50
Encoding: 306 1097779 50
Width: 0
VWidth: 0
Flags: H
LayerCount: 2
Fore
SplineSet
-0.5 134 m 1
 -0.5 133.5 l 1
 0 133.5 l 1
 166 133.5 l 1
 166.5 133.5 l 1
 166.5 134 l 1
 166.5 467 l 1
 166.5 467.5 l 1
 166 467.5 l 1
 0 467.5 l 1
 -0.5 467.5 l 1
 -0.5 467 l 1
 -0.5 134 l 1
0.5 134.5 m 1
 0.5 466.5 l 1
 165.5 466.5 l 1
 165.5 134.5 l 1
 0.5 134.5 l 1
0 134 m 1
 0 467 l 1
 166 467 l 1
 166 134 l 1
 0 134 l 1
165.5 134 m 1
 165.5 133.5 l 1
 166 133.5 l 1
 332 133.5 l 1
 332.5 133.5 l 1
 332.5 134 l 1
 332.5 467 l 1
 332.5 467.5 l 1
 332 467.5 l 1
 166 467.5 l 1
 165.5 467.5 l 1
 165.5 467 l 1
 165.5 134 l 1
166.5 134.5 m 1
 166.5 466.5 l 1
 331.5 466.5 l 1
 331.5 134.5 l 1
 166.5 134.5 l 1
166 134 m 1
 166 467 l 1
 332 467 l 1
 332 134 l 1
 166 134 l 1
165.5 -199 m 1
 165.5 -199.5 l 1
 166 -199.5 l 1
 332 -199.5 l 1
 332.5 -199.5 l 1
 332.5 -199 l 1
 332.5 134 l 1
 332.5 134.5 l 1
 332 134.5 l 1
 166 134.5 l 1
 165.5 134.5 l 1
 165.5 134 l 1
 165.5 -199 l 1
166.5 -198.5 m 1
 166.5 133.5 l 1
 331.5 133.5 l 1
 331.5 -198.5 l 1
 166.5 -198.5 l 1
166 -199 m 1
 166 134 l 1
 332 134 l 1
 332 -199 l 1
 166 -199 l 1
332.5 -199 m 1
 332.5 -199.5 l 1
 333 -199.5 l 1
 499 -199.5 l 1
 499.5 -199.5 l 1
 499.5 -199 l 1
 499.5 134 l 1
 499.5 134.5 l 1
 499 134.5 l 1
 333 134.5 l 1
 332.5 134.5 l 1
 332.5 134 l 1
 332.5 -199 l 1
333.5 -198.5 m 1
 333.5 133.5 l 1
 498.5 133.5 l 1
 498.5 -198.5 l 1
 333.5 -198.5 l 1
333 -199 m 1
 333 134 l 1
 499 134 l 1
 499 -199 l 1
 333 -199 l 1
EndSplineSet
EndChar

StartChar: glyph51
Encoding: 307 1097780 51
Width: 0
VWidth: 0
Flags: H
LayerCount: 2
Fore
SplineSet
-0.5 134 m 1
 -0.5 133.5 l 1
 0 133.5 l 1
 166 133.5 l 1
 166.5 133.5 l 1
 166.5 134 l 1
 166.5 467 l 1
 166.5 467.5 l 1
 166 467.5 l 1
 0 467.5 l 1
 -0.5 467.5 l 1
 -0.5 467 l 1
 -0.5 134 l 1
0.5 134.5 m 1
 0.5 466.5 l 1
 165.5 466.5 l 1
 165.5 134.5 l 1
 0.5 134.5 l 1
0 134 m 1
 0 467 l 1
 166 467 l 1
 166 134 l 1
 0 134 l 1
165.5 134 m 1
 165.5 133.5 l 1
 166 133.5 l 1
 332 133.5 l 1
 332.5 133.5 l 1
 332.5 134 l 1
 332.5 467 l 1
 332.5 467.5 l 1
 332 467.5 l 1
 166 467.5 l 1
 165.5 467.5 l 1
 165.5 467 l 1
 165.5 134 l 1
166.5 134.5 m 1
 166.5 466.5 l 1
 331.5 466.5 l 1
 331.5 134.5 l 1
 166.5 134.5 l 1
166 134 m 1
 166 467 l 1
 332 467 l 1
 332 134 l 1
 166 134 l 1
-0.5 -199 m 1
 -0.5 -199.5 l 1
 0 -199.5 l 1
 166 -199.5 l 1
 166.5 -199.5 l 1
 166.5 -199 l 1
 166.5 134 l 1
 166.5 134.5 l 1
 166 134.5 l 1
 0 134.5 l 1
 -0.5 134.5 l 1
 -0.5 134 l 1
 -0.5 -199 l 1
0.5 -198.5 m 1
 0.5 133.5 l 1
 165.5 133.5 l 1
 165.5 -198.5 l 1
 0.5 -198.5 l 1
0 -199 m 1
 0 134 l 1
 166 134 l 1
 166 -199 l 1
 0 -199 l 1
EndSplineSet
EndChar

StartChar: glyph52
Encoding: 308 1097781 52
Width: 0
VWidth: 0
Flags: H
LayerCount: 2
Fore
SplineSet
-0.5 134 m 1
 -0.5 133.5 l 1
 0 133.5 l 1
 166 133.5 l 1
 166.5 133.5 l 1
 166.5 134 l 1
 166.5 467 l 1
 166.5 467.5 l 1
 166 467.5 l 1
 0 467.5 l 1
 -0.5 467.5 l 1
 -0.5 467 l 1
 -0.5 134 l 1
0.5 134.5 m 1
 0.5 466.5 l 1
 165.5 466.5 l 1
 165.5 134.5 l 1
 0.5 134.5 l 1
0 134 m 1
 0 467 l 1
 166 467 l 1
 166 134 l 1
 0 134 l 1
165.5 134 m 1
 165.5 133.5 l 1
 166 133.5 l 1
 332 133.5 l 1
 332.5 133.5 l 1
 332.5 134 l 1
 332.5 467 l 1
 332.5 467.5 l 1
 332 467.5 l 1
 166 467.5 l 1
 165.5 467.5 l 1
 165.5 467 l 1
 165.5 134 l 1
166.5 134.5 m 1
 166.5 466.5 l 1
 331.5 466.5 l 1
 331.5 134.5 l 1
 166.5 134.5 l 1
166 134 m 1
 166 467 l 1
 332 467 l 1
 332 134 l 1
 166 134 l 1
-0.5 -199 m 1
 -0.5 -199.5 l 1
 0 -199.5 l 1
 166 -199.5 l 1
 166.5 -199.5 l 1
 166.5 -199 l 1
 166.5 134 l 1
 166.5 134.5 l 1
 166 134.5 l 1
 0 134.5 l 1
 -0.5 134.5 l 1
 -0.5 134 l 1
 -0.5 -199 l 1
0.5 -198.5 m 1
 0.5 133.5 l 1
 165.5 133.5 l 1
 165.5 -198.5 l 1
 0.5 -198.5 l 1
0 -199 m 1
 0 134 l 1
 166 134 l 1
 166 -199 l 1
 0 -199 l 1
332.5 -199 m 1
 332.5 -199.5 l 1
 333 -199.5 l 1
 499 -199.5 l 1
 499.5 -199.5 l 1
 499.5 -199 l 1
 499.5 134 l 1
 499.5 134.5 l 1
 499 134.5 l 1
 333 134.5 l 1
 332.5 134.5 l 1
 332.5 134 l 1
 332.5 -199 l 1
333.5 -198.5 m 1
 333.5 133.5 l 1
 498.5 133.5 l 1
 498.5 -198.5 l 1
 333.5 -198.5 l 1
333 -199 m 1
 333 134 l 1
 499 134 l 1
 499 -199 l 1
 333 -199 l 1
EndSplineSet
EndChar

StartChar: glyph53
Encoding: 309 1097782 53
Width: 0
VWidth: 0
Flags: H
LayerCount: 2
Fore
SplineSet
-0.5 134 m 1
 -0.5 133.5 l 1
 0 133.5 l 1
 166 133.5 l 1
 166.5 133.5 l 1
 166.5 134 l 1
 166.5 467 l 1
 166.5 467.5 l 1
 166 467.5 l 1
 0 467.5 l 1
 -0.5 467.5 l 1
 -0.5 467 l 1
 -0.5 134 l 1
0.5 134.5 m 1
 0.5 466.5 l 1
 165.5 466.5 l 1
 165.5 134.5 l 1
 0.5 134.5 l 1
0 134 m 1
 0 467 l 1
 166 467 l 1
 166 134 l 1
 0 134 l 1
165.5 134 m 1
 165.5 133.5 l 1
 166 133.5 l 1
 332 133.5 l 1
 332.5 133.5 l 1
 332.5 134 l 1
 332.5 467 l 1
 332.5 467.5 l 1
 332 467.5 l 1
 166 467.5 l 1
 165.5 467.5 l 1
 165.5 467 l 1
 165.5 134 l 1
166.5 134.5 m 1
 166.5 466.5 l 1
 331.5 466.5 l 1
 331.5 134.5 l 1
 166.5 134.5 l 1
166 134 m 1
 166 467 l 1
 332 467 l 1
 332 134 l 1
 166 134 l 1
-0.5 -199 m 1
 -0.5 -199.5 l 1
 0 -199.5 l 1
 166 -199.5 l 1
 166.5 -199.5 l 1
 166.5 -199 l 1
 166.5 134 l 1
 166.5 134.5 l 1
 166 134.5 l 1
 0 134.5 l 1
 -0.5 134.5 l 1
 -0.5 134 l 1
 -0.5 -199 l 1
0.5 -198.5 m 1
 0.5 133.5 l 1
 165.5 133.5 l 1
 165.5 -198.5 l 1
 0.5 -198.5 l 1
0 -199 m 1
 0 134 l 1
 166 134 l 1
 166 -199 l 1
 0 -199 l 1
165.5 -199 m 1
 165.5 -199.5 l 1
 166 -199.5 l 1
 332 -199.5 l 1
 332.5 -199.5 l 1
 332.5 -199 l 1
 332.5 134 l 1
 332.5 134.5 l 1
 332 134.5 l 1
 166 134.5 l 1
 165.5 134.5 l 1
 165.5 134 l 1
 165.5 -199 l 1
166.5 -198.5 m 1
 166.5 133.5 l 1
 331.5 133.5 l 1
 331.5 -198.5 l 1
 166.5 -198.5 l 1
166 -199 m 1
 166 134 l 1
 332 134 l 1
 332 -199 l 1
 166 -199 l 1
EndSplineSet
EndChar

StartChar: glyph54
Encoding: 310 1097783 54
Width: 0
VWidth: 0
Flags: H
LayerCount: 2
Fore
SplineSet
-0.5 134 m 1
 -0.5 133.5 l 1
 0 133.5 l 1
 166 133.5 l 1
 166.5 133.5 l 1
 166.5 134 l 1
 166.5 467 l 1
 166.5 467.5 l 1
 166 467.5 l 1
 0 467.5 l 1
 -0.5 467.5 l 1
 -0.5 467 l 1
 -0.5 134 l 1
0.5 134.5 m 1
 0.5 466.5 l 1
 165.5 466.5 l 1
 165.5 134.5 l 1
 0.5 134.5 l 1
0 134 m 1
 0 467 l 1
 166 467 l 1
 166 134 l 1
 0 134 l 1
165.5 134 m 1
 165.5 133.5 l 1
 166 133.5 l 1
 332 133.5 l 1
 332.5 133.5 l 1
 332.5 134 l 1
 332.5 467 l 1
 332.5 467.5 l 1
 332 467.5 l 1
 166 467.5 l 1
 165.5 467.5 l 1
 165.5 467 l 1
 165.5 134 l 1
166.5 134.5 m 1
 166.5 466.5 l 1
 331.5 466.5 l 1
 331.5 134.5 l 1
 166.5 134.5 l 1
166 134 m 1
 166 467 l 1
 332 467 l 1
 332 134 l 1
 166 134 l 1
-0.5 -199 m 1
 -0.5 -199.5 l 1
 0 -199.5 l 1
 166 -199.5 l 1
 166.5 -199.5 l 1
 166.5 -199 l 1
 166.5 134 l 1
 166.5 134.5 l 1
 166 134.5 l 1
 0 134.5 l 1
 -0.5 134.5 l 1
 -0.5 134 l 1
 -0.5 -199 l 1
0.5 -198.5 m 1
 0.5 133.5 l 1
 165.5 133.5 l 1
 165.5 -198.5 l 1
 0.5 -198.5 l 1
0 -199 m 1
 0 134 l 1
 166 134 l 1
 166 -199 l 1
 0 -199 l 1
165.5 -199 m 1
 165.5 -199.5 l 1
 166 -199.5 l 1
 332 -199.5 l 1
 332.5 -199.5 l 1
 332.5 -199 l 1
 332.5 134 l 1
 332.5 134.5 l 1
 332 134.5 l 1
 166 134.5 l 1
 165.5 134.5 l 1
 165.5 134 l 1
 165.5 -199 l 1
166.5 -198.5 m 1
 166.5 133.5 l 1
 331.5 133.5 l 1
 331.5 -198.5 l 1
 166.5 -198.5 l 1
166 -199 m 1
 166 134 l 1
 332 134 l 1
 332 -199 l 1
 166 -199 l 1
332.5 -199 m 1
 332.5 -199.5 l 1
 333 -199.5 l 1
 499 -199.5 l 1
 499.5 -199.5 l 1
 499.5 -199 l 1
 499.5 134 l 1
 499.5 134.5 l 1
 499 134.5 l 1
 333 134.5 l 1
 332.5 134.5 l 1
 332.5 134 l 1
 332.5 -199 l 1
333.5 -198.5 m 1
 333.5 133.5 l 1
 498.5 133.5 l 1
 498.5 -198.5 l 1
 333.5 -198.5 l 1
333 -199 m 1
 333 134 l 1
 499 134 l 1
 499 -199 l 1
 333 -199 l 1
EndSplineSet
EndChar

StartChar: glyph55
Encoding: 311 1097784 55
Width: 0
VWidth: 0
Flags: H
LayerCount: 2
Fore
SplineSet
-0.5 134 m 1
 -0.5 133.5 l 1
 0 133.5 l 1
 166 133.5 l 1
 166.5 133.5 l 1
 166.5 134 l 1
 166.5 467 l 1
 166.5 467.5 l 1
 166 467.5 l 1
 0 467.5 l 1
 -0.5 467.5 l 1
 -0.5 467 l 1
 -0.5 134 l 1
0.5 134.5 m 1
 0.5 466.5 l 1
 165.5 466.5 l 1
 165.5 134.5 l 1
 0.5 134.5 l 1
0 134 m 1
 0 467 l 1
 166 467 l 1
 166 134 l 1
 0 134 l 1
165.5 134 m 1
 165.5 133.5 l 1
 166 133.5 l 1
 332 133.5 l 1
 332.5 133.5 l 1
 332.5 134 l 1
 332.5 467 l 1
 332.5 467.5 l 1
 332 467.5 l 1
 166 467.5 l 1
 165.5 467.5 l 1
 165.5 467 l 1
 165.5 134 l 1
166.5 134.5 m 1
 166.5 466.5 l 1
 331.5 466.5 l 1
 331.5 134.5 l 1
 166.5 134.5 l 1
166 134 m 1
 166 467 l 1
 332 467 l 1
 332 134 l 1
 166 134 l 1
332.5 134 m 1
 332.5 133.5 l 1
 333 133.5 l 1
 499 133.5 l 1
 499.5 133.5 l 1
 499.5 134 l 1
 499.5 467 l 1
 499.5 467.5 l 1
 499 467.5 l 1
 333 467.5 l 1
 332.5 467.5 l 1
 332.5 467 l 1
 332.5 134 l 1
333.5 134.5 m 1
 333.5 466.5 l 1
 498.5 466.5 l 1
 498.5 134.5 l 1
 333.5 134.5 l 1
333 134 m 1
 333 467 l 1
 499 467 l 1
 499 134 l 1
 333 134 l 1
EndSplineSet
EndChar

StartChar: glyph56
Encoding: 312 1097785 56
Width: 0
VWidth: 0
Flags: H
LayerCount: 2
Fore
SplineSet
-0.5 134 m 1
 -0.5 133.5 l 1
 0 133.5 l 1
 166 133.5 l 1
 166.5 133.5 l 1
 166.5 134 l 1
 166.5 467 l 1
 166.5 467.5 l 1
 166 467.5 l 1
 0 467.5 l 1
 -0.5 467.5 l 1
 -0.5 467 l 1
 -0.5 134 l 1
0.5 134.5 m 1
 0.5 466.5 l 1
 165.5 466.5 l 1
 165.5 134.5 l 1
 0.5 134.5 l 1
0 134 m 1
 0 467 l 1
 166 467 l 1
 166 134 l 1
 0 134 l 1
165.5 134 m 1
 165.5 133.5 l 1
 166 133.5 l 1
 332 133.5 l 1
 332.5 133.5 l 1
 332.5 134 l 1
 332.5 467 l 1
 332.5 467.5 l 1
 332 467.5 l 1
 166 467.5 l 1
 165.5 467.5 l 1
 165.5 467 l 1
 165.5 134 l 1
166.5 134.5 m 1
 166.5 466.5 l 1
 331.5 466.5 l 1
 331.5 134.5 l 1
 166.5 134.5 l 1
166 134 m 1
 166 467 l 1
 332 467 l 1
 332 134 l 1
 166 134 l 1
332.5 134 m 1
 332.5 133.5 l 1
 333 133.5 l 1
 499 133.5 l 1
 499.5 133.5 l 1
 499.5 134 l 1
 499.5 467 l 1
 499.5 467.5 l 1
 499 467.5 l 1
 333 467.5 l 1
 332.5 467.5 l 1
 332.5 467 l 1
 332.5 134 l 1
333.5 134.5 m 1
 333.5 466.5 l 1
 498.5 466.5 l 1
 498.5 134.5 l 1
 333.5 134.5 l 1
333 134 m 1
 333 467 l 1
 499 467 l 1
 499 134 l 1
 333 134 l 1
332.5 -199 m 1
 332.5 -199.5 l 1
 333 -199.5 l 1
 499 -199.5 l 1
 499.5 -199.5 l 1
 499.5 -199 l 1
 499.5 134 l 1
 499.5 134.5 l 1
 499 134.5 l 1
 333 134.5 l 1
 332.5 134.5 l 1
 332.5 134 l 1
 332.5 -199 l 1
333.5 -198.5 m 1
 333.5 133.5 l 1
 498.5 133.5 l 1
 498.5 -198.5 l 1
 333.5 -198.5 l 1
333 -199 m 1
 333 134 l 1
 499 134 l 1
 499 -199 l 1
 333 -199 l 1
EndSplineSet
EndChar

StartChar: glyph57
Encoding: 313 1097786 57
Width: 0
VWidth: 0
Flags: H
LayerCount: 2
Fore
SplineSet
-0.5 134 m 1
 -0.5 133.5 l 1
 0 133.5 l 1
 166 133.5 l 1
 166.5 133.5 l 1
 166.5 134 l 1
 166.5 467 l 1
 166.5 467.5 l 1
 166 467.5 l 1
 0 467.5 l 1
 -0.5 467.5 l 1
 -0.5 467 l 1
 -0.5 134 l 1
0.5 134.5 m 1
 0.5 466.5 l 1
 165.5 466.5 l 1
 165.5 134.5 l 1
 0.5 134.5 l 1
0 134 m 1
 0 467 l 1
 166 467 l 1
 166 134 l 1
 0 134 l 1
165.5 134 m 1
 165.5 133.5 l 1
 166 133.5 l 1
 332 133.5 l 1
 332.5 133.5 l 1
 332.5 134 l 1
 332.5 467 l 1
 332.5 467.5 l 1
 332 467.5 l 1
 166 467.5 l 1
 165.5 467.5 l 1
 165.5 467 l 1
 165.5 134 l 1
166.5 134.5 m 1
 166.5 466.5 l 1
 331.5 466.5 l 1
 331.5 134.5 l 1
 166.5 134.5 l 1
166 134 m 1
 166 467 l 1
 332 467 l 1
 332 134 l 1
 166 134 l 1
332.5 134 m 1
 332.5 133.5 l 1
 333 133.5 l 1
 499 133.5 l 1
 499.5 133.5 l 1
 499.5 134 l 1
 499.5 467 l 1
 499.5 467.5 l 1
 499 467.5 l 1
 333 467.5 l 1
 332.5 467.5 l 1
 332.5 467 l 1
 332.5 134 l 1
333.5 134.5 m 1
 333.5 466.5 l 1
 498.5 466.5 l 1
 498.5 134.5 l 1
 333.5 134.5 l 1
333 134 m 1
 333 467 l 1
 499 467 l 1
 499 134 l 1
 333 134 l 1
165.5 -199 m 1
 165.5 -199.5 l 1
 166 -199.5 l 1
 332 -199.5 l 1
 332.5 -199.5 l 1
 332.5 -199 l 1
 332.5 134 l 1
 332.5 134.5 l 1
 332 134.5 l 1
 166 134.5 l 1
 165.5 134.5 l 1
 165.5 134 l 1
 165.5 -199 l 1
166.5 -198.5 m 1
 166.5 133.5 l 1
 331.5 133.5 l 1
 331.5 -198.5 l 1
 166.5 -198.5 l 1
166 -199 m 1
 166 134 l 1
 332 134 l 1
 332 -199 l 1
 166 -199 l 1
EndSplineSet
EndChar

StartChar: glyph58
Encoding: 314 1097787 58
Width: 0
VWidth: 0
Flags: H
LayerCount: 2
Fore
SplineSet
-0.5 134 m 1
 -0.5 133.5 l 1
 0 133.5 l 1
 166 133.5 l 1
 166.5 133.5 l 1
 166.5 134 l 1
 166.5 467 l 1
 166.5 467.5 l 1
 166 467.5 l 1
 0 467.5 l 1
 -0.5 467.5 l 1
 -0.5 467 l 1
 -0.5 134 l 1
0.5 134.5 m 1
 0.5 466.5 l 1
 165.5 466.5 l 1
 165.5 134.5 l 1
 0.5 134.5 l 1
0 134 m 1
 0 467 l 1
 166 467 l 1
 166 134 l 1
 0 134 l 1
165.5 134 m 1
 165.5 133.5 l 1
 166 133.5 l 1
 332 133.5 l 1
 332.5 133.5 l 1
 332.5 134 l 1
 332.5 467 l 1
 332.5 467.5 l 1
 332 467.5 l 1
 166 467.5 l 1
 165.5 467.5 l 1
 165.5 467 l 1
 165.5 134 l 1
166.5 134.5 m 1
 166.5 466.5 l 1
 331.5 466.5 l 1
 331.5 134.5 l 1
 166.5 134.5 l 1
166 134 m 1
 166 467 l 1
 332 467 l 1
 332 134 l 1
 166 134 l 1
332.5 134 m 1
 332.5 133.5 l 1
 333 133.5 l 1
 499 133.5 l 1
 499.5 133.5 l 1
 499.5 134 l 1
 499.5 467 l 1
 499.5 467.5 l 1
 499 467.5 l 1
 333 467.5 l 1
 332.5 467.5 l 1
 332.5 467 l 1
 332.5 134 l 1
333.5 134.5 m 1
 333.5 466.5 l 1
 498.5 466.5 l 1
 498.5 134.5 l 1
 333.5 134.5 l 1
333 134 m 1
 333 467 l 1
 499 467 l 1
 499 134 l 1
 333 134 l 1
165.5 -199 m 1
 165.5 -199.5 l 1
 166 -199.5 l 1
 332 -199.5 l 1
 332.5 -199.5 l 1
 332.5 -199 l 1
 332.5 134 l 1
 332.5 134.5 l 1
 332 134.5 l 1
 166 134.5 l 1
 165.5 134.5 l 1
 165.5 134 l 1
 165.5 -199 l 1
166.5 -198.5 m 1
 166.5 133.5 l 1
 331.5 133.5 l 1
 331.5 -198.5 l 1
 166.5 -198.5 l 1
166 -199 m 1
 166 134 l 1
 332 134 l 1
 332 -199 l 1
 166 -199 l 1
332.5 -199 m 1
 332.5 -199.5 l 1
 333 -199.5 l 1
 499 -199.5 l 1
 499.5 -199.5 l 1
 499.5 -199 l 1
 499.5 134 l 1
 499.5 134.5 l 1
 499 134.5 l 1
 333 134.5 l 1
 332.5 134.5 l 1
 332.5 134 l 1
 332.5 -199 l 1
333.5 -198.5 m 1
 333.5 133.5 l 1
 498.5 133.5 l 1
 498.5 -198.5 l 1
 333.5 -198.5 l 1
333 -199 m 1
 333 134 l 1
 499 134 l 1
 499 -199 l 1
 333 -199 l 1
EndSplineSet
EndChar

StartChar: glyph59
Encoding: 315 1097788 59
Width: 0
VWidth: 0
Flags: H
LayerCount: 2
Fore
SplineSet
-0.5 134 m 1
 -0.5 133.5 l 1
 0 133.5 l 1
 166 133.5 l 1
 166.5 133.5 l 1
 166.5 134 l 1
 166.5 467 l 1
 166.5 467.5 l 1
 166 467.5 l 1
 0 467.5 l 1
 -0.5 467.5 l 1
 -0.5 467 l 1
 -0.5 134 l 1
0.5 134.5 m 1
 0.5 466.5 l 1
 165.5 466.5 l 1
 165.5 134.5 l 1
 0.5 134.5 l 1
0 134 m 1
 0 467 l 1
 166 467 l 1
 166 134 l 1
 0 134 l 1
165.5 134 m 1
 165.5 133.5 l 1
 166 133.5 l 1
 332 133.5 l 1
 332.5 133.5 l 1
 332.5 134 l 1
 332.5 467 l 1
 332.5 467.5 l 1
 332 467.5 l 1
 166 467.5 l 1
 165.5 467.5 l 1
 165.5 467 l 1
 165.5 134 l 1
166.5 134.5 m 1
 166.5 466.5 l 1
 331.5 466.5 l 1
 331.5 134.5 l 1
 166.5 134.5 l 1
166 134 m 1
 166 467 l 1
 332 467 l 1
 332 134 l 1
 166 134 l 1
332.5 134 m 1
 332.5 133.5 l 1
 333 133.5 l 1
 499 133.5 l 1
 499.5 133.5 l 1
 499.5 134 l 1
 499.5 467 l 1
 499.5 467.5 l 1
 499 467.5 l 1
 333 467.5 l 1
 332.5 467.5 l 1
 332.5 467 l 1
 332.5 134 l 1
333.5 134.5 m 1
 333.5 466.5 l 1
 498.5 466.5 l 1
 498.5 134.5 l 1
 333.5 134.5 l 1
333 134 m 1
 333 467 l 1
 499 467 l 1
 499 134 l 1
 333 134 l 1
-0.5 -199 m 1
 -0.5 -199.5 l 1
 0 -199.5 l 1
 166 -199.5 l 1
 166.5 -199.5 l 1
 166.5 -199 l 1
 166.5 134 l 1
 166.5 134.5 l 1
 166 134.5 l 1
 0 134.5 l 1
 -0.5 134.5 l 1
 -0.5 134 l 1
 -0.5 -199 l 1
0.5 -198.5 m 1
 0.5 133.5 l 1
 165.5 133.5 l 1
 165.5 -198.5 l 1
 0.5 -198.5 l 1
0 -199 m 1
 0 134 l 1
 166 134 l 1
 166 -199 l 1
 0 -199 l 1
EndSplineSet
EndChar

StartChar: glyph60
Encoding: 316 1097789 60
Width: 0
VWidth: 0
Flags: H
LayerCount: 2
Fore
SplineSet
-0.5 134 m 1
 -0.5 133.5 l 1
 0 133.5 l 1
 166 133.5 l 1
 166.5 133.5 l 1
 166.5 134 l 1
 166.5 467 l 1
 166.5 467.5 l 1
 166 467.5 l 1
 0 467.5 l 1
 -0.5 467.5 l 1
 -0.5 467 l 1
 -0.5 134 l 1
0.5 134.5 m 1
 0.5 466.5 l 1
 165.5 466.5 l 1
 165.5 134.5 l 1
 0.5 134.5 l 1
0 134 m 1
 0 467 l 1
 166 467 l 1
 166 134 l 1
 0 134 l 1
165.5 134 m 1
 165.5 133.5 l 1
 166 133.5 l 1
 332 133.5 l 1
 332.5 133.5 l 1
 332.5 134 l 1
 332.5 467 l 1
 332.5 467.5 l 1
 332 467.5 l 1
 166 467.5 l 1
 165.5 467.5 l 1
 165.5 467 l 1
 165.5 134 l 1
166.5 134.5 m 1
 166.5 466.5 l 1
 331.5 466.5 l 1
 331.5 134.5 l 1
 166.5 134.5 l 1
166 134 m 1
 166 467 l 1
 332 467 l 1
 332 134 l 1
 166 134 l 1
332.5 134 m 1
 332.5 133.5 l 1
 333 133.5 l 1
 499 133.5 l 1
 499.5 133.5 l 1
 499.5 134 l 1
 499.5 467 l 1
 499.5 467.5 l 1
 499 467.5 l 1
 333 467.5 l 1
 332.5 467.5 l 1
 332.5 467 l 1
 332.5 134 l 1
333.5 134.5 m 1
 333.5 466.5 l 1
 498.5 466.5 l 1
 498.5 134.5 l 1
 333.5 134.5 l 1
333 134 m 1
 333 467 l 1
 499 467 l 1
 499 134 l 1
 333 134 l 1
-0.5 -199 m 1
 -0.5 -199.5 l 1
 0 -199.5 l 1
 166 -199.5 l 1
 166.5 -199.5 l 1
 166.5 -199 l 1
 166.5 134 l 1
 166.5 134.5 l 1
 166 134.5 l 1
 0 134.5 l 1
 -0.5 134.5 l 1
 -0.5 134 l 1
 -0.5 -199 l 1
0.5 -198.5 m 1
 0.5 133.5 l 1
 165.5 133.5 l 1
 165.5 -198.5 l 1
 0.5 -198.5 l 1
0 -199 m 1
 0 134 l 1
 166 134 l 1
 166 -199 l 1
 0 -199 l 1
332.5 -199 m 1
 332.5 -199.5 l 1
 333 -199.5 l 1
 499 -199.5 l 1
 499.5 -199.5 l 1
 499.5 -199 l 1
 499.5 134 l 1
 499.5 134.5 l 1
 499 134.5 l 1
 333 134.5 l 1
 332.5 134.5 l 1
 332.5 134 l 1
 332.5 -199 l 1
333.5 -198.5 m 1
 333.5 133.5 l 1
 498.5 133.5 l 1
 498.5 -198.5 l 1
 333.5 -198.5 l 1
333 -199 m 1
 333 134 l 1
 499 134 l 1
 499 -199 l 1
 333 -199 l 1
EndSplineSet
EndChar

StartChar: glyph61
Encoding: 317 1097790 61
Width: 0
VWidth: 0
Flags: H
LayerCount: 2
Fore
SplineSet
-0.5 134 m 1
 -0.5 133.5 l 1
 0 133.5 l 1
 166 133.5 l 1
 166.5 133.5 l 1
 166.5 134 l 1
 166.5 467 l 1
 166.5 467.5 l 1
 166 467.5 l 1
 0 467.5 l 1
 -0.5 467.5 l 1
 -0.5 467 l 1
 -0.5 134 l 1
0.5 134.5 m 1
 0.5 466.5 l 1
 165.5 466.5 l 1
 165.5 134.5 l 1
 0.5 134.5 l 1
0 134 m 1
 0 467 l 1
 166 467 l 1
 166 134 l 1
 0 134 l 1
165.5 134 m 1
 165.5 133.5 l 1
 166 133.5 l 1
 332 133.5 l 1
 332.5 133.5 l 1
 332.5 134 l 1
 332.5 467 l 1
 332.5 467.5 l 1
 332 467.5 l 1
 166 467.5 l 1
 165.5 467.5 l 1
 165.5 467 l 1
 165.5 134 l 1
166.5 134.5 m 1
 166.5 466.5 l 1
 331.5 466.5 l 1
 331.5 134.5 l 1
 166.5 134.5 l 1
166 134 m 1
 166 467 l 1
 332 467 l 1
 332 134 l 1
 166 134 l 1
332.5 134 m 1
 332.5 133.5 l 1
 333 133.5 l 1
 499 133.5 l 1
 499.5 133.5 l 1
 499.5 134 l 1
 499.5 467 l 1
 499.5 467.5 l 1
 499 467.5 l 1
 333 467.5 l 1
 332.5 467.5 l 1
 332.5 467 l 1
 332.5 134 l 1
333.5 134.5 m 1
 333.5 466.5 l 1
 498.5 466.5 l 1
 498.5 134.5 l 1
 333.5 134.5 l 1
333 134 m 1
 333 467 l 1
 499 467 l 1
 499 134 l 1
 333 134 l 1
-0.5 -199 m 1
 -0.5 -199.5 l 1
 0 -199.5 l 1
 166 -199.5 l 1
 166.5 -199.5 l 1
 166.5 -199 l 1
 166.5 134 l 1
 166.5 134.5 l 1
 166 134.5 l 1
 0 134.5 l 1
 -0.5 134.5 l 1
 -0.5 134 l 1
 -0.5 -199 l 1
0.5 -198.5 m 1
 0.5 133.5 l 1
 165.5 133.5 l 1
 165.5 -198.5 l 1
 0.5 -198.5 l 1
0 -199 m 1
 0 134 l 1
 166 134 l 1
 166 -199 l 1
 0 -199 l 1
165.5 -199 m 1
 165.5 -199.5 l 1
 166 -199.5 l 1
 332 -199.5 l 1
 332.5 -199.5 l 1
 332.5 -199 l 1
 332.5 134 l 1
 332.5 134.5 l 1
 332 134.5 l 1
 166 134.5 l 1
 165.5 134.5 l 1
 165.5 134 l 1
 165.5 -199 l 1
166.5 -198.5 m 1
 166.5 133.5 l 1
 331.5 133.5 l 1
 331.5 -198.5 l 1
 166.5 -198.5 l 1
166 -199 m 1
 166 134 l 1
 332 134 l 1
 332 -199 l 1
 166 -199 l 1
EndSplineSet
EndChar

StartChar: glyph62
Encoding: 318 1097791 62
Width: 0
VWidth: 0
Flags: H
LayerCount: 2
Fore
SplineSet
-0.5 134 m 1
 -0.5 133.5 l 1
 0 133.5 l 1
 166 133.5 l 1
 166.5 133.5 l 1
 166.5 134 l 1
 166.5 467 l 1
 166.5 467.5 l 1
 166 467.5 l 1
 0 467.5 l 1
 -0.5 467.5 l 1
 -0.5 467 l 1
 -0.5 134 l 1
0.5 134.5 m 1
 0.5 466.5 l 1
 165.5 466.5 l 1
 165.5 134.5 l 1
 0.5 134.5 l 1
0 134 m 1
 0 467 l 1
 166 467 l 1
 166 134 l 1
 0 134 l 1
165.5 134 m 1
 165.5 133.5 l 1
 166 133.5 l 1
 332 133.5 l 1
 332.5 133.5 l 1
 332.5 134 l 1
 332.5 467 l 1
 332.5 467.5 l 1
 332 467.5 l 1
 166 467.5 l 1
 165.5 467.5 l 1
 165.5 467 l 1
 165.5 134 l 1
166.5 134.5 m 1
 166.5 466.5 l 1
 331.5 466.5 l 1
 331.5 134.5 l 1
 166.5 134.5 l 1
166 134 m 1
 166 467 l 1
 332 467 l 1
 332 134 l 1
 166 134 l 1
332.5 134 m 1
 332.5 133.5 l 1
 333 133.5 l 1
 499 133.5 l 1
 499.5 133.5 l 1
 499.5 134 l 1
 499.5 467 l 1
 499.5 467.5 l 1
 499 467.5 l 1
 333 467.5 l 1
 332.5 467.5 l 1
 332.5 467 l 1
 332.5 134 l 1
333.5 134.5 m 1
 333.5 466.5 l 1
 498.5 466.5 l 1
 498.5 134.5 l 1
 333.5 134.5 l 1
333 134 m 1
 333 467 l 1
 499 467 l 1
 499 134 l 1
 333 134 l 1
-0.5 -199 m 1
 -0.5 -199.5 l 1
 0 -199.5 l 1
 166 -199.5 l 1
 166.5 -199.5 l 1
 166.5 -199 l 1
 166.5 134 l 1
 166.5 134.5 l 1
 166 134.5 l 1
 0 134.5 l 1
 -0.5 134.5 l 1
 -0.5 134 l 1
 -0.5 -199 l 1
0.5 -198.5 m 1
 0.5 133.5 l 1
 165.5 133.5 l 1
 165.5 -198.5 l 1
 0.5 -198.5 l 1
0 -199 m 1
 0 134 l 1
 166 134 l 1
 166 -199 l 1
 0 -199 l 1
165.5 -199 m 1
 165.5 -199.5 l 1
 166 -199.5 l 1
 332 -199.5 l 1
 332.5 -199.5 l 1
 332.5 -199 l 1
 332.5 134 l 1
 332.5 134.5 l 1
 332 134.5 l 1
 166 134.5 l 1
 165.5 134.5 l 1
 165.5 134 l 1
 165.5 -199 l 1
166.5 -198.5 m 1
 166.5 133.5 l 1
 331.5 133.5 l 1
 331.5 -198.5 l 1
 166.5 -198.5 l 1
166 -199 m 1
 166 134 l 1
 332 134 l 1
 332 -199 l 1
 166 -199 l 1
332.5 -199 m 1
 332.5 -199.5 l 1
 333 -199.5 l 1
 499 -199.5 l 1
 499.5 -199.5 l 1
 499.5 -199 l 1
 499.5 134 l 1
 499.5 134.5 l 1
 499 134.5 l 1
 333 134.5 l 1
 332.5 134.5 l 1
 332.5 134 l 1
 332.5 -199 l 1
333.5 -198.5 m 1
 333.5 133.5 l 1
 498.5 133.5 l 1
 498.5 -198.5 l 1
 333.5 -198.5 l 1
333 -199 m 1
 333 134 l 1
 499 134 l 1
 499 -199 l 1
 333 -199 l 1
EndSplineSet
EndChar

StartChar: glyph63
Encoding: 319 1097792 63
Width: 0
VWidth: 0
Flags: H
LayerCount: 2
Fore
SplineSet
332.5 467 m 1
 332.5 466.5 l 1
 333 466.5 l 1
 499 466.5 l 1
 499.5 466.5 l 1
 499.5 467 l 1
 499.5 800 l 1
 499.5 800.5 l 1
 499 800.5 l 1
 333 800.5 l 1
 332.5 800.5 l 1
 332.5 800 l 1
 332.5 467 l 1
333.5 467.5 m 1
 333.5 799.5 l 1
 498.5 799.5 l 1
 498.5 467.5 l 1
 333.5 467.5 l 1
333 467 m 1
 333 800 l 1
 499 800 l 1
 499 467 l 1
 333 467 l 1
EndSplineSet
EndChar

StartChar: glyph64
Encoding: 320 1097793 64
Width: 0
VWidth: 0
Flags: H
LayerCount: 2
Fore
SplineSet
332.5 467 m 1
 332.5 466.5 l 1
 333 466.5 l 1
 499 466.5 l 1
 499.5 466.5 l 1
 499.5 467 l 1
 499.5 800 l 1
 499.5 800.5 l 1
 499 800.5 l 1
 333 800.5 l 1
 332.5 800.5 l 1
 332.5 800 l 1
 332.5 467 l 1
333.5 467.5 m 1
 333.5 799.5 l 1
 498.5 799.5 l 1
 498.5 467.5 l 1
 333.5 467.5 l 1
333 467 m 1
 333 800 l 1
 499 800 l 1
 499 467 l 1
 333 467 l 1
332.5 -199 m 1
 332.5 -199.5 l 1
 333 -199.5 l 1
 499 -199.5 l 1
 499.5 -199.5 l 1
 499.5 -199 l 1
 499.5 134 l 1
 499.5 134.5 l 1
 499 134.5 l 1
 333 134.5 l 1
 332.5 134.5 l 1
 332.5 134 l 1
 332.5 -199 l 1
333.5 -198.5 m 1
 333.5 133.5 l 1
 498.5 133.5 l 1
 498.5 -198.5 l 1
 333.5 -198.5 l 1
333 -199 m 1
 333 134 l 1
 499 134 l 1
 499 -199 l 1
 333 -199 l 1
EndSplineSet
EndChar

StartChar: glyph65
Encoding: 321 1097794 65
Width: 0
VWidth: 0
Flags: H
LayerCount: 2
Fore
SplineSet
332.5 467 m 1
 332.5 466.5 l 1
 333 466.5 l 1
 499 466.5 l 1
 499.5 466.5 l 1
 499.5 467 l 1
 499.5 800 l 1
 499.5 800.5 l 1
 499 800.5 l 1
 333 800.5 l 1
 332.5 800.5 l 1
 332.5 800 l 1
 332.5 467 l 1
333.5 467.5 m 1
 333.5 799.5 l 1
 498.5 799.5 l 1
 498.5 467.5 l 1
 333.5 467.5 l 1
333 467 m 1
 333 800 l 1
 499 800 l 1
 499 467 l 1
 333 467 l 1
165.5 -199 m 1
 165.5 -199.5 l 1
 166 -199.5 l 1
 332 -199.5 l 1
 332.5 -199.5 l 1
 332.5 -199 l 1
 332.5 134 l 1
 332.5 134.5 l 1
 332 134.5 l 1
 166 134.5 l 1
 165.5 134.5 l 1
 165.5 134 l 1
 165.5 -199 l 1
166.5 -198.5 m 1
 166.5 133.5 l 1
 331.5 133.5 l 1
 331.5 -198.5 l 1
 166.5 -198.5 l 1
166 -199 m 1
 166 134 l 1
 332 134 l 1
 332 -199 l 1
 166 -199 l 1
EndSplineSet
EndChar

StartChar: glyph66
Encoding: 322 1097795 66
Width: 0
VWidth: 0
Flags: H
LayerCount: 2
Fore
SplineSet
332.5 467 m 1
 332.5 466.5 l 1
 333 466.5 l 1
 499 466.5 l 1
 499.5 466.5 l 1
 499.5 467 l 1
 499.5 800 l 1
 499.5 800.5 l 1
 499 800.5 l 1
 333 800.5 l 1
 332.5 800.5 l 1
 332.5 800 l 1
 332.5 467 l 1
333.5 467.5 m 1
 333.5 799.5 l 1
 498.5 799.5 l 1
 498.5 467.5 l 1
 333.5 467.5 l 1
333 467 m 1
 333 800 l 1
 499 800 l 1
 499 467 l 1
 333 467 l 1
165.5 -199 m 1
 165.5 -199.5 l 1
 166 -199.5 l 1
 332 -199.5 l 1
 332.5 -199.5 l 1
 332.5 -199 l 1
 332.5 134 l 1
 332.5 134.5 l 1
 332 134.5 l 1
 166 134.5 l 1
 165.5 134.5 l 1
 165.5 134 l 1
 165.5 -199 l 1
166.5 -198.5 m 1
 166.5 133.5 l 1
 331.5 133.5 l 1
 331.5 -198.5 l 1
 166.5 -198.5 l 1
166 -199 m 1
 166 134 l 1
 332 134 l 1
 332 -199 l 1
 166 -199 l 1
332.5 -199 m 1
 332.5 -199.5 l 1
 333 -199.5 l 1
 499 -199.5 l 1
 499.5 -199.5 l 1
 499.5 -199 l 1
 499.5 134 l 1
 499.5 134.5 l 1
 499 134.5 l 1
 333 134.5 l 1
 332.5 134.5 l 1
 332.5 134 l 1
 332.5 -199 l 1
333.5 -198.5 m 1
 333.5 133.5 l 1
 498.5 133.5 l 1
 498.5 -198.5 l 1
 333.5 -198.5 l 1
333 -199 m 1
 333 134 l 1
 499 134 l 1
 499 -199 l 1
 333 -199 l 1
EndSplineSet
EndChar

StartChar: glyph67
Encoding: 323 1097796 67
Width: 0
VWidth: 0
Flags: H
LayerCount: 2
Fore
SplineSet
332.5 467 m 1
 332.5 466.5 l 1
 333 466.5 l 1
 499 466.5 l 1
 499.5 466.5 l 1
 499.5 467 l 1
 499.5 800 l 1
 499.5 800.5 l 1
 499 800.5 l 1
 333 800.5 l 1
 332.5 800.5 l 1
 332.5 800 l 1
 332.5 467 l 1
333.5 467.5 m 1
 333.5 799.5 l 1
 498.5 799.5 l 1
 498.5 467.5 l 1
 333.5 467.5 l 1
333 467 m 1
 333 800 l 1
 499 800 l 1
 499 467 l 1
 333 467 l 1
-0.5 -199 m 1
 -0.5 -199.5 l 1
 0 -199.5 l 1
 166 -199.5 l 1
 166.5 -199.5 l 1
 166.5 -199 l 1
 166.5 134 l 1
 166.5 134.5 l 1
 166 134.5 l 1
 0 134.5 l 1
 -0.5 134.5 l 1
 -0.5 134 l 1
 -0.5 -199 l 1
0.5 -198.5 m 1
 0.5 133.5 l 1
 165.5 133.5 l 1
 165.5 -198.5 l 1
 0.5 -198.5 l 1
0 -199 m 1
 0 134 l 1
 166 134 l 1
 166 -199 l 1
 0 -199 l 1
EndSplineSet
EndChar

StartChar: glyph68
Encoding: 324 1097797 68
Width: 0
VWidth: 0
Flags: H
LayerCount: 2
Fore
SplineSet
332.5 467 m 1
 332.5 466.5 l 1
 333 466.5 l 1
 499 466.5 l 1
 499.5 466.5 l 1
 499.5 467 l 1
 499.5 800 l 1
 499.5 800.5 l 1
 499 800.5 l 1
 333 800.5 l 1
 332.5 800.5 l 1
 332.5 800 l 1
 332.5 467 l 1
333.5 467.5 m 1
 333.5 799.5 l 1
 498.5 799.5 l 1
 498.5 467.5 l 1
 333.5 467.5 l 1
333 467 m 1
 333 800 l 1
 499 800 l 1
 499 467 l 1
 333 467 l 1
-0.5 -199 m 1
 -0.5 -199.5 l 1
 0 -199.5 l 1
 166 -199.5 l 1
 166.5 -199.5 l 1
 166.5 -199 l 1
 166.5 134 l 1
 166.5 134.5 l 1
 166 134.5 l 1
 0 134.5 l 1
 -0.5 134.5 l 1
 -0.5 134 l 1
 -0.5 -199 l 1
0.5 -198.5 m 1
 0.5 133.5 l 1
 165.5 133.5 l 1
 165.5 -198.5 l 1
 0.5 -198.5 l 1
0 -199 m 1
 0 134 l 1
 166 134 l 1
 166 -199 l 1
 0 -199 l 1
332.5 -199 m 1
 332.5 -199.5 l 1
 333 -199.5 l 1
 499 -199.5 l 1
 499.5 -199.5 l 1
 499.5 -199 l 1
 499.5 134 l 1
 499.5 134.5 l 1
 499 134.5 l 1
 333 134.5 l 1
 332.5 134.5 l 1
 332.5 134 l 1
 332.5 -199 l 1
333.5 -198.5 m 1
 333.5 133.5 l 1
 498.5 133.5 l 1
 498.5 -198.5 l 1
 333.5 -198.5 l 1
333 -199 m 1
 333 134 l 1
 499 134 l 1
 499 -199 l 1
 333 -199 l 1
EndSplineSet
EndChar

StartChar: glyph69
Encoding: 325 1097798 69
Width: 0
VWidth: 0
Flags: H
LayerCount: 2
Fore
SplineSet
332.5 467 m 1
 332.5 466.5 l 1
 333 466.5 l 1
 499 466.5 l 1
 499.5 466.5 l 1
 499.5 467 l 1
 499.5 800 l 1
 499.5 800.5 l 1
 499 800.5 l 1
 333 800.5 l 1
 332.5 800.5 l 1
 332.5 800 l 1
 332.5 467 l 1
333.5 467.5 m 1
 333.5 799.5 l 1
 498.5 799.5 l 1
 498.5 467.5 l 1
 333.5 467.5 l 1
333 467 m 1
 333 800 l 1
 499 800 l 1
 499 467 l 1
 333 467 l 1
-0.5 -199 m 1
 -0.5 -199.5 l 1
 0 -199.5 l 1
 166 -199.5 l 1
 166.5 -199.5 l 1
 166.5 -199 l 1
 166.5 134 l 1
 166.5 134.5 l 1
 166 134.5 l 1
 0 134.5 l 1
 -0.5 134.5 l 1
 -0.5 134 l 1
 -0.5 -199 l 1
0.5 -198.5 m 1
 0.5 133.5 l 1
 165.5 133.5 l 1
 165.5 -198.5 l 1
 0.5 -198.5 l 1
0 -199 m 1
 0 134 l 1
 166 134 l 1
 166 -199 l 1
 0 -199 l 1
165.5 -199 m 1
 165.5 -199.5 l 1
 166 -199.5 l 1
 332 -199.5 l 1
 332.5 -199.5 l 1
 332.5 -199 l 1
 332.5 134 l 1
 332.5 134.5 l 1
 332 134.5 l 1
 166 134.5 l 1
 165.5 134.5 l 1
 165.5 134 l 1
 165.5 -199 l 1
166.5 -198.5 m 1
 166.5 133.5 l 1
 331.5 133.5 l 1
 331.5 -198.5 l 1
 166.5 -198.5 l 1
166 -199 m 1
 166 134 l 1
 332 134 l 1
 332 -199 l 1
 166 -199 l 1
EndSplineSet
EndChar

StartChar: glyph70
Encoding: 326 1097799 70
Width: 0
VWidth: 0
Flags: H
LayerCount: 2
Fore
SplineSet
332.5 467 m 1
 332.5 466.5 l 1
 333 466.5 l 1
 499 466.5 l 1
 499.5 466.5 l 1
 499.5 467 l 1
 499.5 800 l 1
 499.5 800.5 l 1
 499 800.5 l 1
 333 800.5 l 1
 332.5 800.5 l 1
 332.5 800 l 1
 332.5 467 l 1
333.5 467.5 m 1
 333.5 799.5 l 1
 498.5 799.5 l 1
 498.5 467.5 l 1
 333.5 467.5 l 1
333 467 m 1
 333 800 l 1
 499 800 l 1
 499 467 l 1
 333 467 l 1
-0.5 -199 m 1
 -0.5 -199.5 l 1
 0 -199.5 l 1
 166 -199.5 l 1
 166.5 -199.5 l 1
 166.5 -199 l 1
 166.5 134 l 1
 166.5 134.5 l 1
 166 134.5 l 1
 0 134.5 l 1
 -0.5 134.5 l 1
 -0.5 134 l 1
 -0.5 -199 l 1
0.5 -198.5 m 1
 0.5 133.5 l 1
 165.5 133.5 l 1
 165.5 -198.5 l 1
 0.5 -198.5 l 1
0 -199 m 1
 0 134 l 1
 166 134 l 1
 166 -199 l 1
 0 -199 l 1
165.5 -199 m 1
 165.5 -199.5 l 1
 166 -199.5 l 1
 332 -199.5 l 1
 332.5 -199.5 l 1
 332.5 -199 l 1
 332.5 134 l 1
 332.5 134.5 l 1
 332 134.5 l 1
 166 134.5 l 1
 165.5 134.5 l 1
 165.5 134 l 1
 165.5 -199 l 1
166.5 -198.5 m 1
 166.5 133.5 l 1
 331.5 133.5 l 1
 331.5 -198.5 l 1
 166.5 -198.5 l 1
166 -199 m 1
 166 134 l 1
 332 134 l 1
 332 -199 l 1
 166 -199 l 1
332.5 -199 m 1
 332.5 -199.5 l 1
 333 -199.5 l 1
 499 -199.5 l 1
 499.5 -199.5 l 1
 499.5 -199 l 1
 499.5 134 l 1
 499.5 134.5 l 1
 499 134.5 l 1
 333 134.5 l 1
 332.5 134.5 l 1
 332.5 134 l 1
 332.5 -199 l 1
333.5 -198.5 m 1
 333.5 133.5 l 1
 498.5 133.5 l 1
 498.5 -198.5 l 1
 333.5 -198.5 l 1
333 -199 m 1
 333 134 l 1
 499 134 l 1
 499 -199 l 1
 333 -199 l 1
EndSplineSet
EndChar

StartChar: glyph71
Encoding: 327 1097800 71
Width: 0
VWidth: 0
Flags: H
LayerCount: 2
Fore
SplineSet
332.5 467 m 1
 332.5 466.5 l 1
 333 466.5 l 1
 499 466.5 l 1
 499.5 466.5 l 1
 499.5 467 l 1
 499.5 800 l 1
 499.5 800.5 l 1
 499 800.5 l 1
 333 800.5 l 1
 332.5 800.5 l 1
 332.5 800 l 1
 332.5 467 l 1
333.5 467.5 m 1
 333.5 799.5 l 1
 498.5 799.5 l 1
 498.5 467.5 l 1
 333.5 467.5 l 1
333 467 m 1
 333 800 l 1
 499 800 l 1
 499 467 l 1
 333 467 l 1
332.5 134 m 1
 332.5 133.5 l 1
 333 133.5 l 1
 499 133.5 l 1
 499.5 133.5 l 1
 499.5 134 l 1
 499.5 467 l 1
 499.5 467.5 l 1
 499 467.5 l 1
 333 467.5 l 1
 332.5 467.5 l 1
 332.5 467 l 1
 332.5 134 l 1
333.5 134.5 m 1
 333.5 466.5 l 1
 498.5 466.5 l 1
 498.5 134.5 l 1
 333.5 134.5 l 1
333 134 m 1
 333 467 l 1
 499 467 l 1
 499 134 l 1
 333 134 l 1
EndSplineSet
EndChar

StartChar: glyph72
Encoding: 328 1097801 72
Width: 0
VWidth: 0
Flags: H
LayerCount: 2
Fore
SplineSet
332.5 467 m 1
 332.5 466.5 l 1
 333 466.5 l 1
 499 466.5 l 1
 499.5 466.5 l 1
 499.5 467 l 1
 499.5 800 l 1
 499.5 800.5 l 1
 499 800.5 l 1
 333 800.5 l 1
 332.5 800.5 l 1
 332.5 800 l 1
 332.5 467 l 1
333.5 467.5 m 1
 333.5 799.5 l 1
 498.5 799.5 l 1
 498.5 467.5 l 1
 333.5 467.5 l 1
333 467 m 1
 333 800 l 1
 499 800 l 1
 499 467 l 1
 333 467 l 1
332.5 134 m 1
 332.5 133.5 l 1
 333 133.5 l 1
 499 133.5 l 1
 499.5 133.5 l 1
 499.5 134 l 1
 499.5 467 l 1
 499.5 467.5 l 1
 499 467.5 l 1
 333 467.5 l 1
 332.5 467.5 l 1
 332.5 467 l 1
 332.5 134 l 1
333.5 134.5 m 1
 333.5 466.5 l 1
 498.5 466.5 l 1
 498.5 134.5 l 1
 333.5 134.5 l 1
333 134 m 1
 333 467 l 1
 499 467 l 1
 499 134 l 1
 333 134 l 1
332.5 -199 m 1
 332.5 -199.5 l 1
 333 -199.5 l 1
 499 -199.5 l 1
 499.5 -199.5 l 1
 499.5 -199 l 1
 499.5 134 l 1
 499.5 134.5 l 1
 499 134.5 l 1
 333 134.5 l 1
 332.5 134.5 l 1
 332.5 134 l 1
 332.5 -199 l 1
333.5 -198.5 m 1
 333.5 133.5 l 1
 498.5 133.5 l 1
 498.5 -198.5 l 1
 333.5 -198.5 l 1
333 -199 m 1
 333 134 l 1
 499 134 l 1
 499 -199 l 1
 333 -199 l 1
EndSplineSet
EndChar

StartChar: glyph73
Encoding: 329 1097802 73
Width: 0
VWidth: 0
Flags: H
LayerCount: 2
Fore
SplineSet
332.5 467 m 1
 332.5 466.5 l 1
 333 466.5 l 1
 499 466.5 l 1
 499.5 466.5 l 1
 499.5 467 l 1
 499.5 800 l 1
 499.5 800.5 l 1
 499 800.5 l 1
 333 800.5 l 1
 332.5 800.5 l 1
 332.5 800 l 1
 332.5 467 l 1
333.5 467.5 m 1
 333.5 799.5 l 1
 498.5 799.5 l 1
 498.5 467.5 l 1
 333.5 467.5 l 1
333 467 m 1
 333 800 l 1
 499 800 l 1
 499 467 l 1
 333 467 l 1
332.5 134 m 1
 332.5 133.5 l 1
 333 133.5 l 1
 499 133.5 l 1
 499.5 133.5 l 1
 499.5 134 l 1
 499.5 467 l 1
 499.5 467.5 l 1
 499 467.5 l 1
 333 467.5 l 1
 332.5 467.5 l 1
 332.5 467 l 1
 332.5 134 l 1
333.5 134.5 m 1
 333.5 466.5 l 1
 498.5 466.5 l 1
 498.5 134.5 l 1
 333.5 134.5 l 1
333 134 m 1
 333 467 l 1
 499 467 l 1
 499 134 l 1
 333 134 l 1
165.5 -199 m 1
 165.5 -199.5 l 1
 166 -199.5 l 1
 332 -199.5 l 1
 332.5 -199.5 l 1
 332.5 -199 l 1
 332.5 134 l 1
 332.5 134.5 l 1
 332 134.5 l 1
 166 134.5 l 1
 165.5 134.5 l 1
 165.5 134 l 1
 165.5 -199 l 1
166.5 -198.5 m 1
 166.5 133.5 l 1
 331.5 133.5 l 1
 331.5 -198.5 l 1
 166.5 -198.5 l 1
166 -199 m 1
 166 134 l 1
 332 134 l 1
 332 -199 l 1
 166 -199 l 1
EndSplineSet
EndChar

StartChar: glyph74
Encoding: 330 1097803 74
Width: 0
VWidth: 0
Flags: H
LayerCount: 2
Fore
SplineSet
332.5 467 m 1
 332.5 466.5 l 1
 333 466.5 l 1
 499 466.5 l 1
 499.5 466.5 l 1
 499.5 467 l 1
 499.5 800 l 1
 499.5 800.5 l 1
 499 800.5 l 1
 333 800.5 l 1
 332.5 800.5 l 1
 332.5 800 l 1
 332.5 467 l 1
333.5 467.5 m 1
 333.5 799.5 l 1
 498.5 799.5 l 1
 498.5 467.5 l 1
 333.5 467.5 l 1
333 467 m 1
 333 800 l 1
 499 800 l 1
 499 467 l 1
 333 467 l 1
332.5 134 m 1
 332.5 133.5 l 1
 333 133.5 l 1
 499 133.5 l 1
 499.5 133.5 l 1
 499.5 134 l 1
 499.5 467 l 1
 499.5 467.5 l 1
 499 467.5 l 1
 333 467.5 l 1
 332.5 467.5 l 1
 332.5 467 l 1
 332.5 134 l 1
333.5 134.5 m 1
 333.5 466.5 l 1
 498.5 466.5 l 1
 498.5 134.5 l 1
 333.5 134.5 l 1
333 134 m 1
 333 467 l 1
 499 467 l 1
 499 134 l 1
 333 134 l 1
165.5 -199 m 1
 165.5 -199.5 l 1
 166 -199.5 l 1
 332 -199.5 l 1
 332.5 -199.5 l 1
 332.5 -199 l 1
 332.5 134 l 1
 332.5 134.5 l 1
 332 134.5 l 1
 166 134.5 l 1
 165.5 134.5 l 1
 165.5 134 l 1
 165.5 -199 l 1
166.5 -198.5 m 1
 166.5 133.5 l 1
 331.5 133.5 l 1
 331.5 -198.5 l 1
 166.5 -198.5 l 1
166 -199 m 1
 166 134 l 1
 332 134 l 1
 332 -199 l 1
 166 -199 l 1
332.5 -199 m 1
 332.5 -199.5 l 1
 333 -199.5 l 1
 499 -199.5 l 1
 499.5 -199.5 l 1
 499.5 -199 l 1
 499.5 134 l 1
 499.5 134.5 l 1
 499 134.5 l 1
 333 134.5 l 1
 332.5 134.5 l 1
 332.5 134 l 1
 332.5 -199 l 1
333.5 -198.5 m 1
 333.5 133.5 l 1
 498.5 133.5 l 1
 498.5 -198.5 l 1
 333.5 -198.5 l 1
333 -199 m 1
 333 134 l 1
 499 134 l 1
 499 -199 l 1
 333 -199 l 1
EndSplineSet
EndChar

StartChar: glyph75
Encoding: 331 1097804 75
Width: 0
VWidth: 0
Flags: H
LayerCount: 2
Fore
SplineSet
332.5 467 m 1
 332.5 466.5 l 1
 333 466.5 l 1
 499 466.5 l 1
 499.5 466.5 l 1
 499.5 467 l 1
 499.5 800 l 1
 499.5 800.5 l 1
 499 800.5 l 1
 333 800.5 l 1
 332.5 800.5 l 1
 332.5 800 l 1
 332.5 467 l 1
333.5 467.5 m 1
 333.5 799.5 l 1
 498.5 799.5 l 1
 498.5 467.5 l 1
 333.5 467.5 l 1
333 467 m 1
 333 800 l 1
 499 800 l 1
 499 467 l 1
 333 467 l 1
332.5 134 m 1
 332.5 133.5 l 1
 333 133.5 l 1
 499 133.5 l 1
 499.5 133.5 l 1
 499.5 134 l 1
 499.5 467 l 1
 499.5 467.5 l 1
 499 467.5 l 1
 333 467.5 l 1
 332.5 467.5 l 1
 332.5 467 l 1
 332.5 134 l 1
333.5 134.5 m 1
 333.5 466.5 l 1
 498.5 466.5 l 1
 498.5 134.5 l 1
 333.5 134.5 l 1
333 134 m 1
 333 467 l 1
 499 467 l 1
 499 134 l 1
 333 134 l 1
-0.5 -199 m 1
 -0.5 -199.5 l 1
 0 -199.5 l 1
 166 -199.5 l 1
 166.5 -199.5 l 1
 166.5 -199 l 1
 166.5 134 l 1
 166.5 134.5 l 1
 166 134.5 l 1
 0 134.5 l 1
 -0.5 134.5 l 1
 -0.5 134 l 1
 -0.5 -199 l 1
0.5 -198.5 m 1
 0.5 133.5 l 1
 165.5 133.5 l 1
 165.5 -198.5 l 1
 0.5 -198.5 l 1
0 -199 m 1
 0 134 l 1
 166 134 l 1
 166 -199 l 1
 0 -199 l 1
EndSplineSet
EndChar

StartChar: glyph76
Encoding: 332 1097805 76
Width: 0
VWidth: 0
Flags: H
LayerCount: 2
Fore
SplineSet
332.5 467 m 1
 332.5 466.5 l 1
 333 466.5 l 1
 499 466.5 l 1
 499.5 466.5 l 1
 499.5 467 l 1
 499.5 800 l 1
 499.5 800.5 l 1
 499 800.5 l 1
 333 800.5 l 1
 332.5 800.5 l 1
 332.5 800 l 1
 332.5 467 l 1
333.5 467.5 m 1
 333.5 799.5 l 1
 498.5 799.5 l 1
 498.5 467.5 l 1
 333.5 467.5 l 1
333 467 m 1
 333 800 l 1
 499 800 l 1
 499 467 l 1
 333 467 l 1
332.5 134 m 1
 332.5 133.5 l 1
 333 133.5 l 1
 499 133.5 l 1
 499.5 133.5 l 1
 499.5 134 l 1
 499.5 467 l 1
 499.5 467.5 l 1
 499 467.5 l 1
 333 467.5 l 1
 332.5 467.5 l 1
 332.5 467 l 1
 332.5 134 l 1
333.5 134.5 m 1
 333.5 466.5 l 1
 498.5 466.5 l 1
 498.5 134.5 l 1
 333.5 134.5 l 1
333 134 m 1
 333 467 l 1
 499 467 l 1
 499 134 l 1
 333 134 l 1
-0.5 -199 m 1
 -0.5 -199.5 l 1
 0 -199.5 l 1
 166 -199.5 l 1
 166.5 -199.5 l 1
 166.5 -199 l 1
 166.5 134 l 1
 166.5 134.5 l 1
 166 134.5 l 1
 0 134.5 l 1
 -0.5 134.5 l 1
 -0.5 134 l 1
 -0.5 -199 l 1
0.5 -198.5 m 1
 0.5 133.5 l 1
 165.5 133.5 l 1
 165.5 -198.5 l 1
 0.5 -198.5 l 1
0 -199 m 1
 0 134 l 1
 166 134 l 1
 166 -199 l 1
 0 -199 l 1
332.5 -199 m 1
 332.5 -199.5 l 1
 333 -199.5 l 1
 499 -199.5 l 1
 499.5 -199.5 l 1
 499.5 -199 l 1
 499.5 134 l 1
 499.5 134.5 l 1
 499 134.5 l 1
 333 134.5 l 1
 332.5 134.5 l 1
 332.5 134 l 1
 332.5 -199 l 1
333.5 -198.5 m 1
 333.5 133.5 l 1
 498.5 133.5 l 1
 498.5 -198.5 l 1
 333.5 -198.5 l 1
333 -199 m 1
 333 134 l 1
 499 134 l 1
 499 -199 l 1
 333 -199 l 1
EndSplineSet
EndChar

StartChar: glyph77
Encoding: 333 1097806 77
Width: 0
VWidth: 0
Flags: H
LayerCount: 2
Fore
SplineSet
332.5 467 m 1
 332.5 466.5 l 1
 333 466.5 l 1
 499 466.5 l 1
 499.5 466.5 l 1
 499.5 467 l 1
 499.5 800 l 1
 499.5 800.5 l 1
 499 800.5 l 1
 333 800.5 l 1
 332.5 800.5 l 1
 332.5 800 l 1
 332.5 467 l 1
333.5 467.5 m 1
 333.5 799.5 l 1
 498.5 799.5 l 1
 498.5 467.5 l 1
 333.5 467.5 l 1
333 467 m 1
 333 800 l 1
 499 800 l 1
 499 467 l 1
 333 467 l 1
332.5 134 m 1
 332.5 133.5 l 1
 333 133.5 l 1
 499 133.5 l 1
 499.5 133.5 l 1
 499.5 134 l 1
 499.5 467 l 1
 499.5 467.5 l 1
 499 467.5 l 1
 333 467.5 l 1
 332.5 467.5 l 1
 332.5 467 l 1
 332.5 134 l 1
333.5 134.5 m 1
 333.5 466.5 l 1
 498.5 466.5 l 1
 498.5 134.5 l 1
 333.5 134.5 l 1
333 134 m 1
 333 467 l 1
 499 467 l 1
 499 134 l 1
 333 134 l 1
-0.5 -199 m 1
 -0.5 -199.5 l 1
 0 -199.5 l 1
 166 -199.5 l 1
 166.5 -199.5 l 1
 166.5 -199 l 1
 166.5 134 l 1
 166.5 134.5 l 1
 166 134.5 l 1
 0 134.5 l 1
 -0.5 134.5 l 1
 -0.5 134 l 1
 -0.5 -199 l 1
0.5 -198.5 m 1
 0.5 133.5 l 1
 165.5 133.5 l 1
 165.5 -198.5 l 1
 0.5 -198.5 l 1
0 -199 m 1
 0 134 l 1
 166 134 l 1
 166 -199 l 1
 0 -199 l 1
165.5 -199 m 1
 165.5 -199.5 l 1
 166 -199.5 l 1
 332 -199.5 l 1
 332.5 -199.5 l 1
 332.5 -199 l 1
 332.5 134 l 1
 332.5 134.5 l 1
 332 134.5 l 1
 166 134.5 l 1
 165.5 134.5 l 1
 165.5 134 l 1
 165.5 -199 l 1
166.5 -198.5 m 1
 166.5 133.5 l 1
 331.5 133.5 l 1
 331.5 -198.5 l 1
 166.5 -198.5 l 1
166 -199 m 1
 166 134 l 1
 332 134 l 1
 332 -199 l 1
 166 -199 l 1
EndSplineSet
EndChar

StartChar: glyph78
Encoding: 334 1097807 78
Width: 0
VWidth: 0
Flags: H
LayerCount: 2
Fore
SplineSet
332.5 467 m 1
 332.5 466.5 l 1
 333 466.5 l 1
 499 466.5 l 1
 499.5 466.5 l 1
 499.5 467 l 1
 499.5 800 l 1
 499.5 800.5 l 1
 499 800.5 l 1
 333 800.5 l 1
 332.5 800.5 l 1
 332.5 800 l 1
 332.5 467 l 1
333.5 467.5 m 1
 333.5 799.5 l 1
 498.5 799.5 l 1
 498.5 467.5 l 1
 333.5 467.5 l 1
333 467 m 1
 333 800 l 1
 499 800 l 1
 499 467 l 1
 333 467 l 1
332.5 134 m 1
 332.5 133.5 l 1
 333 133.5 l 1
 499 133.5 l 1
 499.5 133.5 l 1
 499.5 134 l 1
 499.5 467 l 1
 499.5 467.5 l 1
 499 467.5 l 1
 333 467.5 l 1
 332.5 467.5 l 1
 332.5 467 l 1
 332.5 134 l 1
333.5 134.5 m 1
 333.5 466.5 l 1
 498.5 466.5 l 1
 498.5 134.5 l 1
 333.5 134.5 l 1
333 134 m 1
 333 467 l 1
 499 467 l 1
 499 134 l 1
 333 134 l 1
-0.5 -199 m 1
 -0.5 -199.5 l 1
 0 -199.5 l 1
 166 -199.5 l 1
 166.5 -199.5 l 1
 166.5 -199 l 1
 166.5 134 l 1
 166.5 134.5 l 1
 166 134.5 l 1
 0 134.5 l 1
 -0.5 134.5 l 1
 -0.5 134 l 1
 -0.5 -199 l 1
0.5 -198.5 m 1
 0.5 133.5 l 1
 165.5 133.5 l 1
 165.5 -198.5 l 1
 0.5 -198.5 l 1
0 -199 m 1
 0 134 l 1
 166 134 l 1
 166 -199 l 1
 0 -199 l 1
165.5 -199 m 1
 165.5 -199.5 l 1
 166 -199.5 l 1
 332 -199.5 l 1
 332.5 -199.5 l 1
 332.5 -199 l 1
 332.5 134 l 1
 332.5 134.5 l 1
 332 134.5 l 1
 166 134.5 l 1
 165.5 134.5 l 1
 165.5 134 l 1
 165.5 -199 l 1
166.5 -198.5 m 1
 166.5 133.5 l 1
 331.5 133.5 l 1
 331.5 -198.5 l 1
 166.5 -198.5 l 1
166 -199 m 1
 166 134 l 1
 332 134 l 1
 332 -199 l 1
 166 -199 l 1
332.5 -199 m 1
 332.5 -199.5 l 1
 333 -199.5 l 1
 499 -199.5 l 1
 499.5 -199.5 l 1
 499.5 -199 l 1
 499.5 134 l 1
 499.5 134.5 l 1
 499 134.5 l 1
 333 134.5 l 1
 332.5 134.5 l 1
 332.5 134 l 1
 332.5 -199 l 1
333.5 -198.5 m 1
 333.5 133.5 l 1
 498.5 133.5 l 1
 498.5 -198.5 l 1
 333.5 -198.5 l 1
333 -199 m 1
 333 134 l 1
 499 134 l 1
 499 -199 l 1
 333 -199 l 1
EndSplineSet
EndChar

StartChar: glyph79
Encoding: 335 1097808 79
Width: 0
VWidth: 0
Flags: H
LayerCount: 2
Fore
SplineSet
332.5 467 m 1
 332.5 466.5 l 1
 333 466.5 l 1
 499 466.5 l 1
 499.5 466.5 l 1
 499.5 467 l 1
 499.5 800 l 1
 499.5 800.5 l 1
 499 800.5 l 1
 333 800.5 l 1
 332.5 800.5 l 1
 332.5 800 l 1
 332.5 467 l 1
333.5 467.5 m 1
 333.5 799.5 l 1
 498.5 799.5 l 1
 498.5 467.5 l 1
 333.5 467.5 l 1
333 467 m 1
 333 800 l 1
 499 800 l 1
 499 467 l 1
 333 467 l 1
165.5 134 m 1
 165.5 133.5 l 1
 166 133.5 l 1
 332 133.5 l 1
 332.5 133.5 l 1
 332.5 134 l 1
 332.5 467 l 1
 332.5 467.5 l 1
 332 467.5 l 1
 166 467.5 l 1
 165.5 467.5 l 1
 165.5 467 l 1
 165.5 134 l 1
166.5 134.5 m 1
 166.5 466.5 l 1
 331.5 466.5 l 1
 331.5 134.5 l 1
 166.5 134.5 l 1
166 134 m 1
 166 467 l 1
 332 467 l 1
 332 134 l 1
 166 134 l 1
EndSplineSet
EndChar

StartChar: glyph80
Encoding: 336 1097809 80
Width: 0
VWidth: 0
Flags: H
LayerCount: 2
Fore
SplineSet
332.5 467 m 1
 332.5 466.5 l 1
 333 466.5 l 1
 499 466.5 l 1
 499.5 466.5 l 1
 499.5 467 l 1
 499.5 800 l 1
 499.5 800.5 l 1
 499 800.5 l 1
 333 800.5 l 1
 332.5 800.5 l 1
 332.5 800 l 1
 332.5 467 l 1
333.5 467.5 m 1
 333.5 799.5 l 1
 498.5 799.5 l 1
 498.5 467.5 l 1
 333.5 467.5 l 1
333 467 m 1
 333 800 l 1
 499 800 l 1
 499 467 l 1
 333 467 l 1
165.5 134 m 1
 165.5 133.5 l 1
 166 133.5 l 1
 332 133.5 l 1
 332.5 133.5 l 1
 332.5 134 l 1
 332.5 467 l 1
 332.5 467.5 l 1
 332 467.5 l 1
 166 467.5 l 1
 165.5 467.5 l 1
 165.5 467 l 1
 165.5 134 l 1
166.5 134.5 m 1
 166.5 466.5 l 1
 331.5 466.5 l 1
 331.5 134.5 l 1
 166.5 134.5 l 1
166 134 m 1
 166 467 l 1
 332 467 l 1
 332 134 l 1
 166 134 l 1
332.5 -199 m 1
 332.5 -199.5 l 1
 333 -199.5 l 1
 499 -199.5 l 1
 499.5 -199.5 l 1
 499.5 -199 l 1
 499.5 134 l 1
 499.5 134.5 l 1
 499 134.5 l 1
 333 134.5 l 1
 332.5 134.5 l 1
 332.5 134 l 1
 332.5 -199 l 1
333.5 -198.5 m 1
 333.5 133.5 l 1
 498.5 133.5 l 1
 498.5 -198.5 l 1
 333.5 -198.5 l 1
333 -199 m 1
 333 134 l 1
 499 134 l 1
 499 -199 l 1
 333 -199 l 1
EndSplineSet
EndChar

StartChar: glyph81
Encoding: 337 1097810 81
Width: 0
VWidth: 0
Flags: H
LayerCount: 2
Fore
SplineSet
332.5 467 m 1
 332.5 466.5 l 1
 333 466.5 l 1
 499 466.5 l 1
 499.5 466.5 l 1
 499.5 467 l 1
 499.5 800 l 1
 499.5 800.5 l 1
 499 800.5 l 1
 333 800.5 l 1
 332.5 800.5 l 1
 332.5 800 l 1
 332.5 467 l 1
333.5 467.5 m 1
 333.5 799.5 l 1
 498.5 799.5 l 1
 498.5 467.5 l 1
 333.5 467.5 l 1
333 467 m 1
 333 800 l 1
 499 800 l 1
 499 467 l 1
 333 467 l 1
165.5 134 m 1
 165.5 133.5 l 1
 166 133.5 l 1
 332 133.5 l 1
 332.5 133.5 l 1
 332.5 134 l 1
 332.5 467 l 1
 332.5 467.5 l 1
 332 467.5 l 1
 166 467.5 l 1
 165.5 467.5 l 1
 165.5 467 l 1
 165.5 134 l 1
166.5 134.5 m 1
 166.5 466.5 l 1
 331.5 466.5 l 1
 331.5 134.5 l 1
 166.5 134.5 l 1
166 134 m 1
 166 467 l 1
 332 467 l 1
 332 134 l 1
 166 134 l 1
165.5 -199 m 1
 165.5 -199.5 l 1
 166 -199.5 l 1
 332 -199.5 l 1
 332.5 -199.5 l 1
 332.5 -199 l 1
 332.5 134 l 1
 332.5 134.5 l 1
 332 134.5 l 1
 166 134.5 l 1
 165.5 134.5 l 1
 165.5 134 l 1
 165.5 -199 l 1
166.5 -198.5 m 1
 166.5 133.5 l 1
 331.5 133.5 l 1
 331.5 -198.5 l 1
 166.5 -198.5 l 1
166 -199 m 1
 166 134 l 1
 332 134 l 1
 332 -199 l 1
 166 -199 l 1
EndSplineSet
EndChar

StartChar: glyph82
Encoding: 338 1097811 82
Width: 0
VWidth: 0
Flags: H
LayerCount: 2
Fore
SplineSet
332.5 467 m 1
 332.5 466.5 l 1
 333 466.5 l 1
 499 466.5 l 1
 499.5 466.5 l 1
 499.5 467 l 1
 499.5 800 l 1
 499.5 800.5 l 1
 499 800.5 l 1
 333 800.5 l 1
 332.5 800.5 l 1
 332.5 800 l 1
 332.5 467 l 1
333.5 467.5 m 1
 333.5 799.5 l 1
 498.5 799.5 l 1
 498.5 467.5 l 1
 333.5 467.5 l 1
333 467 m 1
 333 800 l 1
 499 800 l 1
 499 467 l 1
 333 467 l 1
165.5 134 m 1
 165.5 133.5 l 1
 166 133.5 l 1
 332 133.5 l 1
 332.5 133.5 l 1
 332.5 134 l 1
 332.5 467 l 1
 332.5 467.5 l 1
 332 467.5 l 1
 166 467.5 l 1
 165.5 467.5 l 1
 165.5 467 l 1
 165.5 134 l 1
166.5 134.5 m 1
 166.5 466.5 l 1
 331.5 466.5 l 1
 331.5 134.5 l 1
 166.5 134.5 l 1
166 134 m 1
 166 467 l 1
 332 467 l 1
 332 134 l 1
 166 134 l 1
165.5 -199 m 1
 165.5 -199.5 l 1
 166 -199.5 l 1
 332 -199.5 l 1
 332.5 -199.5 l 1
 332.5 -199 l 1
 332.5 134 l 1
 332.5 134.5 l 1
 332 134.5 l 1
 166 134.5 l 1
 165.5 134.5 l 1
 165.5 134 l 1
 165.5 -199 l 1
166.5 -198.5 m 1
 166.5 133.5 l 1
 331.5 133.5 l 1
 331.5 -198.5 l 1
 166.5 -198.5 l 1
166 -199 m 1
 166 134 l 1
 332 134 l 1
 332 -199 l 1
 166 -199 l 1
332.5 -199 m 1
 332.5 -199.5 l 1
 333 -199.5 l 1
 499 -199.5 l 1
 499.5 -199.5 l 1
 499.5 -199 l 1
 499.5 134 l 1
 499.5 134.5 l 1
 499 134.5 l 1
 333 134.5 l 1
 332.5 134.5 l 1
 332.5 134 l 1
 332.5 -199 l 1
333.5 -198.5 m 1
 333.5 133.5 l 1
 498.5 133.5 l 1
 498.5 -198.5 l 1
 333.5 -198.5 l 1
333 -199 m 1
 333 134 l 1
 499 134 l 1
 499 -199 l 1
 333 -199 l 1
EndSplineSet
EndChar

StartChar: glyph83
Encoding: 339 1097812 83
Width: 0
VWidth: 0
Flags: H
LayerCount: 2
Fore
SplineSet
332.5 467 m 1
 332.5 466.5 l 1
 333 466.5 l 1
 499 466.5 l 1
 499.5 466.5 l 1
 499.5 467 l 1
 499.5 800 l 1
 499.5 800.5 l 1
 499 800.5 l 1
 333 800.5 l 1
 332.5 800.5 l 1
 332.5 800 l 1
 332.5 467 l 1
333.5 467.5 m 1
 333.5 799.5 l 1
 498.5 799.5 l 1
 498.5 467.5 l 1
 333.5 467.5 l 1
333 467 m 1
 333 800 l 1
 499 800 l 1
 499 467 l 1
 333 467 l 1
165.5 134 m 1
 165.5 133.5 l 1
 166 133.5 l 1
 332 133.5 l 1
 332.5 133.5 l 1
 332.5 134 l 1
 332.5 467 l 1
 332.5 467.5 l 1
 332 467.5 l 1
 166 467.5 l 1
 165.5 467.5 l 1
 165.5 467 l 1
 165.5 134 l 1
166.5 134.5 m 1
 166.5 466.5 l 1
 331.5 466.5 l 1
 331.5 134.5 l 1
 166.5 134.5 l 1
166 134 m 1
 166 467 l 1
 332 467 l 1
 332 134 l 1
 166 134 l 1
-0.5 -199 m 1
 -0.5 -199.5 l 1
 0 -199.5 l 1
 166 -199.5 l 1
 166.5 -199.5 l 1
 166.5 -199 l 1
 166.5 134 l 1
 166.5 134.5 l 1
 166 134.5 l 1
 0 134.5 l 1
 -0.5 134.5 l 1
 -0.5 134 l 1
 -0.5 -199 l 1
0.5 -198.5 m 1
 0.5 133.5 l 1
 165.5 133.5 l 1
 165.5 -198.5 l 1
 0.5 -198.5 l 1
0 -199 m 1
 0 134 l 1
 166 134 l 1
 166 -199 l 1
 0 -199 l 1
EndSplineSet
EndChar

StartChar: glyph84
Encoding: 340 1097813 84
Width: 0
VWidth: 0
Flags: H
LayerCount: 2
Fore
SplineSet
332.5 467 m 1
 332.5 466.5 l 1
 333 466.5 l 1
 499 466.5 l 1
 499.5 466.5 l 1
 499.5 467 l 1
 499.5 800 l 1
 499.5 800.5 l 1
 499 800.5 l 1
 333 800.5 l 1
 332.5 800.5 l 1
 332.5 800 l 1
 332.5 467 l 1
333.5 467.5 m 1
 333.5 799.5 l 1
 498.5 799.5 l 1
 498.5 467.5 l 1
 333.5 467.5 l 1
333 467 m 1
 333 800 l 1
 499 800 l 1
 499 467 l 1
 333 467 l 1
165.5 134 m 1
 165.5 133.5 l 1
 166 133.5 l 1
 332 133.5 l 1
 332.5 133.5 l 1
 332.5 134 l 1
 332.5 467 l 1
 332.5 467.5 l 1
 332 467.5 l 1
 166 467.5 l 1
 165.5 467.5 l 1
 165.5 467 l 1
 165.5 134 l 1
166.5 134.5 m 1
 166.5 466.5 l 1
 331.5 466.5 l 1
 331.5 134.5 l 1
 166.5 134.5 l 1
166 134 m 1
 166 467 l 1
 332 467 l 1
 332 134 l 1
 166 134 l 1
-0.5 -199 m 1
 -0.5 -199.5 l 1
 0 -199.5 l 1
 166 -199.5 l 1
 166.5 -199.5 l 1
 166.5 -199 l 1
 166.5 134 l 1
 166.5 134.5 l 1
 166 134.5 l 1
 0 134.5 l 1
 -0.5 134.5 l 1
 -0.5 134 l 1
 -0.5 -199 l 1
0.5 -198.5 m 1
 0.5 133.5 l 1
 165.5 133.5 l 1
 165.5 -198.5 l 1
 0.5 -198.5 l 1
0 -199 m 1
 0 134 l 1
 166 134 l 1
 166 -199 l 1
 0 -199 l 1
332.5 -199 m 1
 332.5 -199.5 l 1
 333 -199.5 l 1
 499 -199.5 l 1
 499.5 -199.5 l 1
 499.5 -199 l 1
 499.5 134 l 1
 499.5 134.5 l 1
 499 134.5 l 1
 333 134.5 l 1
 332.5 134.5 l 1
 332.5 134 l 1
 332.5 -199 l 1
333.5 -198.5 m 1
 333.5 133.5 l 1
 498.5 133.5 l 1
 498.5 -198.5 l 1
 333.5 -198.5 l 1
333 -199 m 1
 333 134 l 1
 499 134 l 1
 499 -199 l 1
 333 -199 l 1
EndSplineSet
EndChar

StartChar: glyph85
Encoding: 341 1097814 85
Width: 0
VWidth: 0
Flags: H
LayerCount: 2
Fore
SplineSet
332.5 467 m 1
 332.5 466.5 l 1
 333 466.5 l 1
 499 466.5 l 1
 499.5 466.5 l 1
 499.5 467 l 1
 499.5 800 l 1
 499.5 800.5 l 1
 499 800.5 l 1
 333 800.5 l 1
 332.5 800.5 l 1
 332.5 800 l 1
 332.5 467 l 1
333.5 467.5 m 1
 333.5 799.5 l 1
 498.5 799.5 l 1
 498.5 467.5 l 1
 333.5 467.5 l 1
333 467 m 1
 333 800 l 1
 499 800 l 1
 499 467 l 1
 333 467 l 1
165.5 134 m 1
 165.5 133.5 l 1
 166 133.5 l 1
 332 133.5 l 1
 332.5 133.5 l 1
 332.5 134 l 1
 332.5 467 l 1
 332.5 467.5 l 1
 332 467.5 l 1
 166 467.5 l 1
 165.5 467.5 l 1
 165.5 467 l 1
 165.5 134 l 1
166.5 134.5 m 1
 166.5 466.5 l 1
 331.5 466.5 l 1
 331.5 134.5 l 1
 166.5 134.5 l 1
166 134 m 1
 166 467 l 1
 332 467 l 1
 332 134 l 1
 166 134 l 1
-0.5 -199 m 1
 -0.5 -199.5 l 1
 0 -199.5 l 1
 166 -199.5 l 1
 166.5 -199.5 l 1
 166.5 -199 l 1
 166.5 134 l 1
 166.5 134.5 l 1
 166 134.5 l 1
 0 134.5 l 1
 -0.5 134.5 l 1
 -0.5 134 l 1
 -0.5 -199 l 1
0.5 -198.5 m 1
 0.5 133.5 l 1
 165.5 133.5 l 1
 165.5 -198.5 l 1
 0.5 -198.5 l 1
0 -199 m 1
 0 134 l 1
 166 134 l 1
 166 -199 l 1
 0 -199 l 1
165.5 -199 m 1
 165.5 -199.5 l 1
 166 -199.5 l 1
 332 -199.5 l 1
 332.5 -199.5 l 1
 332.5 -199 l 1
 332.5 134 l 1
 332.5 134.5 l 1
 332 134.5 l 1
 166 134.5 l 1
 165.5 134.5 l 1
 165.5 134 l 1
 165.5 -199 l 1
166.5 -198.5 m 1
 166.5 133.5 l 1
 331.5 133.5 l 1
 331.5 -198.5 l 1
 166.5 -198.5 l 1
166 -199 m 1
 166 134 l 1
 332 134 l 1
 332 -199 l 1
 166 -199 l 1
EndSplineSet
EndChar

StartChar: glyph86
Encoding: 342 1097815 86
Width: 0
VWidth: 0
Flags: H
LayerCount: 2
Fore
SplineSet
332.5 467 m 1
 332.5 466.5 l 1
 333 466.5 l 1
 499 466.5 l 1
 499.5 466.5 l 1
 499.5 467 l 1
 499.5 800 l 1
 499.5 800.5 l 1
 499 800.5 l 1
 333 800.5 l 1
 332.5 800.5 l 1
 332.5 800 l 1
 332.5 467 l 1
333.5 467.5 m 1
 333.5 799.5 l 1
 498.5 799.5 l 1
 498.5 467.5 l 1
 333.5 467.5 l 1
333 467 m 1
 333 800 l 1
 499 800 l 1
 499 467 l 1
 333 467 l 1
165.5 134 m 1
 165.5 133.5 l 1
 166 133.5 l 1
 332 133.5 l 1
 332.5 133.5 l 1
 332.5 134 l 1
 332.5 467 l 1
 332.5 467.5 l 1
 332 467.5 l 1
 166 467.5 l 1
 165.5 467.5 l 1
 165.5 467 l 1
 165.5 134 l 1
166.5 134.5 m 1
 166.5 466.5 l 1
 331.5 466.5 l 1
 331.5 134.5 l 1
 166.5 134.5 l 1
166 134 m 1
 166 467 l 1
 332 467 l 1
 332 134 l 1
 166 134 l 1
-0.5 -199 m 1
 -0.5 -199.5 l 1
 0 -199.5 l 1
 166 -199.5 l 1
 166.5 -199.5 l 1
 166.5 -199 l 1
 166.5 134 l 1
 166.5 134.5 l 1
 166 134.5 l 1
 0 134.5 l 1
 -0.5 134.5 l 1
 -0.5 134 l 1
 -0.5 -199 l 1
0.5 -198.5 m 1
 0.5 133.5 l 1
 165.5 133.5 l 1
 165.5 -198.5 l 1
 0.5 -198.5 l 1
0 -199 m 1
 0 134 l 1
 166 134 l 1
 166 -199 l 1
 0 -199 l 1
165.5 -199 m 1
 165.5 -199.5 l 1
 166 -199.5 l 1
 332 -199.5 l 1
 332.5 -199.5 l 1
 332.5 -199 l 1
 332.5 134 l 1
 332.5 134.5 l 1
 332 134.5 l 1
 166 134.5 l 1
 165.5 134.5 l 1
 165.5 134 l 1
 165.5 -199 l 1
166.5 -198.5 m 1
 166.5 133.5 l 1
 331.5 133.5 l 1
 331.5 -198.5 l 1
 166.5 -198.5 l 1
166 -199 m 1
 166 134 l 1
 332 134 l 1
 332 -199 l 1
 166 -199 l 1
332.5 -199 m 1
 332.5 -199.5 l 1
 333 -199.5 l 1
 499 -199.5 l 1
 499.5 -199.5 l 1
 499.5 -199 l 1
 499.5 134 l 1
 499.5 134.5 l 1
 499 134.5 l 1
 333 134.5 l 1
 332.5 134.5 l 1
 332.5 134 l 1
 332.5 -199 l 1
333.5 -198.5 m 1
 333.5 133.5 l 1
 498.5 133.5 l 1
 498.5 -198.5 l 1
 333.5 -198.5 l 1
333 -199 m 1
 333 134 l 1
 499 134 l 1
 499 -199 l 1
 333 -199 l 1
EndSplineSet
EndChar

StartChar: glyph87
Encoding: 343 1097816 87
Width: 0
VWidth: 0
Flags: H
LayerCount: 2
Fore
SplineSet
332.5 467 m 1
 332.5 466.5 l 1
 333 466.5 l 1
 499 466.5 l 1
 499.5 466.5 l 1
 499.5 467 l 1
 499.5 800 l 1
 499.5 800.5 l 1
 499 800.5 l 1
 333 800.5 l 1
 332.5 800.5 l 1
 332.5 800 l 1
 332.5 467 l 1
333.5 467.5 m 1
 333.5 799.5 l 1
 498.5 799.5 l 1
 498.5 467.5 l 1
 333.5 467.5 l 1
333 467 m 1
 333 800 l 1
 499 800 l 1
 499 467 l 1
 333 467 l 1
165.5 134 m 1
 165.5 133.5 l 1
 166 133.5 l 1
 332 133.5 l 1
 332.5 133.5 l 1
 332.5 134 l 1
 332.5 467 l 1
 332.5 467.5 l 1
 332 467.5 l 1
 166 467.5 l 1
 165.5 467.5 l 1
 165.5 467 l 1
 165.5 134 l 1
166.5 134.5 m 1
 166.5 466.5 l 1
 331.5 466.5 l 1
 331.5 134.5 l 1
 166.5 134.5 l 1
166 134 m 1
 166 467 l 1
 332 467 l 1
 332 134 l 1
 166 134 l 1
332.5 134 m 1
 332.5 133.5 l 1
 333 133.5 l 1
 499 133.5 l 1
 499.5 133.5 l 1
 499.5 134 l 1
 499.5 467 l 1
 499.5 467.5 l 1
 499 467.5 l 1
 333 467.5 l 1
 332.5 467.5 l 1
 332.5 467 l 1
 332.5 134 l 1
333.5 134.5 m 1
 333.5 466.5 l 1
 498.5 466.5 l 1
 498.5 134.5 l 1
 333.5 134.5 l 1
333 134 m 1
 333 467 l 1
 499 467 l 1
 499 134 l 1
 333 134 l 1
EndSplineSet
EndChar

StartChar: glyph88
Encoding: 344 1097817 88
Width: 0
VWidth: 0
Flags: H
LayerCount: 2
Fore
SplineSet
332.5 467 m 1
 332.5 466.5 l 1
 333 466.5 l 1
 499 466.5 l 1
 499.5 466.5 l 1
 499.5 467 l 1
 499.5 800 l 1
 499.5 800.5 l 1
 499 800.5 l 1
 333 800.5 l 1
 332.5 800.5 l 1
 332.5 800 l 1
 332.5 467 l 1
333.5 467.5 m 1
 333.5 799.5 l 1
 498.5 799.5 l 1
 498.5 467.5 l 1
 333.5 467.5 l 1
333 467 m 1
 333 800 l 1
 499 800 l 1
 499 467 l 1
 333 467 l 1
165.5 134 m 1
 165.5 133.5 l 1
 166 133.5 l 1
 332 133.5 l 1
 332.5 133.5 l 1
 332.5 134 l 1
 332.5 467 l 1
 332.5 467.5 l 1
 332 467.5 l 1
 166 467.5 l 1
 165.5 467.5 l 1
 165.5 467 l 1
 165.5 134 l 1
166.5 134.5 m 1
 166.5 466.5 l 1
 331.5 466.5 l 1
 331.5 134.5 l 1
 166.5 134.5 l 1
166 134 m 1
 166 467 l 1
 332 467 l 1
 332 134 l 1
 166 134 l 1
332.5 134 m 1
 332.5 133.5 l 1
 333 133.5 l 1
 499 133.5 l 1
 499.5 133.5 l 1
 499.5 134 l 1
 499.5 467 l 1
 499.5 467.5 l 1
 499 467.5 l 1
 333 467.5 l 1
 332.5 467.5 l 1
 332.5 467 l 1
 332.5 134 l 1
333.5 134.5 m 1
 333.5 466.5 l 1
 498.5 466.5 l 1
 498.5 134.5 l 1
 333.5 134.5 l 1
333 134 m 1
 333 467 l 1
 499 467 l 1
 499 134 l 1
 333 134 l 1
332.5 -199 m 1
 332.5 -199.5 l 1
 333 -199.5 l 1
 499 -199.5 l 1
 499.5 -199.5 l 1
 499.5 -199 l 1
 499.5 134 l 1
 499.5 134.5 l 1
 499 134.5 l 1
 333 134.5 l 1
 332.5 134.5 l 1
 332.5 134 l 1
 332.5 -199 l 1
333.5 -198.5 m 1
 333.5 133.5 l 1
 498.5 133.5 l 1
 498.5 -198.5 l 1
 333.5 -198.5 l 1
333 -199 m 1
 333 134 l 1
 499 134 l 1
 499 -199 l 1
 333 -199 l 1
EndSplineSet
EndChar

StartChar: glyph89
Encoding: 345 1097818 89
Width: 0
VWidth: 0
Flags: H
LayerCount: 2
Fore
SplineSet
332.5 467 m 1
 332.5 466.5 l 1
 333 466.5 l 1
 499 466.5 l 1
 499.5 466.5 l 1
 499.5 467 l 1
 499.5 800 l 1
 499.5 800.5 l 1
 499 800.5 l 1
 333 800.5 l 1
 332.5 800.5 l 1
 332.5 800 l 1
 332.5 467 l 1
333.5 467.5 m 1
 333.5 799.5 l 1
 498.5 799.5 l 1
 498.5 467.5 l 1
 333.5 467.5 l 1
333 467 m 1
 333 800 l 1
 499 800 l 1
 499 467 l 1
 333 467 l 1
165.5 134 m 1
 165.5 133.5 l 1
 166 133.5 l 1
 332 133.5 l 1
 332.5 133.5 l 1
 332.5 134 l 1
 332.5 467 l 1
 332.5 467.5 l 1
 332 467.5 l 1
 166 467.5 l 1
 165.5 467.5 l 1
 165.5 467 l 1
 165.5 134 l 1
166.5 134.5 m 1
 166.5 466.5 l 1
 331.5 466.5 l 1
 331.5 134.5 l 1
 166.5 134.5 l 1
166 134 m 1
 166 467 l 1
 332 467 l 1
 332 134 l 1
 166 134 l 1
332.5 134 m 1
 332.5 133.5 l 1
 333 133.5 l 1
 499 133.5 l 1
 499.5 133.5 l 1
 499.5 134 l 1
 499.5 467 l 1
 499.5 467.5 l 1
 499 467.5 l 1
 333 467.5 l 1
 332.5 467.5 l 1
 332.5 467 l 1
 332.5 134 l 1
333.5 134.5 m 1
 333.5 466.5 l 1
 498.5 466.5 l 1
 498.5 134.5 l 1
 333.5 134.5 l 1
333 134 m 1
 333 467 l 1
 499 467 l 1
 499 134 l 1
 333 134 l 1
165.5 -199 m 1
 165.5 -199.5 l 1
 166 -199.5 l 1
 332 -199.5 l 1
 332.5 -199.5 l 1
 332.5 -199 l 1
 332.5 134 l 1
 332.5 134.5 l 1
 332 134.5 l 1
 166 134.5 l 1
 165.5 134.5 l 1
 165.5 134 l 1
 165.5 -199 l 1
166.5 -198.5 m 1
 166.5 133.5 l 1
 331.5 133.5 l 1
 331.5 -198.5 l 1
 166.5 -198.5 l 1
166 -199 m 1
 166 134 l 1
 332 134 l 1
 332 -199 l 1
 166 -199 l 1
EndSplineSet
EndChar

StartChar: glyph90
Encoding: 346 1097819 90
Width: 0
VWidth: 0
Flags: H
LayerCount: 2
Fore
SplineSet
332.5 467 m 1
 332.5 466.5 l 1
 333 466.5 l 1
 499 466.5 l 1
 499.5 466.5 l 1
 499.5 467 l 1
 499.5 800 l 1
 499.5 800.5 l 1
 499 800.5 l 1
 333 800.5 l 1
 332.5 800.5 l 1
 332.5 800 l 1
 332.5 467 l 1
333.5 467.5 m 1
 333.5 799.5 l 1
 498.5 799.5 l 1
 498.5 467.5 l 1
 333.5 467.5 l 1
333 467 m 1
 333 800 l 1
 499 800 l 1
 499 467 l 1
 333 467 l 1
165.5 134 m 1
 165.5 133.5 l 1
 166 133.5 l 1
 332 133.5 l 1
 332.5 133.5 l 1
 332.5 134 l 1
 332.5 467 l 1
 332.5 467.5 l 1
 332 467.5 l 1
 166 467.5 l 1
 165.5 467.5 l 1
 165.5 467 l 1
 165.5 134 l 1
166.5 134.5 m 1
 166.5 466.5 l 1
 331.5 466.5 l 1
 331.5 134.5 l 1
 166.5 134.5 l 1
166 134 m 1
 166 467 l 1
 332 467 l 1
 332 134 l 1
 166 134 l 1
332.5 134 m 1
 332.5 133.5 l 1
 333 133.5 l 1
 499 133.5 l 1
 499.5 133.5 l 1
 499.5 134 l 1
 499.5 467 l 1
 499.5 467.5 l 1
 499 467.5 l 1
 333 467.5 l 1
 332.5 467.5 l 1
 332.5 467 l 1
 332.5 134 l 1
333.5 134.5 m 1
 333.5 466.5 l 1
 498.5 466.5 l 1
 498.5 134.5 l 1
 333.5 134.5 l 1
333 134 m 1
 333 467 l 1
 499 467 l 1
 499 134 l 1
 333 134 l 1
165.5 -199 m 1
 165.5 -199.5 l 1
 166 -199.5 l 1
 332 -199.5 l 1
 332.5 -199.5 l 1
 332.5 -199 l 1
 332.5 134 l 1
 332.5 134.5 l 1
 332 134.5 l 1
 166 134.5 l 1
 165.5 134.5 l 1
 165.5 134 l 1
 165.5 -199 l 1
166.5 -198.5 m 1
 166.5 133.5 l 1
 331.5 133.5 l 1
 331.5 -198.5 l 1
 166.5 -198.5 l 1
166 -199 m 1
 166 134 l 1
 332 134 l 1
 332 -199 l 1
 166 -199 l 1
332.5 -199 m 1
 332.5 -199.5 l 1
 333 -199.5 l 1
 499 -199.5 l 1
 499.5 -199.5 l 1
 499.5 -199 l 1
 499.5 134 l 1
 499.5 134.5 l 1
 499 134.5 l 1
 333 134.5 l 1
 332.5 134.5 l 1
 332.5 134 l 1
 332.5 -199 l 1
333.5 -198.5 m 1
 333.5 133.5 l 1
 498.5 133.5 l 1
 498.5 -198.5 l 1
 333.5 -198.5 l 1
333 -199 m 1
 333 134 l 1
 499 134 l 1
 499 -199 l 1
 333 -199 l 1
EndSplineSet
EndChar

StartChar: glyph91
Encoding: 347 1097820 91
Width: 0
VWidth: 0
Flags: H
LayerCount: 2
Fore
SplineSet
332.5 467 m 1
 332.5 466.5 l 1
 333 466.5 l 1
 499 466.5 l 1
 499.5 466.5 l 1
 499.5 467 l 1
 499.5 800 l 1
 499.5 800.5 l 1
 499 800.5 l 1
 333 800.5 l 1
 332.5 800.5 l 1
 332.5 800 l 1
 332.5 467 l 1
333.5 467.5 m 1
 333.5 799.5 l 1
 498.5 799.5 l 1
 498.5 467.5 l 1
 333.5 467.5 l 1
333 467 m 1
 333 800 l 1
 499 800 l 1
 499 467 l 1
 333 467 l 1
165.5 134 m 1
 165.5 133.5 l 1
 166 133.5 l 1
 332 133.5 l 1
 332.5 133.5 l 1
 332.5 134 l 1
 332.5 467 l 1
 332.5 467.5 l 1
 332 467.5 l 1
 166 467.5 l 1
 165.5 467.5 l 1
 165.5 467 l 1
 165.5 134 l 1
166.5 134.5 m 1
 166.5 466.5 l 1
 331.5 466.5 l 1
 331.5 134.5 l 1
 166.5 134.5 l 1
166 134 m 1
 166 467 l 1
 332 467 l 1
 332 134 l 1
 166 134 l 1
332.5 134 m 1
 332.5 133.5 l 1
 333 133.5 l 1
 499 133.5 l 1
 499.5 133.5 l 1
 499.5 134 l 1
 499.5 467 l 1
 499.5 467.5 l 1
 499 467.5 l 1
 333 467.5 l 1
 332.5 467.5 l 1
 332.5 467 l 1
 332.5 134 l 1
333.5 134.5 m 1
 333.5 466.5 l 1
 498.5 466.5 l 1
 498.5 134.5 l 1
 333.5 134.5 l 1
333 134 m 1
 333 467 l 1
 499 467 l 1
 499 134 l 1
 333 134 l 1
-0.5 -199 m 1
 -0.5 -199.5 l 1
 0 -199.5 l 1
 166 -199.5 l 1
 166.5 -199.5 l 1
 166.5 -199 l 1
 166.5 134 l 1
 166.5 134.5 l 1
 166 134.5 l 1
 0 134.5 l 1
 -0.5 134.5 l 1
 -0.5 134 l 1
 -0.5 -199 l 1
0.5 -198.5 m 1
 0.5 133.5 l 1
 165.5 133.5 l 1
 165.5 -198.5 l 1
 0.5 -198.5 l 1
0 -199 m 1
 0 134 l 1
 166 134 l 1
 166 -199 l 1
 0 -199 l 1
EndSplineSet
EndChar

StartChar: glyph92
Encoding: 348 1097821 92
Width: 0
VWidth: 0
Flags: H
LayerCount: 2
Fore
SplineSet
332.5 467 m 1
 332.5 466.5 l 1
 333 466.5 l 1
 499 466.5 l 1
 499.5 466.5 l 1
 499.5 467 l 1
 499.5 800 l 1
 499.5 800.5 l 1
 499 800.5 l 1
 333 800.5 l 1
 332.5 800.5 l 1
 332.5 800 l 1
 332.5 467 l 1
333.5 467.5 m 1
 333.5 799.5 l 1
 498.5 799.5 l 1
 498.5 467.5 l 1
 333.5 467.5 l 1
333 467 m 1
 333 800 l 1
 499 800 l 1
 499 467 l 1
 333 467 l 1
165.5 134 m 1
 165.5 133.5 l 1
 166 133.5 l 1
 332 133.5 l 1
 332.5 133.5 l 1
 332.5 134 l 1
 332.5 467 l 1
 332.5 467.5 l 1
 332 467.5 l 1
 166 467.5 l 1
 165.5 467.5 l 1
 165.5 467 l 1
 165.5 134 l 1
166.5 134.5 m 1
 166.5 466.5 l 1
 331.5 466.5 l 1
 331.5 134.5 l 1
 166.5 134.5 l 1
166 134 m 1
 166 467 l 1
 332 467 l 1
 332 134 l 1
 166 134 l 1
332.5 134 m 1
 332.5 133.5 l 1
 333 133.5 l 1
 499 133.5 l 1
 499.5 133.5 l 1
 499.5 134 l 1
 499.5 467 l 1
 499.5 467.5 l 1
 499 467.5 l 1
 333 467.5 l 1
 332.5 467.5 l 1
 332.5 467 l 1
 332.5 134 l 1
333.5 134.5 m 1
 333.5 466.5 l 1
 498.5 466.5 l 1
 498.5 134.5 l 1
 333.5 134.5 l 1
333 134 m 1
 333 467 l 1
 499 467 l 1
 499 134 l 1
 333 134 l 1
-0.5 -199 m 1
 -0.5 -199.5 l 1
 0 -199.5 l 1
 166 -199.5 l 1
 166.5 -199.5 l 1
 166.5 -199 l 1
 166.5 134 l 1
 166.5 134.5 l 1
 166 134.5 l 1
 0 134.5 l 1
 -0.5 134.5 l 1
 -0.5 134 l 1
 -0.5 -199 l 1
0.5 -198.5 m 1
 0.5 133.5 l 1
 165.5 133.5 l 1
 165.5 -198.5 l 1
 0.5 -198.5 l 1
0 -199 m 1
 0 134 l 1
 166 134 l 1
 166 -199 l 1
 0 -199 l 1
332.5 -199 m 1
 332.5 -199.5 l 1
 333 -199.5 l 1
 499 -199.5 l 1
 499.5 -199.5 l 1
 499.5 -199 l 1
 499.5 134 l 1
 499.5 134.5 l 1
 499 134.5 l 1
 333 134.5 l 1
 332.5 134.5 l 1
 332.5 134 l 1
 332.5 -199 l 1
333.5 -198.5 m 1
 333.5 133.5 l 1
 498.5 133.5 l 1
 498.5 -198.5 l 1
 333.5 -198.5 l 1
333 -199 m 1
 333 134 l 1
 499 134 l 1
 499 -199 l 1
 333 -199 l 1
EndSplineSet
EndChar

StartChar: glyph93
Encoding: 349 1097822 93
Width: 0
VWidth: 0
Flags: H
LayerCount: 2
Fore
SplineSet
332.5 467 m 1
 332.5 466.5 l 1
 333 466.5 l 1
 499 466.5 l 1
 499.5 466.5 l 1
 499.5 467 l 1
 499.5 800 l 1
 499.5 800.5 l 1
 499 800.5 l 1
 333 800.5 l 1
 332.5 800.5 l 1
 332.5 800 l 1
 332.5 467 l 1
333.5 467.5 m 1
 333.5 799.5 l 1
 498.5 799.5 l 1
 498.5 467.5 l 1
 333.5 467.5 l 1
333 467 m 1
 333 800 l 1
 499 800 l 1
 499 467 l 1
 333 467 l 1
165.5 134 m 1
 165.5 133.5 l 1
 166 133.5 l 1
 332 133.5 l 1
 332.5 133.5 l 1
 332.5 134 l 1
 332.5 467 l 1
 332.5 467.5 l 1
 332 467.5 l 1
 166 467.5 l 1
 165.5 467.5 l 1
 165.5 467 l 1
 165.5 134 l 1
166.5 134.5 m 1
 166.5 466.5 l 1
 331.5 466.5 l 1
 331.5 134.5 l 1
 166.5 134.5 l 1
166 134 m 1
 166 467 l 1
 332 467 l 1
 332 134 l 1
 166 134 l 1
332.5 134 m 1
 332.5 133.5 l 1
 333 133.5 l 1
 499 133.5 l 1
 499.5 133.5 l 1
 499.5 134 l 1
 499.5 467 l 1
 499.5 467.5 l 1
 499 467.5 l 1
 333 467.5 l 1
 332.5 467.5 l 1
 332.5 467 l 1
 332.5 134 l 1
333.5 134.5 m 1
 333.5 466.5 l 1
 498.5 466.5 l 1
 498.5 134.5 l 1
 333.5 134.5 l 1
333 134 m 1
 333 467 l 1
 499 467 l 1
 499 134 l 1
 333 134 l 1
-0.5 -199 m 1
 -0.5 -199.5 l 1
 0 -199.5 l 1
 166 -199.5 l 1
 166.5 -199.5 l 1
 166.5 -199 l 1
 166.5 134 l 1
 166.5 134.5 l 1
 166 134.5 l 1
 0 134.5 l 1
 -0.5 134.5 l 1
 -0.5 134 l 1
 -0.5 -199 l 1
0.5 -198.5 m 1
 0.5 133.5 l 1
 165.5 133.5 l 1
 165.5 -198.5 l 1
 0.5 -198.5 l 1
0 -199 m 1
 0 134 l 1
 166 134 l 1
 166 -199 l 1
 0 -199 l 1
165.5 -199 m 1
 165.5 -199.5 l 1
 166 -199.5 l 1
 332 -199.5 l 1
 332.5 -199.5 l 1
 332.5 -199 l 1
 332.5 134 l 1
 332.5 134.5 l 1
 332 134.5 l 1
 166 134.5 l 1
 165.5 134.5 l 1
 165.5 134 l 1
 165.5 -199 l 1
166.5 -198.5 m 1
 166.5 133.5 l 1
 331.5 133.5 l 1
 331.5 -198.5 l 1
 166.5 -198.5 l 1
166 -199 m 1
 166 134 l 1
 332 134 l 1
 332 -199 l 1
 166 -199 l 1
EndSplineSet
EndChar

StartChar: glyph94
Encoding: 350 1097823 94
Width: 0
VWidth: 0
Flags: H
LayerCount: 2
Fore
SplineSet
332.5 467 m 1
 332.5 466.5 l 1
 333 466.5 l 1
 499 466.5 l 1
 499.5 466.5 l 1
 499.5 467 l 1
 499.5 800 l 1
 499.5 800.5 l 1
 499 800.5 l 1
 333 800.5 l 1
 332.5 800.5 l 1
 332.5 800 l 1
 332.5 467 l 1
333.5 467.5 m 1
 333.5 799.5 l 1
 498.5 799.5 l 1
 498.5 467.5 l 1
 333.5 467.5 l 1
333 467 m 1
 333 800 l 1
 499 800 l 1
 499 467 l 1
 333 467 l 1
165.5 134 m 1
 165.5 133.5 l 1
 166 133.5 l 1
 332 133.5 l 1
 332.5 133.5 l 1
 332.5 134 l 1
 332.5 467 l 1
 332.5 467.5 l 1
 332 467.5 l 1
 166 467.5 l 1
 165.5 467.5 l 1
 165.5 467 l 1
 165.5 134 l 1
166.5 134.5 m 1
 166.5 466.5 l 1
 331.5 466.5 l 1
 331.5 134.5 l 1
 166.5 134.5 l 1
166 134 m 1
 166 467 l 1
 332 467 l 1
 332 134 l 1
 166 134 l 1
332.5 134 m 1
 332.5 133.5 l 1
 333 133.5 l 1
 499 133.5 l 1
 499.5 133.5 l 1
 499.5 134 l 1
 499.5 467 l 1
 499.5 467.5 l 1
 499 467.5 l 1
 333 467.5 l 1
 332.5 467.5 l 1
 332.5 467 l 1
 332.5 134 l 1
333.5 134.5 m 1
 333.5 466.5 l 1
 498.5 466.5 l 1
 498.5 134.5 l 1
 333.5 134.5 l 1
333 134 m 1
 333 467 l 1
 499 467 l 1
 499 134 l 1
 333 134 l 1
-0.5 -199 m 1
 -0.5 -199.5 l 1
 0 -199.5 l 1
 166 -199.5 l 1
 166.5 -199.5 l 1
 166.5 -199 l 1
 166.5 134 l 1
 166.5 134.5 l 1
 166 134.5 l 1
 0 134.5 l 1
 -0.5 134.5 l 1
 -0.5 134 l 1
 -0.5 -199 l 1
0.5 -198.5 m 1
 0.5 133.5 l 1
 165.5 133.5 l 1
 165.5 -198.5 l 1
 0.5 -198.5 l 1
0 -199 m 1
 0 134 l 1
 166 134 l 1
 166 -199 l 1
 0 -199 l 1
165.5 -199 m 1
 165.5 -199.5 l 1
 166 -199.5 l 1
 332 -199.5 l 1
 332.5 -199.5 l 1
 332.5 -199 l 1
 332.5 134 l 1
 332.5 134.5 l 1
 332 134.5 l 1
 166 134.5 l 1
 165.5 134.5 l 1
 165.5 134 l 1
 165.5 -199 l 1
166.5 -198.5 m 1
 166.5 133.5 l 1
 331.5 133.5 l 1
 331.5 -198.5 l 1
 166.5 -198.5 l 1
166 -199 m 1
 166 134 l 1
 332 134 l 1
 332 -199 l 1
 166 -199 l 1
332.5 -199 m 1
 332.5 -199.5 l 1
 333 -199.5 l 1
 499 -199.5 l 1
 499.5 -199.5 l 1
 499.5 -199 l 1
 499.5 134 l 1
 499.5 134.5 l 1
 499 134.5 l 1
 333 134.5 l 1
 332.5 134.5 l 1
 332.5 134 l 1
 332.5 -199 l 1
333.5 -198.5 m 1
 333.5 133.5 l 1
 498.5 133.5 l 1
 498.5 -198.5 l 1
 333.5 -198.5 l 1
333 -199 m 1
 333 134 l 1
 499 134 l 1
 499 -199 l 1
 333 -199 l 1
EndSplineSet
EndChar

StartChar: glyph95
Encoding: 351 1097824 95
Width: 0
VWidth: 0
Flags: H
LayerCount: 2
Fore
SplineSet
332.5 467 m 1
 332.5 466.5 l 1
 333 466.5 l 1
 499 466.5 l 1
 499.5 466.5 l 1
 499.5 467 l 1
 499.5 800 l 1
 499.5 800.5 l 1
 499 800.5 l 1
 333 800.5 l 1
 332.5 800.5 l 1
 332.5 800 l 1
 332.5 467 l 1
333.5 467.5 m 1
 333.5 799.5 l 1
 498.5 799.5 l 1
 498.5 467.5 l 1
 333.5 467.5 l 1
333 467 m 1
 333 800 l 1
 499 800 l 1
 499 467 l 1
 333 467 l 1
-0.5 134 m 1
 -0.5 133.5 l 1
 0 133.5 l 1
 166 133.5 l 1
 166.5 133.5 l 1
 166.5 134 l 1
 166.5 467 l 1
 166.5 467.5 l 1
 166 467.5 l 1
 0 467.5 l 1
 -0.5 467.5 l 1
 -0.5 467 l 1
 -0.5 134 l 1
0.5 134.5 m 1
 0.5 466.5 l 1
 165.5 466.5 l 1
 165.5 134.5 l 1
 0.5 134.5 l 1
0 134 m 1
 0 467 l 1
 166 467 l 1
 166 134 l 1
 0 134 l 1
EndSplineSet
EndChar

StartChar: glyph96
Encoding: 352 1097825 96
Width: 0
VWidth: 0
Flags: H
LayerCount: 2
Fore
SplineSet
332.5 467 m 1
 332.5 466.5 l 1
 333 466.5 l 1
 499 466.5 l 1
 499.5 466.5 l 1
 499.5 467 l 1
 499.5 800 l 1
 499.5 800.5 l 1
 499 800.5 l 1
 333 800.5 l 1
 332.5 800.5 l 1
 332.5 800 l 1
 332.5 467 l 1
333.5 467.5 m 1
 333.5 799.5 l 1
 498.5 799.5 l 1
 498.5 467.5 l 1
 333.5 467.5 l 1
333 467 m 1
 333 800 l 1
 499 800 l 1
 499 467 l 1
 333 467 l 1
-0.5 134 m 1
 -0.5 133.5 l 1
 0 133.5 l 1
 166 133.5 l 1
 166.5 133.5 l 1
 166.5 134 l 1
 166.5 467 l 1
 166.5 467.5 l 1
 166 467.5 l 1
 0 467.5 l 1
 -0.5 467.5 l 1
 -0.5 467 l 1
 -0.5 134 l 1
0.5 134.5 m 1
 0.5 466.5 l 1
 165.5 466.5 l 1
 165.5 134.5 l 1
 0.5 134.5 l 1
0 134 m 1
 0 467 l 1
 166 467 l 1
 166 134 l 1
 0 134 l 1
332.5 -199 m 1
 332.5 -199.5 l 1
 333 -199.5 l 1
 499 -199.5 l 1
 499.5 -199.5 l 1
 499.5 -199 l 1
 499.5 134 l 1
 499.5 134.5 l 1
 499 134.5 l 1
 333 134.5 l 1
 332.5 134.5 l 1
 332.5 134 l 1
 332.5 -199 l 1
333.5 -198.5 m 1
 333.5 133.5 l 1
 498.5 133.5 l 1
 498.5 -198.5 l 1
 333.5 -198.5 l 1
333 -199 m 1
 333 134 l 1
 499 134 l 1
 499 -199 l 1
 333 -199 l 1
EndSplineSet
EndChar

StartChar: glyph97
Encoding: 353 1097826 97
Width: 0
VWidth: 0
Flags: H
LayerCount: 2
Fore
SplineSet
332.5 467 m 1
 332.5 466.5 l 1
 333 466.5 l 1
 499 466.5 l 1
 499.5 466.5 l 1
 499.5 467 l 1
 499.5 800 l 1
 499.5 800.5 l 1
 499 800.5 l 1
 333 800.5 l 1
 332.5 800.5 l 1
 332.5 800 l 1
 332.5 467 l 1
333.5 467.5 m 1
 333.5 799.5 l 1
 498.5 799.5 l 1
 498.5 467.5 l 1
 333.5 467.5 l 1
333 467 m 1
 333 800 l 1
 499 800 l 1
 499 467 l 1
 333 467 l 1
-0.5 134 m 1
 -0.5 133.5 l 1
 0 133.5 l 1
 166 133.5 l 1
 166.5 133.5 l 1
 166.5 134 l 1
 166.5 467 l 1
 166.5 467.5 l 1
 166 467.5 l 1
 0 467.5 l 1
 -0.5 467.5 l 1
 -0.5 467 l 1
 -0.5 134 l 1
0.5 134.5 m 1
 0.5 466.5 l 1
 165.5 466.5 l 1
 165.5 134.5 l 1
 0.5 134.5 l 1
0 134 m 1
 0 467 l 1
 166 467 l 1
 166 134 l 1
 0 134 l 1
165.5 -199 m 1
 165.5 -199.5 l 1
 166 -199.5 l 1
 332 -199.5 l 1
 332.5 -199.5 l 1
 332.5 -199 l 1
 332.5 134 l 1
 332.5 134.5 l 1
 332 134.5 l 1
 166 134.5 l 1
 165.5 134.5 l 1
 165.5 134 l 1
 165.5 -199 l 1
166.5 -198.5 m 1
 166.5 133.5 l 1
 331.5 133.5 l 1
 331.5 -198.5 l 1
 166.5 -198.5 l 1
166 -199 m 1
 166 134 l 1
 332 134 l 1
 332 -199 l 1
 166 -199 l 1
EndSplineSet
EndChar

StartChar: glyph98
Encoding: 354 1097827 98
Width: 0
VWidth: 0
Flags: H
LayerCount: 2
Fore
SplineSet
332.5 467 m 1
 332.5 466.5 l 1
 333 466.5 l 1
 499 466.5 l 1
 499.5 466.5 l 1
 499.5 467 l 1
 499.5 800 l 1
 499.5 800.5 l 1
 499 800.5 l 1
 333 800.5 l 1
 332.5 800.5 l 1
 332.5 800 l 1
 332.5 467 l 1
333.5 467.5 m 1
 333.5 799.5 l 1
 498.5 799.5 l 1
 498.5 467.5 l 1
 333.5 467.5 l 1
333 467 m 1
 333 800 l 1
 499 800 l 1
 499 467 l 1
 333 467 l 1
-0.5 134 m 1
 -0.5 133.5 l 1
 0 133.5 l 1
 166 133.5 l 1
 166.5 133.5 l 1
 166.5 134 l 1
 166.5 467 l 1
 166.5 467.5 l 1
 166 467.5 l 1
 0 467.5 l 1
 -0.5 467.5 l 1
 -0.5 467 l 1
 -0.5 134 l 1
0.5 134.5 m 1
 0.5 466.5 l 1
 165.5 466.5 l 1
 165.5 134.5 l 1
 0.5 134.5 l 1
0 134 m 1
 0 467 l 1
 166 467 l 1
 166 134 l 1
 0 134 l 1
165.5 -199 m 1
 165.5 -199.5 l 1
 166 -199.5 l 1
 332 -199.5 l 1
 332.5 -199.5 l 1
 332.5 -199 l 1
 332.5 134 l 1
 332.5 134.5 l 1
 332 134.5 l 1
 166 134.5 l 1
 165.5 134.5 l 1
 165.5 134 l 1
 165.5 -199 l 1
166.5 -198.5 m 1
 166.5 133.5 l 1
 331.5 133.5 l 1
 331.5 -198.5 l 1
 166.5 -198.5 l 1
166 -199 m 1
 166 134 l 1
 332 134 l 1
 332 -199 l 1
 166 -199 l 1
332.5 -199 m 1
 332.5 -199.5 l 1
 333 -199.5 l 1
 499 -199.5 l 1
 499.5 -199.5 l 1
 499.5 -199 l 1
 499.5 134 l 1
 499.5 134.5 l 1
 499 134.5 l 1
 333 134.5 l 1
 332.5 134.5 l 1
 332.5 134 l 1
 332.5 -199 l 1
333.5 -198.5 m 1
 333.5 133.5 l 1
 498.5 133.5 l 1
 498.5 -198.5 l 1
 333.5 -198.5 l 1
333 -199 m 1
 333 134 l 1
 499 134 l 1
 499 -199 l 1
 333 -199 l 1
EndSplineSet
EndChar

StartChar: glyph99
Encoding: 355 1097828 99
Width: 0
VWidth: 0
Flags: H
LayerCount: 2
Fore
SplineSet
332.5 467 m 1
 332.5 466.5 l 1
 333 466.5 l 1
 499 466.5 l 1
 499.5 466.5 l 1
 499.5 467 l 1
 499.5 800 l 1
 499.5 800.5 l 1
 499 800.5 l 1
 333 800.5 l 1
 332.5 800.5 l 1
 332.5 800 l 1
 332.5 467 l 1
333.5 467.5 m 1
 333.5 799.5 l 1
 498.5 799.5 l 1
 498.5 467.5 l 1
 333.5 467.5 l 1
333 467 m 1
 333 800 l 1
 499 800 l 1
 499 467 l 1
 333 467 l 1
-0.5 134 m 1
 -0.5 133.5 l 1
 0 133.5 l 1
 166 133.5 l 1
 166.5 133.5 l 1
 166.5 134 l 1
 166.5 467 l 1
 166.5 467.5 l 1
 166 467.5 l 1
 0 467.5 l 1
 -0.5 467.5 l 1
 -0.5 467 l 1
 -0.5 134 l 1
0.5 134.5 m 1
 0.5 466.5 l 1
 165.5 466.5 l 1
 165.5 134.5 l 1
 0.5 134.5 l 1
0 134 m 1
 0 467 l 1
 166 467 l 1
 166 134 l 1
 0 134 l 1
-0.5 -199 m 1
 -0.5 -199.5 l 1
 0 -199.5 l 1
 166 -199.5 l 1
 166.5 -199.5 l 1
 166.5 -199 l 1
 166.5 134 l 1
 166.5 134.5 l 1
 166 134.5 l 1
 0 134.5 l 1
 -0.5 134.5 l 1
 -0.5 134 l 1
 -0.5 -199 l 1
0.5 -198.5 m 1
 0.5 133.5 l 1
 165.5 133.5 l 1
 165.5 -198.5 l 1
 0.5 -198.5 l 1
0 -199 m 1
 0 134 l 1
 166 134 l 1
 166 -199 l 1
 0 -199 l 1
EndSplineSet
EndChar

StartChar: glyph100
Encoding: 356 1097829 100
Width: 0
VWidth: 0
Flags: H
LayerCount: 2
Fore
SplineSet
332.5 467 m 1
 332.5 466.5 l 1
 333 466.5 l 1
 499 466.5 l 1
 499.5 466.5 l 1
 499.5 467 l 1
 499.5 800 l 1
 499.5 800.5 l 1
 499 800.5 l 1
 333 800.5 l 1
 332.5 800.5 l 1
 332.5 800 l 1
 332.5 467 l 1
333.5 467.5 m 1
 333.5 799.5 l 1
 498.5 799.5 l 1
 498.5 467.5 l 1
 333.5 467.5 l 1
333 467 m 1
 333 800 l 1
 499 800 l 1
 499 467 l 1
 333 467 l 1
-0.5 134 m 1
 -0.5 133.5 l 1
 0 133.5 l 1
 166 133.5 l 1
 166.5 133.5 l 1
 166.5 134 l 1
 166.5 467 l 1
 166.5 467.5 l 1
 166 467.5 l 1
 0 467.5 l 1
 -0.5 467.5 l 1
 -0.5 467 l 1
 -0.5 134 l 1
0.5 134.5 m 1
 0.5 466.5 l 1
 165.5 466.5 l 1
 165.5 134.5 l 1
 0.5 134.5 l 1
0 134 m 1
 0 467 l 1
 166 467 l 1
 166 134 l 1
 0 134 l 1
-0.5 -199 m 1
 -0.5 -199.5 l 1
 0 -199.5 l 1
 166 -199.5 l 1
 166.5 -199.5 l 1
 166.5 -199 l 1
 166.5 134 l 1
 166.5 134.5 l 1
 166 134.5 l 1
 0 134.5 l 1
 -0.5 134.5 l 1
 -0.5 134 l 1
 -0.5 -199 l 1
0.5 -198.5 m 1
 0.5 133.5 l 1
 165.5 133.5 l 1
 165.5 -198.5 l 1
 0.5 -198.5 l 1
0 -199 m 1
 0 134 l 1
 166 134 l 1
 166 -199 l 1
 0 -199 l 1
332.5 -199 m 1
 332.5 -199.5 l 1
 333 -199.5 l 1
 499 -199.5 l 1
 499.5 -199.5 l 1
 499.5 -199 l 1
 499.5 134 l 1
 499.5 134.5 l 1
 499 134.5 l 1
 333 134.5 l 1
 332.5 134.5 l 1
 332.5 134 l 1
 332.5 -199 l 1
333.5 -198.5 m 1
 333.5 133.5 l 1
 498.5 133.5 l 1
 498.5 -198.5 l 1
 333.5 -198.5 l 1
333 -199 m 1
 333 134 l 1
 499 134 l 1
 499 -199 l 1
 333 -199 l 1
EndSplineSet
EndChar

StartChar: glyph101
Encoding: 357 1097830 101
Width: 0
VWidth: 0
Flags: H
LayerCount: 2
Fore
SplineSet
332.5 467 m 1
 332.5 466.5 l 1
 333 466.5 l 1
 499 466.5 l 1
 499.5 466.5 l 1
 499.5 467 l 1
 499.5 800 l 1
 499.5 800.5 l 1
 499 800.5 l 1
 333 800.5 l 1
 332.5 800.5 l 1
 332.5 800 l 1
 332.5 467 l 1
333.5 467.5 m 1
 333.5 799.5 l 1
 498.5 799.5 l 1
 498.5 467.5 l 1
 333.5 467.5 l 1
333 467 m 1
 333 800 l 1
 499 800 l 1
 499 467 l 1
 333 467 l 1
-0.5 134 m 1
 -0.5 133.5 l 1
 0 133.5 l 1
 166 133.5 l 1
 166.5 133.5 l 1
 166.5 134 l 1
 166.5 467 l 1
 166.5 467.5 l 1
 166 467.5 l 1
 0 467.5 l 1
 -0.5 467.5 l 1
 -0.5 467 l 1
 -0.5 134 l 1
0.5 134.5 m 1
 0.5 466.5 l 1
 165.5 466.5 l 1
 165.5 134.5 l 1
 0.5 134.5 l 1
0 134 m 1
 0 467 l 1
 166 467 l 1
 166 134 l 1
 0 134 l 1
-0.5 -199 m 1
 -0.5 -199.5 l 1
 0 -199.5 l 1
 166 -199.5 l 1
 166.5 -199.5 l 1
 166.5 -199 l 1
 166.5 134 l 1
 166.5 134.5 l 1
 166 134.5 l 1
 0 134.5 l 1
 -0.5 134.5 l 1
 -0.5 134 l 1
 -0.5 -199 l 1
0.5 -198.5 m 1
 0.5 133.5 l 1
 165.5 133.5 l 1
 165.5 -198.5 l 1
 0.5 -198.5 l 1
0 -199 m 1
 0 134 l 1
 166 134 l 1
 166 -199 l 1
 0 -199 l 1
165.5 -199 m 1
 165.5 -199.5 l 1
 166 -199.5 l 1
 332 -199.5 l 1
 332.5 -199.5 l 1
 332.5 -199 l 1
 332.5 134 l 1
 332.5 134.5 l 1
 332 134.5 l 1
 166 134.5 l 1
 165.5 134.5 l 1
 165.5 134 l 1
 165.5 -199 l 1
166.5 -198.5 m 1
 166.5 133.5 l 1
 331.5 133.5 l 1
 331.5 -198.5 l 1
 166.5 -198.5 l 1
166 -199 m 1
 166 134 l 1
 332 134 l 1
 332 -199 l 1
 166 -199 l 1
EndSplineSet
EndChar

StartChar: glyph102
Encoding: 358 1097831 102
Width: 0
VWidth: 0
Flags: H
LayerCount: 2
Fore
SplineSet
332.5 467 m 1
 332.5 466.5 l 1
 333 466.5 l 1
 499 466.5 l 1
 499.5 466.5 l 1
 499.5 467 l 1
 499.5 800 l 1
 499.5 800.5 l 1
 499 800.5 l 1
 333 800.5 l 1
 332.5 800.5 l 1
 332.5 800 l 1
 332.5 467 l 1
333.5 467.5 m 1
 333.5 799.5 l 1
 498.5 799.5 l 1
 498.5 467.5 l 1
 333.5 467.5 l 1
333 467 m 1
 333 800 l 1
 499 800 l 1
 499 467 l 1
 333 467 l 1
-0.5 134 m 1
 -0.5 133.5 l 1
 0 133.5 l 1
 166 133.5 l 1
 166.5 133.5 l 1
 166.5 134 l 1
 166.5 467 l 1
 166.5 467.5 l 1
 166 467.5 l 1
 0 467.5 l 1
 -0.5 467.5 l 1
 -0.5 467 l 1
 -0.5 134 l 1
0.5 134.5 m 1
 0.5 466.5 l 1
 165.5 466.5 l 1
 165.5 134.5 l 1
 0.5 134.5 l 1
0 134 m 1
 0 467 l 1
 166 467 l 1
 166 134 l 1
 0 134 l 1
-0.5 -199 m 1
 -0.5 -199.5 l 1
 0 -199.5 l 1
 166 -199.5 l 1
 166.5 -199.5 l 1
 166.5 -199 l 1
 166.5 134 l 1
 166.5 134.5 l 1
 166 134.5 l 1
 0 134.5 l 1
 -0.5 134.5 l 1
 -0.5 134 l 1
 -0.5 -199 l 1
0.5 -198.5 m 1
 0.5 133.5 l 1
 165.5 133.5 l 1
 165.5 -198.5 l 1
 0.5 -198.5 l 1
0 -199 m 1
 0 134 l 1
 166 134 l 1
 166 -199 l 1
 0 -199 l 1
165.5 -199 m 1
 165.5 -199.5 l 1
 166 -199.5 l 1
 332 -199.5 l 1
 332.5 -199.5 l 1
 332.5 -199 l 1
 332.5 134 l 1
 332.5 134.5 l 1
 332 134.5 l 1
 166 134.5 l 1
 165.5 134.5 l 1
 165.5 134 l 1
 165.5 -199 l 1
166.5 -198.5 m 1
 166.5 133.5 l 1
 331.5 133.5 l 1
 331.5 -198.5 l 1
 166.5 -198.5 l 1
166 -199 m 1
 166 134 l 1
 332 134 l 1
 332 -199 l 1
 166 -199 l 1
332.5 -199 m 1
 332.5 -199.5 l 1
 333 -199.5 l 1
 499 -199.5 l 1
 499.5 -199.5 l 1
 499.5 -199 l 1
 499.5 134 l 1
 499.5 134.5 l 1
 499 134.5 l 1
 333 134.5 l 1
 332.5 134.5 l 1
 332.5 134 l 1
 332.5 -199 l 1
333.5 -198.5 m 1
 333.5 133.5 l 1
 498.5 133.5 l 1
 498.5 -198.5 l 1
 333.5 -198.5 l 1
333 -199 m 1
 333 134 l 1
 499 134 l 1
 499 -199 l 1
 333 -199 l 1
EndSplineSet
EndChar

StartChar: glyph103
Encoding: 359 1097832 103
Width: 0
VWidth: 0
Flags: H
LayerCount: 2
Fore
SplineSet
332.5 467 m 1
 332.5 466.5 l 1
 333 466.5 l 1
 499 466.5 l 1
 499.5 466.5 l 1
 499.5 467 l 1
 499.5 800 l 1
 499.5 800.5 l 1
 499 800.5 l 1
 333 800.5 l 1
 332.5 800.5 l 1
 332.5 800 l 1
 332.5 467 l 1
333.5 467.5 m 1
 333.5 799.5 l 1
 498.5 799.5 l 1
 498.5 467.5 l 1
 333.5 467.5 l 1
333 467 m 1
 333 800 l 1
 499 800 l 1
 499 467 l 1
 333 467 l 1
-0.5 134 m 1
 -0.5 133.5 l 1
 0 133.5 l 1
 166 133.5 l 1
 166.5 133.5 l 1
 166.5 134 l 1
 166.5 467 l 1
 166.5 467.5 l 1
 166 467.5 l 1
 0 467.5 l 1
 -0.5 467.5 l 1
 -0.5 467 l 1
 -0.5 134 l 1
0.5 134.5 m 1
 0.5 466.5 l 1
 165.5 466.5 l 1
 165.5 134.5 l 1
 0.5 134.5 l 1
0 134 m 1
 0 467 l 1
 166 467 l 1
 166 134 l 1
 0 134 l 1
332.5 134 m 1
 332.5 133.5 l 1
 333 133.5 l 1
 499 133.5 l 1
 499.5 133.5 l 1
 499.5 134 l 1
 499.5 467 l 1
 499.5 467.5 l 1
 499 467.5 l 1
 333 467.5 l 1
 332.5 467.5 l 1
 332.5 467 l 1
 332.5 134 l 1
333.5 134.5 m 1
 333.5 466.5 l 1
 498.5 466.5 l 1
 498.5 134.5 l 1
 333.5 134.5 l 1
333 134 m 1
 333 467 l 1
 499 467 l 1
 499 134 l 1
 333 134 l 1
EndSplineSet
EndChar

StartChar: glyph104
Encoding: 360 1097833 104
Width: 0
VWidth: 0
Flags: H
LayerCount: 2
Fore
SplineSet
332.5 467 m 1
 332.5 466.5 l 1
 333 466.5 l 1
 499 466.5 l 1
 499.5 466.5 l 1
 499.5 467 l 1
 499.5 800 l 1
 499.5 800.5 l 1
 499 800.5 l 1
 333 800.5 l 1
 332.5 800.5 l 1
 332.5 800 l 1
 332.5 467 l 1
333.5 467.5 m 1
 333.5 799.5 l 1
 498.5 799.5 l 1
 498.5 467.5 l 1
 333.5 467.5 l 1
333 467 m 1
 333 800 l 1
 499 800 l 1
 499 467 l 1
 333 467 l 1
-0.5 134 m 1
 -0.5 133.5 l 1
 0 133.5 l 1
 166 133.5 l 1
 166.5 133.5 l 1
 166.5 134 l 1
 166.5 467 l 1
 166.5 467.5 l 1
 166 467.5 l 1
 0 467.5 l 1
 -0.5 467.5 l 1
 -0.5 467 l 1
 -0.5 134 l 1
0.5 134.5 m 1
 0.5 466.5 l 1
 165.5 466.5 l 1
 165.5 134.5 l 1
 0.5 134.5 l 1
0 134 m 1
 0 467 l 1
 166 467 l 1
 166 134 l 1
 0 134 l 1
332.5 134 m 1
 332.5 133.5 l 1
 333 133.5 l 1
 499 133.5 l 1
 499.5 133.5 l 1
 499.5 134 l 1
 499.5 467 l 1
 499.5 467.5 l 1
 499 467.5 l 1
 333 467.5 l 1
 332.5 467.5 l 1
 332.5 467 l 1
 332.5 134 l 1
333.5 134.5 m 1
 333.5 466.5 l 1
 498.5 466.5 l 1
 498.5 134.5 l 1
 333.5 134.5 l 1
333 134 m 1
 333 467 l 1
 499 467 l 1
 499 134 l 1
 333 134 l 1
332.5 -199 m 1
 332.5 -199.5 l 1
 333 -199.5 l 1
 499 -199.5 l 1
 499.5 -199.5 l 1
 499.5 -199 l 1
 499.5 134 l 1
 499.5 134.5 l 1
 499 134.5 l 1
 333 134.5 l 1
 332.5 134.5 l 1
 332.5 134 l 1
 332.5 -199 l 1
333.5 -198.5 m 1
 333.5 133.5 l 1
 498.5 133.5 l 1
 498.5 -198.5 l 1
 333.5 -198.5 l 1
333 -199 m 1
 333 134 l 1
 499 134 l 1
 499 -199 l 1
 333 -199 l 1
EndSplineSet
EndChar

StartChar: glyph105
Encoding: 361 1097834 105
Width: 0
VWidth: 0
Flags: H
LayerCount: 2
Fore
SplineSet
332.5 467 m 1
 332.5 466.5 l 1
 333 466.5 l 1
 499 466.5 l 1
 499.5 466.5 l 1
 499.5 467 l 1
 499.5 800 l 1
 499.5 800.5 l 1
 499 800.5 l 1
 333 800.5 l 1
 332.5 800.5 l 1
 332.5 800 l 1
 332.5 467 l 1
333.5 467.5 m 1
 333.5 799.5 l 1
 498.5 799.5 l 1
 498.5 467.5 l 1
 333.5 467.5 l 1
333 467 m 1
 333 800 l 1
 499 800 l 1
 499 467 l 1
 333 467 l 1
-0.5 134 m 1
 -0.5 133.5 l 1
 0 133.5 l 1
 166 133.5 l 1
 166.5 133.5 l 1
 166.5 134 l 1
 166.5 467 l 1
 166.5 467.5 l 1
 166 467.5 l 1
 0 467.5 l 1
 -0.5 467.5 l 1
 -0.5 467 l 1
 -0.5 134 l 1
0.5 134.5 m 1
 0.5 466.5 l 1
 165.5 466.5 l 1
 165.5 134.5 l 1
 0.5 134.5 l 1
0 134 m 1
 0 467 l 1
 166 467 l 1
 166 134 l 1
 0 134 l 1
332.5 134 m 1
 332.5 133.5 l 1
 333 133.5 l 1
 499 133.5 l 1
 499.5 133.5 l 1
 499.5 134 l 1
 499.5 467 l 1
 499.5 467.5 l 1
 499 467.5 l 1
 333 467.5 l 1
 332.5 467.5 l 1
 332.5 467 l 1
 332.5 134 l 1
333.5 134.5 m 1
 333.5 466.5 l 1
 498.5 466.5 l 1
 498.5 134.5 l 1
 333.5 134.5 l 1
333 134 m 1
 333 467 l 1
 499 467 l 1
 499 134 l 1
 333 134 l 1
165.5 -199 m 1
 165.5 -199.5 l 1
 166 -199.5 l 1
 332 -199.5 l 1
 332.5 -199.5 l 1
 332.5 -199 l 1
 332.5 134 l 1
 332.5 134.5 l 1
 332 134.5 l 1
 166 134.5 l 1
 165.5 134.5 l 1
 165.5 134 l 1
 165.5 -199 l 1
166.5 -198.5 m 1
 166.5 133.5 l 1
 331.5 133.5 l 1
 331.5 -198.5 l 1
 166.5 -198.5 l 1
166 -199 m 1
 166 134 l 1
 332 134 l 1
 332 -199 l 1
 166 -199 l 1
EndSplineSet
EndChar

StartChar: glyph106
Encoding: 362 1097835 106
Width: 0
VWidth: 0
Flags: H
LayerCount: 2
Fore
SplineSet
332.5 467 m 1
 332.5 466.5 l 1
 333 466.5 l 1
 499 466.5 l 1
 499.5 466.5 l 1
 499.5 467 l 1
 499.5 800 l 1
 499.5 800.5 l 1
 499 800.5 l 1
 333 800.5 l 1
 332.5 800.5 l 1
 332.5 800 l 1
 332.5 467 l 1
333.5 467.5 m 1
 333.5 799.5 l 1
 498.5 799.5 l 1
 498.5 467.5 l 1
 333.5 467.5 l 1
333 467 m 1
 333 800 l 1
 499 800 l 1
 499 467 l 1
 333 467 l 1
-0.5 134 m 1
 -0.5 133.5 l 1
 0 133.5 l 1
 166 133.5 l 1
 166.5 133.5 l 1
 166.5 134 l 1
 166.5 467 l 1
 166.5 467.5 l 1
 166 467.5 l 1
 0 467.5 l 1
 -0.5 467.5 l 1
 -0.5 467 l 1
 -0.5 134 l 1
0.5 134.5 m 1
 0.5 466.5 l 1
 165.5 466.5 l 1
 165.5 134.5 l 1
 0.5 134.5 l 1
0 134 m 1
 0 467 l 1
 166 467 l 1
 166 134 l 1
 0 134 l 1
332.5 134 m 1
 332.5 133.5 l 1
 333 133.5 l 1
 499 133.5 l 1
 499.5 133.5 l 1
 499.5 134 l 1
 499.5 467 l 1
 499.5 467.5 l 1
 499 467.5 l 1
 333 467.5 l 1
 332.5 467.5 l 1
 332.5 467 l 1
 332.5 134 l 1
333.5 134.5 m 1
 333.5 466.5 l 1
 498.5 466.5 l 1
 498.5 134.5 l 1
 333.5 134.5 l 1
333 134 m 1
 333 467 l 1
 499 467 l 1
 499 134 l 1
 333 134 l 1
165.5 -199 m 1
 165.5 -199.5 l 1
 166 -199.5 l 1
 332 -199.5 l 1
 332.5 -199.5 l 1
 332.5 -199 l 1
 332.5 134 l 1
 332.5 134.5 l 1
 332 134.5 l 1
 166 134.5 l 1
 165.5 134.5 l 1
 165.5 134 l 1
 165.5 -199 l 1
166.5 -198.5 m 1
 166.5 133.5 l 1
 331.5 133.5 l 1
 331.5 -198.5 l 1
 166.5 -198.5 l 1
166 -199 m 1
 166 134 l 1
 332 134 l 1
 332 -199 l 1
 166 -199 l 1
332.5 -199 m 1
 332.5 -199.5 l 1
 333 -199.5 l 1
 499 -199.5 l 1
 499.5 -199.5 l 1
 499.5 -199 l 1
 499.5 134 l 1
 499.5 134.5 l 1
 499 134.5 l 1
 333 134.5 l 1
 332.5 134.5 l 1
 332.5 134 l 1
 332.5 -199 l 1
333.5 -198.5 m 1
 333.5 133.5 l 1
 498.5 133.5 l 1
 498.5 -198.5 l 1
 333.5 -198.5 l 1
333 -199 m 1
 333 134 l 1
 499 134 l 1
 499 -199 l 1
 333 -199 l 1
EndSplineSet
EndChar

StartChar: glyph107
Encoding: 363 1097836 107
Width: 0
VWidth: 0
Flags: H
LayerCount: 2
Fore
SplineSet
332.5 467 m 1
 332.5 466.5 l 1
 333 466.5 l 1
 499 466.5 l 1
 499.5 466.5 l 1
 499.5 467 l 1
 499.5 800 l 1
 499.5 800.5 l 1
 499 800.5 l 1
 333 800.5 l 1
 332.5 800.5 l 1
 332.5 800 l 1
 332.5 467 l 1
333.5 467.5 m 1
 333.5 799.5 l 1
 498.5 799.5 l 1
 498.5 467.5 l 1
 333.5 467.5 l 1
333 467 m 1
 333 800 l 1
 499 800 l 1
 499 467 l 1
 333 467 l 1
-0.5 134 m 1
 -0.5 133.5 l 1
 0 133.5 l 1
 166 133.5 l 1
 166.5 133.5 l 1
 166.5 134 l 1
 166.5 467 l 1
 166.5 467.5 l 1
 166 467.5 l 1
 0 467.5 l 1
 -0.5 467.5 l 1
 -0.5 467 l 1
 -0.5 134 l 1
0.5 134.5 m 1
 0.5 466.5 l 1
 165.5 466.5 l 1
 165.5 134.5 l 1
 0.5 134.5 l 1
0 134 m 1
 0 467 l 1
 166 467 l 1
 166 134 l 1
 0 134 l 1
332.5 134 m 1
 332.5 133.5 l 1
 333 133.5 l 1
 499 133.5 l 1
 499.5 133.5 l 1
 499.5 134 l 1
 499.5 467 l 1
 499.5 467.5 l 1
 499 467.5 l 1
 333 467.5 l 1
 332.5 467.5 l 1
 332.5 467 l 1
 332.5 134 l 1
333.5 134.5 m 1
 333.5 466.5 l 1
 498.5 466.5 l 1
 498.5 134.5 l 1
 333.5 134.5 l 1
333 134 m 1
 333 467 l 1
 499 467 l 1
 499 134 l 1
 333 134 l 1
-0.5 -199 m 1
 -0.5 -199.5 l 1
 0 -199.5 l 1
 166 -199.5 l 1
 166.5 -199.5 l 1
 166.5 -199 l 1
 166.5 134 l 1
 166.5 134.5 l 1
 166 134.5 l 1
 0 134.5 l 1
 -0.5 134.5 l 1
 -0.5 134 l 1
 -0.5 -199 l 1
0.5 -198.5 m 1
 0.5 133.5 l 1
 165.5 133.5 l 1
 165.5 -198.5 l 1
 0.5 -198.5 l 1
0 -199 m 1
 0 134 l 1
 166 134 l 1
 166 -199 l 1
 0 -199 l 1
EndSplineSet
EndChar

StartChar: glyph108
Encoding: 364 1097837 108
Width: 0
VWidth: 0
Flags: H
LayerCount: 2
Fore
SplineSet
332.5 467 m 1
 332.5 466.5 l 1
 333 466.5 l 1
 499 466.5 l 1
 499.5 466.5 l 1
 499.5 467 l 1
 499.5 800 l 1
 499.5 800.5 l 1
 499 800.5 l 1
 333 800.5 l 1
 332.5 800.5 l 1
 332.5 800 l 1
 332.5 467 l 1
333.5 467.5 m 1
 333.5 799.5 l 1
 498.5 799.5 l 1
 498.5 467.5 l 1
 333.5 467.5 l 1
333 467 m 1
 333 800 l 1
 499 800 l 1
 499 467 l 1
 333 467 l 1
-0.5 134 m 1
 -0.5 133.5 l 1
 0 133.5 l 1
 166 133.5 l 1
 166.5 133.5 l 1
 166.5 134 l 1
 166.5 467 l 1
 166.5 467.5 l 1
 166 467.5 l 1
 0 467.5 l 1
 -0.5 467.5 l 1
 -0.5 467 l 1
 -0.5 134 l 1
0.5 134.5 m 1
 0.5 466.5 l 1
 165.5 466.5 l 1
 165.5 134.5 l 1
 0.5 134.5 l 1
0 134 m 1
 0 467 l 1
 166 467 l 1
 166 134 l 1
 0 134 l 1
332.5 134 m 1
 332.5 133.5 l 1
 333 133.5 l 1
 499 133.5 l 1
 499.5 133.5 l 1
 499.5 134 l 1
 499.5 467 l 1
 499.5 467.5 l 1
 499 467.5 l 1
 333 467.5 l 1
 332.5 467.5 l 1
 332.5 467 l 1
 332.5 134 l 1
333.5 134.5 m 1
 333.5 466.5 l 1
 498.5 466.5 l 1
 498.5 134.5 l 1
 333.5 134.5 l 1
333 134 m 1
 333 467 l 1
 499 467 l 1
 499 134 l 1
 333 134 l 1
-0.5 -199 m 1
 -0.5 -199.5 l 1
 0 -199.5 l 1
 166 -199.5 l 1
 166.5 -199.5 l 1
 166.5 -199 l 1
 166.5 134 l 1
 166.5 134.5 l 1
 166 134.5 l 1
 0 134.5 l 1
 -0.5 134.5 l 1
 -0.5 134 l 1
 -0.5 -199 l 1
0.5 -198.5 m 1
 0.5 133.5 l 1
 165.5 133.5 l 1
 165.5 -198.5 l 1
 0.5 -198.5 l 1
0 -199 m 1
 0 134 l 1
 166 134 l 1
 166 -199 l 1
 0 -199 l 1
332.5 -199 m 1
 332.5 -199.5 l 1
 333 -199.5 l 1
 499 -199.5 l 1
 499.5 -199.5 l 1
 499.5 -199 l 1
 499.5 134 l 1
 499.5 134.5 l 1
 499 134.5 l 1
 333 134.5 l 1
 332.5 134.5 l 1
 332.5 134 l 1
 332.5 -199 l 1
333.5 -198.5 m 1
 333.5 133.5 l 1
 498.5 133.5 l 1
 498.5 -198.5 l 1
 333.5 -198.5 l 1
333 -199 m 1
 333 134 l 1
 499 134 l 1
 499 -199 l 1
 333 -199 l 1
EndSplineSet
EndChar

StartChar: glyph109
Encoding: 365 1097838 109
Width: 0
VWidth: 0
Flags: H
LayerCount: 2
Fore
SplineSet
332.5 467 m 1
 332.5 466.5 l 1
 333 466.5 l 1
 499 466.5 l 1
 499.5 466.5 l 1
 499.5 467 l 1
 499.5 800 l 1
 499.5 800.5 l 1
 499 800.5 l 1
 333 800.5 l 1
 332.5 800.5 l 1
 332.5 800 l 1
 332.5 467 l 1
333.5 467.5 m 1
 333.5 799.5 l 1
 498.5 799.5 l 1
 498.5 467.5 l 1
 333.5 467.5 l 1
333 467 m 1
 333 800 l 1
 499 800 l 1
 499 467 l 1
 333 467 l 1
-0.5 134 m 1
 -0.5 133.5 l 1
 0 133.5 l 1
 166 133.5 l 1
 166.5 133.5 l 1
 166.5 134 l 1
 166.5 467 l 1
 166.5 467.5 l 1
 166 467.5 l 1
 0 467.5 l 1
 -0.5 467.5 l 1
 -0.5 467 l 1
 -0.5 134 l 1
0.5 134.5 m 1
 0.5 466.5 l 1
 165.5 466.5 l 1
 165.5 134.5 l 1
 0.5 134.5 l 1
0 134 m 1
 0 467 l 1
 166 467 l 1
 166 134 l 1
 0 134 l 1
332.5 134 m 1
 332.5 133.5 l 1
 333 133.5 l 1
 499 133.5 l 1
 499.5 133.5 l 1
 499.5 134 l 1
 499.5 467 l 1
 499.5 467.5 l 1
 499 467.5 l 1
 333 467.5 l 1
 332.5 467.5 l 1
 332.5 467 l 1
 332.5 134 l 1
333.5 134.5 m 1
 333.5 466.5 l 1
 498.5 466.5 l 1
 498.5 134.5 l 1
 333.5 134.5 l 1
333 134 m 1
 333 467 l 1
 499 467 l 1
 499 134 l 1
 333 134 l 1
-0.5 -199 m 1
 -0.5 -199.5 l 1
 0 -199.5 l 1
 166 -199.5 l 1
 166.5 -199.5 l 1
 166.5 -199 l 1
 166.5 134 l 1
 166.5 134.5 l 1
 166 134.5 l 1
 0 134.5 l 1
 -0.5 134.5 l 1
 -0.5 134 l 1
 -0.5 -199 l 1
0.5 -198.5 m 1
 0.5 133.5 l 1
 165.5 133.5 l 1
 165.5 -198.5 l 1
 0.5 -198.5 l 1
0 -199 m 1
 0 134 l 1
 166 134 l 1
 166 -199 l 1
 0 -199 l 1
165.5 -199 m 1
 165.5 -199.5 l 1
 166 -199.5 l 1
 332 -199.5 l 1
 332.5 -199.5 l 1
 332.5 -199 l 1
 332.5 134 l 1
 332.5 134.5 l 1
 332 134.5 l 1
 166 134.5 l 1
 165.5 134.5 l 1
 165.5 134 l 1
 165.5 -199 l 1
166.5 -198.5 m 1
 166.5 133.5 l 1
 331.5 133.5 l 1
 331.5 -198.5 l 1
 166.5 -198.5 l 1
166 -199 m 1
 166 134 l 1
 332 134 l 1
 332 -199 l 1
 166 -199 l 1
EndSplineSet
EndChar

StartChar: glyph110
Encoding: 366 1097839 110
Width: 0
VWidth: 0
Flags: H
LayerCount: 2
Fore
SplineSet
332.5 467 m 1
 332.5 466.5 l 1
 333 466.5 l 1
 499 466.5 l 1
 499.5 466.5 l 1
 499.5 467 l 1
 499.5 800 l 1
 499.5 800.5 l 1
 499 800.5 l 1
 333 800.5 l 1
 332.5 800.5 l 1
 332.5 800 l 1
 332.5 467 l 1
333.5 467.5 m 1
 333.5 799.5 l 1
 498.5 799.5 l 1
 498.5 467.5 l 1
 333.5 467.5 l 1
333 467 m 1
 333 800 l 1
 499 800 l 1
 499 467 l 1
 333 467 l 1
-0.5 134 m 1
 -0.5 133.5 l 1
 0 133.5 l 1
 166 133.5 l 1
 166.5 133.5 l 1
 166.5 134 l 1
 166.5 467 l 1
 166.5 467.5 l 1
 166 467.5 l 1
 0 467.5 l 1
 -0.5 467.5 l 1
 -0.5 467 l 1
 -0.5 134 l 1
0.5 134.5 m 1
 0.5 466.5 l 1
 165.5 466.5 l 1
 165.5 134.5 l 1
 0.5 134.5 l 1
0 134 m 1
 0 467 l 1
 166 467 l 1
 166 134 l 1
 0 134 l 1
332.5 134 m 1
 332.5 133.5 l 1
 333 133.5 l 1
 499 133.5 l 1
 499.5 133.5 l 1
 499.5 134 l 1
 499.5 467 l 1
 499.5 467.5 l 1
 499 467.5 l 1
 333 467.5 l 1
 332.5 467.5 l 1
 332.5 467 l 1
 332.5 134 l 1
333.5 134.5 m 1
 333.5 466.5 l 1
 498.5 466.5 l 1
 498.5 134.5 l 1
 333.5 134.5 l 1
333 134 m 1
 333 467 l 1
 499 467 l 1
 499 134 l 1
 333 134 l 1
-0.5 -199 m 1
 -0.5 -199.5 l 1
 0 -199.5 l 1
 166 -199.5 l 1
 166.5 -199.5 l 1
 166.5 -199 l 1
 166.5 134 l 1
 166.5 134.5 l 1
 166 134.5 l 1
 0 134.5 l 1
 -0.5 134.5 l 1
 -0.5 134 l 1
 -0.5 -199 l 1
0.5 -198.5 m 1
 0.5 133.5 l 1
 165.5 133.5 l 1
 165.5 -198.5 l 1
 0.5 -198.5 l 1
0 -199 m 1
 0 134 l 1
 166 134 l 1
 166 -199 l 1
 0 -199 l 1
165.5 -199 m 1
 165.5 -199.5 l 1
 166 -199.5 l 1
 332 -199.5 l 1
 332.5 -199.5 l 1
 332.5 -199 l 1
 332.5 134 l 1
 332.5 134.5 l 1
 332 134.5 l 1
 166 134.5 l 1
 165.5 134.5 l 1
 165.5 134 l 1
 165.5 -199 l 1
166.5 -198.5 m 1
 166.5 133.5 l 1
 331.5 133.5 l 1
 331.5 -198.5 l 1
 166.5 -198.5 l 1
166 -199 m 1
 166 134 l 1
 332 134 l 1
 332 -199 l 1
 166 -199 l 1
332.5 -199 m 1
 332.5 -199.5 l 1
 333 -199.5 l 1
 499 -199.5 l 1
 499.5 -199.5 l 1
 499.5 -199 l 1
 499.5 134 l 1
 499.5 134.5 l 1
 499 134.5 l 1
 333 134.5 l 1
 332.5 134.5 l 1
 332.5 134 l 1
 332.5 -199 l 1
333.5 -198.5 m 1
 333.5 133.5 l 1
 498.5 133.5 l 1
 498.5 -198.5 l 1
 333.5 -198.5 l 1
333 -199 m 1
 333 134 l 1
 499 134 l 1
 499 -199 l 1
 333 -199 l 1
EndSplineSet
EndChar

StartChar: glyph111
Encoding: 367 1097840 111
Width: 0
VWidth: 0
Flags: H
LayerCount: 2
Fore
SplineSet
332.5 467 m 1
 332.5 466.5 l 1
 333 466.5 l 1
 499 466.5 l 1
 499.5 466.5 l 1
 499.5 467 l 1
 499.5 800 l 1
 499.5 800.5 l 1
 499 800.5 l 1
 333 800.5 l 1
 332.5 800.5 l 1
 332.5 800 l 1
 332.5 467 l 1
333.5 467.5 m 1
 333.5 799.5 l 1
 498.5 799.5 l 1
 498.5 467.5 l 1
 333.5 467.5 l 1
333 467 m 1
 333 800 l 1
 499 800 l 1
 499 467 l 1
 333 467 l 1
-0.5 134 m 1
 -0.5 133.5 l 1
 0 133.5 l 1
 166 133.5 l 1
 166.5 133.5 l 1
 166.5 134 l 1
 166.5 467 l 1
 166.5 467.5 l 1
 166 467.5 l 1
 0 467.5 l 1
 -0.5 467.5 l 1
 -0.5 467 l 1
 -0.5 134 l 1
0.5 134.5 m 1
 0.5 466.5 l 1
 165.5 466.5 l 1
 165.5 134.5 l 1
 0.5 134.5 l 1
0 134 m 1
 0 467 l 1
 166 467 l 1
 166 134 l 1
 0 134 l 1
165.5 134 m 1
 165.5 133.5 l 1
 166 133.5 l 1
 332 133.5 l 1
 332.5 133.5 l 1
 332.5 134 l 1
 332.5 467 l 1
 332.5 467.5 l 1
 332 467.5 l 1
 166 467.5 l 1
 165.5 467.5 l 1
 165.5 467 l 1
 165.5 134 l 1
166.5 134.5 m 1
 166.5 466.5 l 1
 331.5 466.5 l 1
 331.5 134.5 l 1
 166.5 134.5 l 1
166 134 m 1
 166 467 l 1
 332 467 l 1
 332 134 l 1
 166 134 l 1
EndSplineSet
EndChar

StartChar: glyph112
Encoding: 368 1097841 112
Width: 0
VWidth: 0
Flags: H
LayerCount: 2
Fore
SplineSet
332.5 467 m 1
 332.5 466.5 l 1
 333 466.5 l 1
 499 466.5 l 1
 499.5 466.5 l 1
 499.5 467 l 1
 499.5 800 l 1
 499.5 800.5 l 1
 499 800.5 l 1
 333 800.5 l 1
 332.5 800.5 l 1
 332.5 800 l 1
 332.5 467 l 1
333.5 467.5 m 1
 333.5 799.5 l 1
 498.5 799.5 l 1
 498.5 467.5 l 1
 333.5 467.5 l 1
333 467 m 1
 333 800 l 1
 499 800 l 1
 499 467 l 1
 333 467 l 1
-0.5 134 m 1
 -0.5 133.5 l 1
 0 133.5 l 1
 166 133.5 l 1
 166.5 133.5 l 1
 166.5 134 l 1
 166.5 467 l 1
 166.5 467.5 l 1
 166 467.5 l 1
 0 467.5 l 1
 -0.5 467.5 l 1
 -0.5 467 l 1
 -0.5 134 l 1
0.5 134.5 m 1
 0.5 466.5 l 1
 165.5 466.5 l 1
 165.5 134.5 l 1
 0.5 134.5 l 1
0 134 m 1
 0 467 l 1
 166 467 l 1
 166 134 l 1
 0 134 l 1
165.5 134 m 1
 165.5 133.5 l 1
 166 133.5 l 1
 332 133.5 l 1
 332.5 133.5 l 1
 332.5 134 l 1
 332.5 467 l 1
 332.5 467.5 l 1
 332 467.5 l 1
 166 467.5 l 1
 165.5 467.5 l 1
 165.5 467 l 1
 165.5 134 l 1
166.5 134.5 m 1
 166.5 466.5 l 1
 331.5 466.5 l 1
 331.5 134.5 l 1
 166.5 134.5 l 1
166 134 m 1
 166 467 l 1
 332 467 l 1
 332 134 l 1
 166 134 l 1
332.5 -199 m 1
 332.5 -199.5 l 1
 333 -199.5 l 1
 499 -199.5 l 1
 499.5 -199.5 l 1
 499.5 -199 l 1
 499.5 134 l 1
 499.5 134.5 l 1
 499 134.5 l 1
 333 134.5 l 1
 332.5 134.5 l 1
 332.5 134 l 1
 332.5 -199 l 1
333.5 -198.5 m 1
 333.5 133.5 l 1
 498.5 133.5 l 1
 498.5 -198.5 l 1
 333.5 -198.5 l 1
333 -199 m 1
 333 134 l 1
 499 134 l 1
 499 -199 l 1
 333 -199 l 1
EndSplineSet
EndChar

StartChar: glyph113
Encoding: 369 1097842 113
Width: 0
VWidth: 0
Flags: H
LayerCount: 2
Fore
SplineSet
332.5 467 m 1
 332.5 466.5 l 1
 333 466.5 l 1
 499 466.5 l 1
 499.5 466.5 l 1
 499.5 467 l 1
 499.5 800 l 1
 499.5 800.5 l 1
 499 800.5 l 1
 333 800.5 l 1
 332.5 800.5 l 1
 332.5 800 l 1
 332.5 467 l 1
333.5 467.5 m 1
 333.5 799.5 l 1
 498.5 799.5 l 1
 498.5 467.5 l 1
 333.5 467.5 l 1
333 467 m 1
 333 800 l 1
 499 800 l 1
 499 467 l 1
 333 467 l 1
-0.5 134 m 1
 -0.5 133.5 l 1
 0 133.5 l 1
 166 133.5 l 1
 166.5 133.5 l 1
 166.5 134 l 1
 166.5 467 l 1
 166.5 467.5 l 1
 166 467.5 l 1
 0 467.5 l 1
 -0.5 467.5 l 1
 -0.5 467 l 1
 -0.5 134 l 1
0.5 134.5 m 1
 0.5 466.5 l 1
 165.5 466.5 l 1
 165.5 134.5 l 1
 0.5 134.5 l 1
0 134 m 1
 0 467 l 1
 166 467 l 1
 166 134 l 1
 0 134 l 1
165.5 134 m 1
 165.5 133.5 l 1
 166 133.5 l 1
 332 133.5 l 1
 332.5 133.5 l 1
 332.5 134 l 1
 332.5 467 l 1
 332.5 467.5 l 1
 332 467.5 l 1
 166 467.5 l 1
 165.5 467.5 l 1
 165.5 467 l 1
 165.5 134 l 1
166.5 134.5 m 1
 166.5 466.5 l 1
 331.5 466.5 l 1
 331.5 134.5 l 1
 166.5 134.5 l 1
166 134 m 1
 166 467 l 1
 332 467 l 1
 332 134 l 1
 166 134 l 1
165.5 -199 m 1
 165.5 -199.5 l 1
 166 -199.5 l 1
 332 -199.5 l 1
 332.5 -199.5 l 1
 332.5 -199 l 1
 332.5 134 l 1
 332.5 134.5 l 1
 332 134.5 l 1
 166 134.5 l 1
 165.5 134.5 l 1
 165.5 134 l 1
 165.5 -199 l 1
166.5 -198.5 m 1
 166.5 133.5 l 1
 331.5 133.5 l 1
 331.5 -198.5 l 1
 166.5 -198.5 l 1
166 -199 m 1
 166 134 l 1
 332 134 l 1
 332 -199 l 1
 166 -199 l 1
EndSplineSet
EndChar

StartChar: glyph114
Encoding: 370 1097843 114
Width: 0
VWidth: 0
Flags: H
LayerCount: 2
Fore
SplineSet
332.5 467 m 1
 332.5 466.5 l 1
 333 466.5 l 1
 499 466.5 l 1
 499.5 466.5 l 1
 499.5 467 l 1
 499.5 800 l 1
 499.5 800.5 l 1
 499 800.5 l 1
 333 800.5 l 1
 332.5 800.5 l 1
 332.5 800 l 1
 332.5 467 l 1
333.5 467.5 m 1
 333.5 799.5 l 1
 498.5 799.5 l 1
 498.5 467.5 l 1
 333.5 467.5 l 1
333 467 m 1
 333 800 l 1
 499 800 l 1
 499 467 l 1
 333 467 l 1
-0.5 134 m 1
 -0.5 133.5 l 1
 0 133.5 l 1
 166 133.5 l 1
 166.5 133.5 l 1
 166.5 134 l 1
 166.5 467 l 1
 166.5 467.5 l 1
 166 467.5 l 1
 0 467.5 l 1
 -0.5 467.5 l 1
 -0.5 467 l 1
 -0.5 134 l 1
0.5 134.5 m 1
 0.5 466.5 l 1
 165.5 466.5 l 1
 165.5 134.5 l 1
 0.5 134.5 l 1
0 134 m 1
 0 467 l 1
 166 467 l 1
 166 134 l 1
 0 134 l 1
165.5 134 m 1
 165.5 133.5 l 1
 166 133.5 l 1
 332 133.5 l 1
 332.5 133.5 l 1
 332.5 134 l 1
 332.5 467 l 1
 332.5 467.5 l 1
 332 467.5 l 1
 166 467.5 l 1
 165.5 467.5 l 1
 165.5 467 l 1
 165.5 134 l 1
166.5 134.5 m 1
 166.5 466.5 l 1
 331.5 466.5 l 1
 331.5 134.5 l 1
 166.5 134.5 l 1
166 134 m 1
 166 467 l 1
 332 467 l 1
 332 134 l 1
 166 134 l 1
165.5 -199 m 1
 165.5 -199.5 l 1
 166 -199.5 l 1
 332 -199.5 l 1
 332.5 -199.5 l 1
 332.5 -199 l 1
 332.5 134 l 1
 332.5 134.5 l 1
 332 134.5 l 1
 166 134.5 l 1
 165.5 134.5 l 1
 165.5 134 l 1
 165.5 -199 l 1
166.5 -198.5 m 1
 166.5 133.5 l 1
 331.5 133.5 l 1
 331.5 -198.5 l 1
 166.5 -198.5 l 1
166 -199 m 1
 166 134 l 1
 332 134 l 1
 332 -199 l 1
 166 -199 l 1
332.5 -199 m 1
 332.5 -199.5 l 1
 333 -199.5 l 1
 499 -199.5 l 1
 499.5 -199.5 l 1
 499.5 -199 l 1
 499.5 134 l 1
 499.5 134.5 l 1
 499 134.5 l 1
 333 134.5 l 1
 332.5 134.5 l 1
 332.5 134 l 1
 332.5 -199 l 1
333.5 -198.5 m 1
 333.5 133.5 l 1
 498.5 133.5 l 1
 498.5 -198.5 l 1
 333.5 -198.5 l 1
333 -199 m 1
 333 134 l 1
 499 134 l 1
 499 -199 l 1
 333 -199 l 1
EndSplineSet
EndChar

StartChar: glyph115
Encoding: 371 1097844 115
Width: 0
VWidth: 0
Flags: H
LayerCount: 2
Fore
SplineSet
332.5 467 m 1
 332.5 466.5 l 1
 333 466.5 l 1
 499 466.5 l 1
 499.5 466.5 l 1
 499.5 467 l 1
 499.5 800 l 1
 499.5 800.5 l 1
 499 800.5 l 1
 333 800.5 l 1
 332.5 800.5 l 1
 332.5 800 l 1
 332.5 467 l 1
333.5 467.5 m 1
 333.5 799.5 l 1
 498.5 799.5 l 1
 498.5 467.5 l 1
 333.5 467.5 l 1
333 467 m 1
 333 800 l 1
 499 800 l 1
 499 467 l 1
 333 467 l 1
-0.5 134 m 1
 -0.5 133.5 l 1
 0 133.5 l 1
 166 133.5 l 1
 166.5 133.5 l 1
 166.5 134 l 1
 166.5 467 l 1
 166.5 467.5 l 1
 166 467.5 l 1
 0 467.5 l 1
 -0.5 467.5 l 1
 -0.5 467 l 1
 -0.5 134 l 1
0.5 134.5 m 1
 0.5 466.5 l 1
 165.5 466.5 l 1
 165.5 134.5 l 1
 0.5 134.5 l 1
0 134 m 1
 0 467 l 1
 166 467 l 1
 166 134 l 1
 0 134 l 1
165.5 134 m 1
 165.5 133.5 l 1
 166 133.5 l 1
 332 133.5 l 1
 332.5 133.5 l 1
 332.5 134 l 1
 332.5 467 l 1
 332.5 467.5 l 1
 332 467.5 l 1
 166 467.5 l 1
 165.5 467.5 l 1
 165.5 467 l 1
 165.5 134 l 1
166.5 134.5 m 1
 166.5 466.5 l 1
 331.5 466.5 l 1
 331.5 134.5 l 1
 166.5 134.5 l 1
166 134 m 1
 166 467 l 1
 332 467 l 1
 332 134 l 1
 166 134 l 1
-0.5 -199 m 1
 -0.5 -199.5 l 1
 0 -199.5 l 1
 166 -199.5 l 1
 166.5 -199.5 l 1
 166.5 -199 l 1
 166.5 134 l 1
 166.5 134.5 l 1
 166 134.5 l 1
 0 134.5 l 1
 -0.5 134.5 l 1
 -0.5 134 l 1
 -0.5 -199 l 1
0.5 -198.5 m 1
 0.5 133.5 l 1
 165.5 133.5 l 1
 165.5 -198.5 l 1
 0.5 -198.5 l 1
0 -199 m 1
 0 134 l 1
 166 134 l 1
 166 -199 l 1
 0 -199 l 1
EndSplineSet
EndChar

StartChar: glyph116
Encoding: 372 1097845 116
Width: 0
VWidth: 0
Flags: H
LayerCount: 2
Fore
SplineSet
332.5 467 m 1
 332.5 466.5 l 1
 333 466.5 l 1
 499 466.5 l 1
 499.5 466.5 l 1
 499.5 467 l 1
 499.5 800 l 1
 499.5 800.5 l 1
 499 800.5 l 1
 333 800.5 l 1
 332.5 800.5 l 1
 332.5 800 l 1
 332.5 467 l 1
333.5 467.5 m 1
 333.5 799.5 l 1
 498.5 799.5 l 1
 498.5 467.5 l 1
 333.5 467.5 l 1
333 467 m 1
 333 800 l 1
 499 800 l 1
 499 467 l 1
 333 467 l 1
-0.5 134 m 1
 -0.5 133.5 l 1
 0 133.5 l 1
 166 133.5 l 1
 166.5 133.5 l 1
 166.5 134 l 1
 166.5 467 l 1
 166.5 467.5 l 1
 166 467.5 l 1
 0 467.5 l 1
 -0.5 467.5 l 1
 -0.5 467 l 1
 -0.5 134 l 1
0.5 134.5 m 1
 0.5 466.5 l 1
 165.5 466.5 l 1
 165.5 134.5 l 1
 0.5 134.5 l 1
0 134 m 1
 0 467 l 1
 166 467 l 1
 166 134 l 1
 0 134 l 1
165.5 134 m 1
 165.5 133.5 l 1
 166 133.5 l 1
 332 133.5 l 1
 332.5 133.5 l 1
 332.5 134 l 1
 332.5 467 l 1
 332.5 467.5 l 1
 332 467.5 l 1
 166 467.5 l 1
 165.5 467.5 l 1
 165.5 467 l 1
 165.5 134 l 1
166.5 134.5 m 1
 166.5 466.5 l 1
 331.5 466.5 l 1
 331.5 134.5 l 1
 166.5 134.5 l 1
166 134 m 1
 166 467 l 1
 332 467 l 1
 332 134 l 1
 166 134 l 1
-0.5 -199 m 1
 -0.5 -199.5 l 1
 0 -199.5 l 1
 166 -199.5 l 1
 166.5 -199.5 l 1
 166.5 -199 l 1
 166.5 134 l 1
 166.5 134.5 l 1
 166 134.5 l 1
 0 134.5 l 1
 -0.5 134.5 l 1
 -0.5 134 l 1
 -0.5 -199 l 1
0.5 -198.5 m 1
 0.5 133.5 l 1
 165.5 133.5 l 1
 165.5 -198.5 l 1
 0.5 -198.5 l 1
0 -199 m 1
 0 134 l 1
 166 134 l 1
 166 -199 l 1
 0 -199 l 1
332.5 -199 m 1
 332.5 -199.5 l 1
 333 -199.5 l 1
 499 -199.5 l 1
 499.5 -199.5 l 1
 499.5 -199 l 1
 499.5 134 l 1
 499.5 134.5 l 1
 499 134.5 l 1
 333 134.5 l 1
 332.5 134.5 l 1
 332.5 134 l 1
 332.5 -199 l 1
333.5 -198.5 m 1
 333.5 133.5 l 1
 498.5 133.5 l 1
 498.5 -198.5 l 1
 333.5 -198.5 l 1
333 -199 m 1
 333 134 l 1
 499 134 l 1
 499 -199 l 1
 333 -199 l 1
EndSplineSet
EndChar

StartChar: glyph117
Encoding: 373 1097846 117
Width: 0
VWidth: 0
Flags: H
LayerCount: 2
Fore
SplineSet
332.5 467 m 1
 332.5 466.5 l 1
 333 466.5 l 1
 499 466.5 l 1
 499.5 466.5 l 1
 499.5 467 l 1
 499.5 800 l 1
 499.5 800.5 l 1
 499 800.5 l 1
 333 800.5 l 1
 332.5 800.5 l 1
 332.5 800 l 1
 332.5 467 l 1
333.5 467.5 m 1
 333.5 799.5 l 1
 498.5 799.5 l 1
 498.5 467.5 l 1
 333.5 467.5 l 1
333 467 m 1
 333 800 l 1
 499 800 l 1
 499 467 l 1
 333 467 l 1
-0.5 134 m 1
 -0.5 133.5 l 1
 0 133.5 l 1
 166 133.5 l 1
 166.5 133.5 l 1
 166.5 134 l 1
 166.5 467 l 1
 166.5 467.5 l 1
 166 467.5 l 1
 0 467.5 l 1
 -0.5 467.5 l 1
 -0.5 467 l 1
 -0.5 134 l 1
0.5 134.5 m 1
 0.5 466.5 l 1
 165.5 466.5 l 1
 165.5 134.5 l 1
 0.5 134.5 l 1
0 134 m 1
 0 467 l 1
 166 467 l 1
 166 134 l 1
 0 134 l 1
165.5 134 m 1
 165.5 133.5 l 1
 166 133.5 l 1
 332 133.5 l 1
 332.5 133.5 l 1
 332.5 134 l 1
 332.5 467 l 1
 332.5 467.5 l 1
 332 467.5 l 1
 166 467.5 l 1
 165.5 467.5 l 1
 165.5 467 l 1
 165.5 134 l 1
166.5 134.5 m 1
 166.5 466.5 l 1
 331.5 466.5 l 1
 331.5 134.5 l 1
 166.5 134.5 l 1
166 134 m 1
 166 467 l 1
 332 467 l 1
 332 134 l 1
 166 134 l 1
-0.5 -199 m 1
 -0.5 -199.5 l 1
 0 -199.5 l 1
 166 -199.5 l 1
 166.5 -199.5 l 1
 166.5 -199 l 1
 166.5 134 l 1
 166.5 134.5 l 1
 166 134.5 l 1
 0 134.5 l 1
 -0.5 134.5 l 1
 -0.5 134 l 1
 -0.5 -199 l 1
0.5 -198.5 m 1
 0.5 133.5 l 1
 165.5 133.5 l 1
 165.5 -198.5 l 1
 0.5 -198.5 l 1
0 -199 m 1
 0 134 l 1
 166 134 l 1
 166 -199 l 1
 0 -199 l 1
165.5 -199 m 1
 165.5 -199.5 l 1
 166 -199.5 l 1
 332 -199.5 l 1
 332.5 -199.5 l 1
 332.5 -199 l 1
 332.5 134 l 1
 332.5 134.5 l 1
 332 134.5 l 1
 166 134.5 l 1
 165.5 134.5 l 1
 165.5 134 l 1
 165.5 -199 l 1
166.5 -198.5 m 1
 166.5 133.5 l 1
 331.5 133.5 l 1
 331.5 -198.5 l 1
 166.5 -198.5 l 1
166 -199 m 1
 166 134 l 1
 332 134 l 1
 332 -199 l 1
 166 -199 l 1
EndSplineSet
EndChar

StartChar: glyph118
Encoding: 374 1097847 118
Width: 0
VWidth: 0
Flags: H
LayerCount: 2
Fore
SplineSet
332.5 467 m 1
 332.5 466.5 l 1
 333 466.5 l 1
 499 466.5 l 1
 499.5 466.5 l 1
 499.5 467 l 1
 499.5 800 l 1
 499.5 800.5 l 1
 499 800.5 l 1
 333 800.5 l 1
 332.5 800.5 l 1
 332.5 800 l 1
 332.5 467 l 1
333.5 467.5 m 1
 333.5 799.5 l 1
 498.5 799.5 l 1
 498.5 467.5 l 1
 333.5 467.5 l 1
333 467 m 1
 333 800 l 1
 499 800 l 1
 499 467 l 1
 333 467 l 1
-0.5 134 m 1
 -0.5 133.5 l 1
 0 133.5 l 1
 166 133.5 l 1
 166.5 133.5 l 1
 166.5 134 l 1
 166.5 467 l 1
 166.5 467.5 l 1
 166 467.5 l 1
 0 467.5 l 1
 -0.5 467.5 l 1
 -0.5 467 l 1
 -0.5 134 l 1
0.5 134.5 m 1
 0.5 466.5 l 1
 165.5 466.5 l 1
 165.5 134.5 l 1
 0.5 134.5 l 1
0 134 m 1
 0 467 l 1
 166 467 l 1
 166 134 l 1
 0 134 l 1
165.5 134 m 1
 165.5 133.5 l 1
 166 133.5 l 1
 332 133.5 l 1
 332.5 133.5 l 1
 332.5 134 l 1
 332.5 467 l 1
 332.5 467.5 l 1
 332 467.5 l 1
 166 467.5 l 1
 165.5 467.5 l 1
 165.5 467 l 1
 165.5 134 l 1
166.5 134.5 m 1
 166.5 466.5 l 1
 331.5 466.5 l 1
 331.5 134.5 l 1
 166.5 134.5 l 1
166 134 m 1
 166 467 l 1
 332 467 l 1
 332 134 l 1
 166 134 l 1
-0.5 -199 m 1
 -0.5 -199.5 l 1
 0 -199.5 l 1
 166 -199.5 l 1
 166.5 -199.5 l 1
 166.5 -199 l 1
 166.5 134 l 1
 166.5 134.5 l 1
 166 134.5 l 1
 0 134.5 l 1
 -0.5 134.5 l 1
 -0.5 134 l 1
 -0.5 -199 l 1
0.5 -198.5 m 1
 0.5 133.5 l 1
 165.5 133.5 l 1
 165.5 -198.5 l 1
 0.5 -198.5 l 1
0 -199 m 1
 0 134 l 1
 166 134 l 1
 166 -199 l 1
 0 -199 l 1
165.5 -199 m 1
 165.5 -199.5 l 1
 166 -199.5 l 1
 332 -199.5 l 1
 332.5 -199.5 l 1
 332.5 -199 l 1
 332.5 134 l 1
 332.5 134.5 l 1
 332 134.5 l 1
 166 134.5 l 1
 165.5 134.5 l 1
 165.5 134 l 1
 165.5 -199 l 1
166.5 -198.5 m 1
 166.5 133.5 l 1
 331.5 133.5 l 1
 331.5 -198.5 l 1
 166.5 -198.5 l 1
166 -199 m 1
 166 134 l 1
 332 134 l 1
 332 -199 l 1
 166 -199 l 1
332.5 -199 m 1
 332.5 -199.5 l 1
 333 -199.5 l 1
 499 -199.5 l 1
 499.5 -199.5 l 1
 499.5 -199 l 1
 499.5 134 l 1
 499.5 134.5 l 1
 499 134.5 l 1
 333 134.5 l 1
 332.5 134.5 l 1
 332.5 134 l 1
 332.5 -199 l 1
333.5 -198.5 m 1
 333.5 133.5 l 1
 498.5 133.5 l 1
 498.5 -198.5 l 1
 333.5 -198.5 l 1
333 -199 m 1
 333 134 l 1
 499 134 l 1
 499 -199 l 1
 333 -199 l 1
EndSplineSet
EndChar

StartChar: glyph119
Encoding: 375 1097848 119
Width: 0
VWidth: 0
Flags: H
LayerCount: 2
Fore
SplineSet
332.5 467 m 1
 332.5 466.5 l 1
 333 466.5 l 1
 499 466.5 l 1
 499.5 466.5 l 1
 499.5 467 l 1
 499.5 800 l 1
 499.5 800.5 l 1
 499 800.5 l 1
 333 800.5 l 1
 332.5 800.5 l 1
 332.5 800 l 1
 332.5 467 l 1
333.5 467.5 m 1
 333.5 799.5 l 1
 498.5 799.5 l 1
 498.5 467.5 l 1
 333.5 467.5 l 1
333 467 m 1
 333 800 l 1
 499 800 l 1
 499 467 l 1
 333 467 l 1
-0.5 134 m 1
 -0.5 133.5 l 1
 0 133.5 l 1
 166 133.5 l 1
 166.5 133.5 l 1
 166.5 134 l 1
 166.5 467 l 1
 166.5 467.5 l 1
 166 467.5 l 1
 0 467.5 l 1
 -0.5 467.5 l 1
 -0.5 467 l 1
 -0.5 134 l 1
0.5 134.5 m 1
 0.5 466.5 l 1
 165.5 466.5 l 1
 165.5 134.5 l 1
 0.5 134.5 l 1
0 134 m 1
 0 467 l 1
 166 467 l 1
 166 134 l 1
 0 134 l 1
165.5 134 m 1
 165.5 133.5 l 1
 166 133.5 l 1
 332 133.5 l 1
 332.5 133.5 l 1
 332.5 134 l 1
 332.5 467 l 1
 332.5 467.5 l 1
 332 467.5 l 1
 166 467.5 l 1
 165.5 467.5 l 1
 165.5 467 l 1
 165.5 134 l 1
166.5 134.5 m 1
 166.5 466.5 l 1
 331.5 466.5 l 1
 331.5 134.5 l 1
 166.5 134.5 l 1
166 134 m 1
 166 467 l 1
 332 467 l 1
 332 134 l 1
 166 134 l 1
332.5 134 m 1
 332.5 133.5 l 1
 333 133.5 l 1
 499 133.5 l 1
 499.5 133.5 l 1
 499.5 134 l 1
 499.5 467 l 1
 499.5 467.5 l 1
 499 467.5 l 1
 333 467.5 l 1
 332.5 467.5 l 1
 332.5 467 l 1
 332.5 134 l 1
333.5 134.5 m 1
 333.5 466.5 l 1
 498.5 466.5 l 1
 498.5 134.5 l 1
 333.5 134.5 l 1
333 134 m 1
 333 467 l 1
 499 467 l 1
 499 134 l 1
 333 134 l 1
EndSplineSet
EndChar

StartChar: glyph120
Encoding: 376 1097849 120
Width: 0
VWidth: 0
Flags: H
LayerCount: 2
Fore
SplineSet
332.5 467 m 1
 332.5 466.5 l 1
 333 466.5 l 1
 499 466.5 l 1
 499.5 466.5 l 1
 499.5 467 l 1
 499.5 800 l 1
 499.5 800.5 l 1
 499 800.5 l 1
 333 800.5 l 1
 332.5 800.5 l 1
 332.5 800 l 1
 332.5 467 l 1
333.5 467.5 m 1
 333.5 799.5 l 1
 498.5 799.5 l 1
 498.5 467.5 l 1
 333.5 467.5 l 1
333 467 m 1
 333 800 l 1
 499 800 l 1
 499 467 l 1
 333 467 l 1
-0.5 134 m 1
 -0.5 133.5 l 1
 0 133.5 l 1
 166 133.5 l 1
 166.5 133.5 l 1
 166.5 134 l 1
 166.5 467 l 1
 166.5 467.5 l 1
 166 467.5 l 1
 0 467.5 l 1
 -0.5 467.5 l 1
 -0.5 467 l 1
 -0.5 134 l 1
0.5 134.5 m 1
 0.5 466.5 l 1
 165.5 466.5 l 1
 165.5 134.5 l 1
 0.5 134.5 l 1
0 134 m 1
 0 467 l 1
 166 467 l 1
 166 134 l 1
 0 134 l 1
165.5 134 m 1
 165.5 133.5 l 1
 166 133.5 l 1
 332 133.5 l 1
 332.5 133.5 l 1
 332.5 134 l 1
 332.5 467 l 1
 332.5 467.5 l 1
 332 467.5 l 1
 166 467.5 l 1
 165.5 467.5 l 1
 165.5 467 l 1
 165.5 134 l 1
166.5 134.5 m 1
 166.5 466.5 l 1
 331.5 466.5 l 1
 331.5 134.5 l 1
 166.5 134.5 l 1
166 134 m 1
 166 467 l 1
 332 467 l 1
 332 134 l 1
 166 134 l 1
332.5 134 m 1
 332.5 133.5 l 1
 333 133.5 l 1
 499 133.5 l 1
 499.5 133.5 l 1
 499.5 134 l 1
 499.5 467 l 1
 499.5 467.5 l 1
 499 467.5 l 1
 333 467.5 l 1
 332.5 467.5 l 1
 332.5 467 l 1
 332.5 134 l 1
333.5 134.5 m 1
 333.5 466.5 l 1
 498.5 466.5 l 1
 498.5 134.5 l 1
 333.5 134.5 l 1
333 134 m 1
 333 467 l 1
 499 467 l 1
 499 134 l 1
 333 134 l 1
332.5 -199 m 1
 332.5 -199.5 l 1
 333 -199.5 l 1
 499 -199.5 l 1
 499.5 -199.5 l 1
 499.5 -199 l 1
 499.5 134 l 1
 499.5 134.5 l 1
 499 134.5 l 1
 333 134.5 l 1
 332.5 134.5 l 1
 332.5 134 l 1
 332.5 -199 l 1
333.5 -198.5 m 1
 333.5 133.5 l 1
 498.5 133.5 l 1
 498.5 -198.5 l 1
 333.5 -198.5 l 1
333 -199 m 1
 333 134 l 1
 499 134 l 1
 499 -199 l 1
 333 -199 l 1
EndSplineSet
EndChar

StartChar: glyph121
Encoding: 377 1097850 121
Width: 0
VWidth: 0
Flags: H
LayerCount: 2
Fore
SplineSet
332.5 467 m 1
 332.5 466.5 l 1
 333 466.5 l 1
 499 466.5 l 1
 499.5 466.5 l 1
 499.5 467 l 1
 499.5 800 l 1
 499.5 800.5 l 1
 499 800.5 l 1
 333 800.5 l 1
 332.5 800.5 l 1
 332.5 800 l 1
 332.5 467 l 1
333.5 467.5 m 1
 333.5 799.5 l 1
 498.5 799.5 l 1
 498.5 467.5 l 1
 333.5 467.5 l 1
333 467 m 1
 333 800 l 1
 499 800 l 1
 499 467 l 1
 333 467 l 1
-0.5 134 m 1
 -0.5 133.5 l 1
 0 133.5 l 1
 166 133.5 l 1
 166.5 133.5 l 1
 166.5 134 l 1
 166.5 467 l 1
 166.5 467.5 l 1
 166 467.5 l 1
 0 467.5 l 1
 -0.5 467.5 l 1
 -0.5 467 l 1
 -0.5 134 l 1
0.5 134.5 m 1
 0.5 466.5 l 1
 165.5 466.5 l 1
 165.5 134.5 l 1
 0.5 134.5 l 1
0 134 m 1
 0 467 l 1
 166 467 l 1
 166 134 l 1
 0 134 l 1
165.5 134 m 1
 165.5 133.5 l 1
 166 133.5 l 1
 332 133.5 l 1
 332.5 133.5 l 1
 332.5 134 l 1
 332.5 467 l 1
 332.5 467.5 l 1
 332 467.5 l 1
 166 467.5 l 1
 165.5 467.5 l 1
 165.5 467 l 1
 165.5 134 l 1
166.5 134.5 m 1
 166.5 466.5 l 1
 331.5 466.5 l 1
 331.5 134.5 l 1
 166.5 134.5 l 1
166 134 m 1
 166 467 l 1
 332 467 l 1
 332 134 l 1
 166 134 l 1
332.5 134 m 1
 332.5 133.5 l 1
 333 133.5 l 1
 499 133.5 l 1
 499.5 133.5 l 1
 499.5 134 l 1
 499.5 467 l 1
 499.5 467.5 l 1
 499 467.5 l 1
 333 467.5 l 1
 332.5 467.5 l 1
 332.5 467 l 1
 332.5 134 l 1
333.5 134.5 m 1
 333.5 466.5 l 1
 498.5 466.5 l 1
 498.5 134.5 l 1
 333.5 134.5 l 1
333 134 m 1
 333 467 l 1
 499 467 l 1
 499 134 l 1
 333 134 l 1
165.5 -199 m 1
 165.5 -199.5 l 1
 166 -199.5 l 1
 332 -199.5 l 1
 332.5 -199.5 l 1
 332.5 -199 l 1
 332.5 134 l 1
 332.5 134.5 l 1
 332 134.5 l 1
 166 134.5 l 1
 165.5 134.5 l 1
 165.5 134 l 1
 165.5 -199 l 1
166.5 -198.5 m 1
 166.5 133.5 l 1
 331.5 133.5 l 1
 331.5 -198.5 l 1
 166.5 -198.5 l 1
166 -199 m 1
 166 134 l 1
 332 134 l 1
 332 -199 l 1
 166 -199 l 1
EndSplineSet
EndChar

StartChar: glyph122
Encoding: 378 1097851 122
Width: 0
VWidth: 0
Flags: H
LayerCount: 2
Fore
SplineSet
332.5 467 m 1
 332.5 466.5 l 1
 333 466.5 l 1
 499 466.5 l 1
 499.5 466.5 l 1
 499.5 467 l 1
 499.5 800 l 1
 499.5 800.5 l 1
 499 800.5 l 1
 333 800.5 l 1
 332.5 800.5 l 1
 332.5 800 l 1
 332.5 467 l 1
333.5 467.5 m 1
 333.5 799.5 l 1
 498.5 799.5 l 1
 498.5 467.5 l 1
 333.5 467.5 l 1
333 467 m 1
 333 800 l 1
 499 800 l 1
 499 467 l 1
 333 467 l 1
-0.5 134 m 1
 -0.5 133.5 l 1
 0 133.5 l 1
 166 133.5 l 1
 166.5 133.5 l 1
 166.5 134 l 1
 166.5 467 l 1
 166.5 467.5 l 1
 166 467.5 l 1
 0 467.5 l 1
 -0.5 467.5 l 1
 -0.5 467 l 1
 -0.5 134 l 1
0.5 134.5 m 1
 0.5 466.5 l 1
 165.5 466.5 l 1
 165.5 134.5 l 1
 0.5 134.5 l 1
0 134 m 1
 0 467 l 1
 166 467 l 1
 166 134 l 1
 0 134 l 1
165.5 134 m 1
 165.5 133.5 l 1
 166 133.5 l 1
 332 133.5 l 1
 332.5 133.5 l 1
 332.5 134 l 1
 332.5 467 l 1
 332.5 467.5 l 1
 332 467.5 l 1
 166 467.5 l 1
 165.5 467.5 l 1
 165.5 467 l 1
 165.5 134 l 1
166.5 134.5 m 1
 166.5 466.5 l 1
 331.5 466.5 l 1
 331.5 134.5 l 1
 166.5 134.5 l 1
166 134 m 1
 166 467 l 1
 332 467 l 1
 332 134 l 1
 166 134 l 1
332.5 134 m 1
 332.5 133.5 l 1
 333 133.5 l 1
 499 133.5 l 1
 499.5 133.5 l 1
 499.5 134 l 1
 499.5 467 l 1
 499.5 467.5 l 1
 499 467.5 l 1
 333 467.5 l 1
 332.5 467.5 l 1
 332.5 467 l 1
 332.5 134 l 1
333.5 134.5 m 1
 333.5 466.5 l 1
 498.5 466.5 l 1
 498.5 134.5 l 1
 333.5 134.5 l 1
333 134 m 1
 333 467 l 1
 499 467 l 1
 499 134 l 1
 333 134 l 1
165.5 -199 m 1
 165.5 -199.5 l 1
 166 -199.5 l 1
 332 -199.5 l 1
 332.5 -199.5 l 1
 332.5 -199 l 1
 332.5 134 l 1
 332.5 134.5 l 1
 332 134.5 l 1
 166 134.5 l 1
 165.5 134.5 l 1
 165.5 134 l 1
 165.5 -199 l 1
166.5 -198.5 m 1
 166.5 133.5 l 1
 331.5 133.5 l 1
 331.5 -198.5 l 1
 166.5 -198.5 l 1
166 -199 m 1
 166 134 l 1
 332 134 l 1
 332 -199 l 1
 166 -199 l 1
332.5 -199 m 1
 332.5 -199.5 l 1
 333 -199.5 l 1
 499 -199.5 l 1
 499.5 -199.5 l 1
 499.5 -199 l 1
 499.5 134 l 1
 499.5 134.5 l 1
 499 134.5 l 1
 333 134.5 l 1
 332.5 134.5 l 1
 332.5 134 l 1
 332.5 -199 l 1
333.5 -198.5 m 1
 333.5 133.5 l 1
 498.5 133.5 l 1
 498.5 -198.5 l 1
 333.5 -198.5 l 1
333 -199 m 1
 333 134 l 1
 499 134 l 1
 499 -199 l 1
 333 -199 l 1
EndSplineSet
EndChar

StartChar: glyph123
Encoding: 379 1097852 123
Width: 0
VWidth: 0
Flags: H
LayerCount: 2
Fore
SplineSet
332.5 467 m 1
 332.5 466.5 l 1
 333 466.5 l 1
 499 466.5 l 1
 499.5 466.5 l 1
 499.5 467 l 1
 499.5 800 l 1
 499.5 800.5 l 1
 499 800.5 l 1
 333 800.5 l 1
 332.5 800.5 l 1
 332.5 800 l 1
 332.5 467 l 1
333.5 467.5 m 1
 333.5 799.5 l 1
 498.5 799.5 l 1
 498.5 467.5 l 1
 333.5 467.5 l 1
333 467 m 1
 333 800 l 1
 499 800 l 1
 499 467 l 1
 333 467 l 1
-0.5 134 m 1
 -0.5 133.5 l 1
 0 133.5 l 1
 166 133.5 l 1
 166.5 133.5 l 1
 166.5 134 l 1
 166.5 467 l 1
 166.5 467.5 l 1
 166 467.5 l 1
 0 467.5 l 1
 -0.5 467.5 l 1
 -0.5 467 l 1
 -0.5 134 l 1
0.5 134.5 m 1
 0.5 466.5 l 1
 165.5 466.5 l 1
 165.5 134.5 l 1
 0.5 134.5 l 1
0 134 m 1
 0 467 l 1
 166 467 l 1
 166 134 l 1
 0 134 l 1
165.5 134 m 1
 165.5 133.5 l 1
 166 133.5 l 1
 332 133.5 l 1
 332.5 133.5 l 1
 332.5 134 l 1
 332.5 467 l 1
 332.5 467.5 l 1
 332 467.5 l 1
 166 467.5 l 1
 165.5 467.5 l 1
 165.5 467 l 1
 165.5 134 l 1
166.5 134.5 m 1
 166.5 466.5 l 1
 331.5 466.5 l 1
 331.5 134.5 l 1
 166.5 134.5 l 1
166 134 m 1
 166 467 l 1
 332 467 l 1
 332 134 l 1
 166 134 l 1
332.5 134 m 1
 332.5 133.5 l 1
 333 133.5 l 1
 499 133.5 l 1
 499.5 133.5 l 1
 499.5 134 l 1
 499.5 467 l 1
 499.5 467.5 l 1
 499 467.5 l 1
 333 467.5 l 1
 332.5 467.5 l 1
 332.5 467 l 1
 332.5 134 l 1
333.5 134.5 m 1
 333.5 466.5 l 1
 498.5 466.5 l 1
 498.5 134.5 l 1
 333.5 134.5 l 1
333 134 m 1
 333 467 l 1
 499 467 l 1
 499 134 l 1
 333 134 l 1
-0.5 -199 m 1
 -0.5 -199.5 l 1
 0 -199.5 l 1
 166 -199.5 l 1
 166.5 -199.5 l 1
 166.5 -199 l 1
 166.5 134 l 1
 166.5 134.5 l 1
 166 134.5 l 1
 0 134.5 l 1
 -0.5 134.5 l 1
 -0.5 134 l 1
 -0.5 -199 l 1
0.5 -198.5 m 1
 0.5 133.5 l 1
 165.5 133.5 l 1
 165.5 -198.5 l 1
 0.5 -198.5 l 1
0 -199 m 1
 0 134 l 1
 166 134 l 1
 166 -199 l 1
 0 -199 l 1
EndSplineSet
EndChar

StartChar: glyph124
Encoding: 380 1097853 124
Width: 0
VWidth: 0
Flags: H
LayerCount: 2
Fore
SplineSet
332.5 467 m 1
 332.5 466.5 l 1
 333 466.5 l 1
 499 466.5 l 1
 499.5 466.5 l 1
 499.5 467 l 1
 499.5 800 l 1
 499.5 800.5 l 1
 499 800.5 l 1
 333 800.5 l 1
 332.5 800.5 l 1
 332.5 800 l 1
 332.5 467 l 1
333.5 467.5 m 1
 333.5 799.5 l 1
 498.5 799.5 l 1
 498.5 467.5 l 1
 333.5 467.5 l 1
333 467 m 1
 333 800 l 1
 499 800 l 1
 499 467 l 1
 333 467 l 1
-0.5 134 m 1
 -0.5 133.5 l 1
 0 133.5 l 1
 166 133.5 l 1
 166.5 133.5 l 1
 166.5 134 l 1
 166.5 467 l 1
 166.5 467.5 l 1
 166 467.5 l 1
 0 467.5 l 1
 -0.5 467.5 l 1
 -0.5 467 l 1
 -0.5 134 l 1
0.5 134.5 m 1
 0.5 466.5 l 1
 165.5 466.5 l 1
 165.5 134.5 l 1
 0.5 134.5 l 1
0 134 m 1
 0 467 l 1
 166 467 l 1
 166 134 l 1
 0 134 l 1
165.5 134 m 1
 165.5 133.5 l 1
 166 133.5 l 1
 332 133.5 l 1
 332.5 133.5 l 1
 332.5 134 l 1
 332.5 467 l 1
 332.5 467.5 l 1
 332 467.5 l 1
 166 467.5 l 1
 165.5 467.5 l 1
 165.5 467 l 1
 165.5 134 l 1
166.5 134.5 m 1
 166.5 466.5 l 1
 331.5 466.5 l 1
 331.5 134.5 l 1
 166.5 134.5 l 1
166 134 m 1
 166 467 l 1
 332 467 l 1
 332 134 l 1
 166 134 l 1
332.5 134 m 1
 332.5 133.5 l 1
 333 133.5 l 1
 499 133.5 l 1
 499.5 133.5 l 1
 499.5 134 l 1
 499.5 467 l 1
 499.5 467.5 l 1
 499 467.5 l 1
 333 467.5 l 1
 332.5 467.5 l 1
 332.5 467 l 1
 332.5 134 l 1
333.5 134.5 m 1
 333.5 466.5 l 1
 498.5 466.5 l 1
 498.5 134.5 l 1
 333.5 134.5 l 1
333 134 m 1
 333 467 l 1
 499 467 l 1
 499 134 l 1
 333 134 l 1
-0.5 -199 m 1
 -0.5 -199.5 l 1
 0 -199.5 l 1
 166 -199.5 l 1
 166.5 -199.5 l 1
 166.5 -199 l 1
 166.5 134 l 1
 166.5 134.5 l 1
 166 134.5 l 1
 0 134.5 l 1
 -0.5 134.5 l 1
 -0.5 134 l 1
 -0.5 -199 l 1
0.5 -198.5 m 1
 0.5 133.5 l 1
 165.5 133.5 l 1
 165.5 -198.5 l 1
 0.5 -198.5 l 1
0 -199 m 1
 0 134 l 1
 166 134 l 1
 166 -199 l 1
 0 -199 l 1
332.5 -199 m 1
 332.5 -199.5 l 1
 333 -199.5 l 1
 499 -199.5 l 1
 499.5 -199.5 l 1
 499.5 -199 l 1
 499.5 134 l 1
 499.5 134.5 l 1
 499 134.5 l 1
 333 134.5 l 1
 332.5 134.5 l 1
 332.5 134 l 1
 332.5 -199 l 1
333.5 -198.5 m 1
 333.5 133.5 l 1
 498.5 133.5 l 1
 498.5 -198.5 l 1
 333.5 -198.5 l 1
333 -199 m 1
 333 134 l 1
 499 134 l 1
 499 -199 l 1
 333 -199 l 1
EndSplineSet
EndChar

StartChar: glyph125
Encoding: 381 1097854 125
Width: 0
VWidth: 0
Flags: H
LayerCount: 2
Fore
SplineSet
332.5 467 m 1
 332.5 466.5 l 1
 333 466.5 l 1
 499 466.5 l 1
 499.5 466.5 l 1
 499.5 467 l 1
 499.5 800 l 1
 499.5 800.5 l 1
 499 800.5 l 1
 333 800.5 l 1
 332.5 800.5 l 1
 332.5 800 l 1
 332.5 467 l 1
333.5 467.5 m 1
 333.5 799.5 l 1
 498.5 799.5 l 1
 498.5 467.5 l 1
 333.5 467.5 l 1
333 467 m 1
 333 800 l 1
 499 800 l 1
 499 467 l 1
 333 467 l 1
-0.5 134 m 1
 -0.5 133.5 l 1
 0 133.5 l 1
 166 133.5 l 1
 166.5 133.5 l 1
 166.5 134 l 1
 166.5 467 l 1
 166.5 467.5 l 1
 166 467.5 l 1
 0 467.5 l 1
 -0.5 467.5 l 1
 -0.5 467 l 1
 -0.5 134 l 1
0.5 134.5 m 1
 0.5 466.5 l 1
 165.5 466.5 l 1
 165.5 134.5 l 1
 0.5 134.5 l 1
0 134 m 1
 0 467 l 1
 166 467 l 1
 166 134 l 1
 0 134 l 1
165.5 134 m 1
 165.5 133.5 l 1
 166 133.5 l 1
 332 133.5 l 1
 332.5 133.5 l 1
 332.5 134 l 1
 332.5 467 l 1
 332.5 467.5 l 1
 332 467.5 l 1
 166 467.5 l 1
 165.5 467.5 l 1
 165.5 467 l 1
 165.5 134 l 1
166.5 134.5 m 1
 166.5 466.5 l 1
 331.5 466.5 l 1
 331.5 134.5 l 1
 166.5 134.5 l 1
166 134 m 1
 166 467 l 1
 332 467 l 1
 332 134 l 1
 166 134 l 1
332.5 134 m 1
 332.5 133.5 l 1
 333 133.5 l 1
 499 133.5 l 1
 499.5 133.5 l 1
 499.5 134 l 1
 499.5 467 l 1
 499.5 467.5 l 1
 499 467.5 l 1
 333 467.5 l 1
 332.5 467.5 l 1
 332.5 467 l 1
 332.5 134 l 1
333.5 134.5 m 1
 333.5 466.5 l 1
 498.5 466.5 l 1
 498.5 134.5 l 1
 333.5 134.5 l 1
333 134 m 1
 333 467 l 1
 499 467 l 1
 499 134 l 1
 333 134 l 1
-0.5 -199 m 1
 -0.5 -199.5 l 1
 0 -199.5 l 1
 166 -199.5 l 1
 166.5 -199.5 l 1
 166.5 -199 l 1
 166.5 134 l 1
 166.5 134.5 l 1
 166 134.5 l 1
 0 134.5 l 1
 -0.5 134.5 l 1
 -0.5 134 l 1
 -0.5 -199 l 1
0.5 -198.5 m 1
 0.5 133.5 l 1
 165.5 133.5 l 1
 165.5 -198.5 l 1
 0.5 -198.5 l 1
0 -199 m 1
 0 134 l 1
 166 134 l 1
 166 -199 l 1
 0 -199 l 1
165.5 -199 m 1
 165.5 -199.5 l 1
 166 -199.5 l 1
 332 -199.5 l 1
 332.5 -199.5 l 1
 332.5 -199 l 1
 332.5 134 l 1
 332.5 134.5 l 1
 332 134.5 l 1
 166 134.5 l 1
 165.5 134.5 l 1
 165.5 134 l 1
 165.5 -199 l 1
166.5 -198.5 m 1
 166.5 133.5 l 1
 331.5 133.5 l 1
 331.5 -198.5 l 1
 166.5 -198.5 l 1
166 -199 m 1
 166 134 l 1
 332 134 l 1
 332 -199 l 1
 166 -199 l 1
EndSplineSet
EndChar

StartChar: glyph126
Encoding: 382 1097855 126
Width: 0
VWidth: 0
Flags: H
LayerCount: 2
Fore
SplineSet
332.5 467 m 1
 332.5 466.5 l 1
 333 466.5 l 1
 499 466.5 l 1
 499.5 466.5 l 1
 499.5 467 l 1
 499.5 800 l 1
 499.5 800.5 l 1
 499 800.5 l 1
 333 800.5 l 1
 332.5 800.5 l 1
 332.5 800 l 1
 332.5 467 l 1
333.5 467.5 m 1
 333.5 799.5 l 1
 498.5 799.5 l 1
 498.5 467.5 l 1
 333.5 467.5 l 1
333 467 m 1
 333 800 l 1
 499 800 l 1
 499 467 l 1
 333 467 l 1
-0.5 134 m 1
 -0.5 133.5 l 1
 0 133.5 l 1
 166 133.5 l 1
 166.5 133.5 l 1
 166.5 134 l 1
 166.5 467 l 1
 166.5 467.5 l 1
 166 467.5 l 1
 0 467.5 l 1
 -0.5 467.5 l 1
 -0.5 467 l 1
 -0.5 134 l 1
0.5 134.5 m 1
 0.5 466.5 l 1
 165.5 466.5 l 1
 165.5 134.5 l 1
 0.5 134.5 l 1
0 134 m 1
 0 467 l 1
 166 467 l 1
 166 134 l 1
 0 134 l 1
165.5 134 m 1
 165.5 133.5 l 1
 166 133.5 l 1
 332 133.5 l 1
 332.5 133.5 l 1
 332.5 134 l 1
 332.5 467 l 1
 332.5 467.5 l 1
 332 467.5 l 1
 166 467.5 l 1
 165.5 467.5 l 1
 165.5 467 l 1
 165.5 134 l 1
166.5 134.5 m 1
 166.5 466.5 l 1
 331.5 466.5 l 1
 331.5 134.5 l 1
 166.5 134.5 l 1
166 134 m 1
 166 467 l 1
 332 467 l 1
 332 134 l 1
 166 134 l 1
332.5 134 m 1
 332.5 133.5 l 1
 333 133.5 l 1
 499 133.5 l 1
 499.5 133.5 l 1
 499.5 134 l 1
 499.5 467 l 1
 499.5 467.5 l 1
 499 467.5 l 1
 333 467.5 l 1
 332.5 467.5 l 1
 332.5 467 l 1
 332.5 134 l 1
333.5 134.5 m 1
 333.5 466.5 l 1
 498.5 466.5 l 1
 498.5 134.5 l 1
 333.5 134.5 l 1
333 134 m 1
 333 467 l 1
 499 467 l 1
 499 134 l 1
 333 134 l 1
-0.5 -199 m 1
 -0.5 -199.5 l 1
 0 -199.5 l 1
 166 -199.5 l 1
 166.5 -199.5 l 1
 166.5 -199 l 1
 166.5 134 l 1
 166.5 134.5 l 1
 166 134.5 l 1
 0 134.5 l 1
 -0.5 134.5 l 1
 -0.5 134 l 1
 -0.5 -199 l 1
0.5 -198.5 m 1
 0.5 133.5 l 1
 165.5 133.5 l 1
 165.5 -198.5 l 1
 0.5 -198.5 l 1
0 -199 m 1
 0 134 l 1
 166 134 l 1
 166 -199 l 1
 0 -199 l 1
165.5 -199 m 1
 165.5 -199.5 l 1
 166 -199.5 l 1
 332 -199.5 l 1
 332.5 -199.5 l 1
 332.5 -199 l 1
 332.5 134 l 1
 332.5 134.5 l 1
 332 134.5 l 1
 166 134.5 l 1
 165.5 134.5 l 1
 165.5 134 l 1
 165.5 -199 l 1
166.5 -198.5 m 1
 166.5 133.5 l 1
 331.5 133.5 l 1
 331.5 -198.5 l 1
 166.5 -198.5 l 1
166 -199 m 1
 166 134 l 1
 332 134 l 1
 332 -199 l 1
 166 -199 l 1
332.5 -199 m 1
 332.5 -199.5 l 1
 333 -199.5 l 1
 499 -199.5 l 1
 499.5 -199.5 l 1
 499.5 -199 l 1
 499.5 134 l 1
 499.5 134.5 l 1
 499 134.5 l 1
 333 134.5 l 1
 332.5 134.5 l 1
 332.5 134 l 1
 332.5 -199 l 1
333.5 -198.5 m 1
 333.5 133.5 l 1
 498.5 133.5 l 1
 498.5 -198.5 l 1
 333.5 -198.5 l 1
333 -199 m 1
 333 134 l 1
 499 134 l 1
 499 -199 l 1
 333 -199 l 1
EndSplineSet
EndChar

StartChar: glyph127
Encoding: 383 1097856 127
Width: 0
VWidth: 0
Flags: H
LayerCount: 2
Fore
SplineSet
165.5 467 m 1
 165.5 466.5 l 1
 166 466.5 l 1
 332 466.5 l 1
 332.5 466.5 l 1
 332.5 467 l 1
 332.5 800 l 1
 332.5 800.5 l 1
 332 800.5 l 1
 166 800.5 l 1
 165.5 800.5 l 1
 165.5 800 l 1
 165.5 467 l 1
166.5 467.5 m 1
 166.5 799.5 l 1
 331.5 799.5 l 1
 331.5 467.5 l 1
 166.5 467.5 l 1
166 467 m 1
 166 800 l 1
 332 800 l 1
 332 467 l 1
 166 467 l 1
EndSplineSet
EndChar

StartChar: glyph128
Encoding: 384 1097857 128
Width: 0
VWidth: 0
Flags: H
LayerCount: 2
Fore
SplineSet
165.5 467 m 1
 165.5 466.5 l 1
 166 466.5 l 1
 332 466.5 l 1
 332.5 466.5 l 1
 332.5 467 l 1
 332.5 800 l 1
 332.5 800.5 l 1
 332 800.5 l 1
 166 800.5 l 1
 165.5 800.5 l 1
 165.5 800 l 1
 165.5 467 l 1
166.5 467.5 m 1
 166.5 799.5 l 1
 331.5 799.5 l 1
 331.5 467.5 l 1
 166.5 467.5 l 1
166 467 m 1
 166 800 l 1
 332 800 l 1
 332 467 l 1
 166 467 l 1
332.5 -199 m 1
 332.5 -199.5 l 1
 333 -199.5 l 1
 499 -199.5 l 1
 499.5 -199.5 l 1
 499.5 -199 l 1
 499.5 134 l 1
 499.5 134.5 l 1
 499 134.5 l 1
 333 134.5 l 1
 332.5 134.5 l 1
 332.5 134 l 1
 332.5 -199 l 1
333.5 -198.5 m 1
 333.5 133.5 l 1
 498.5 133.5 l 1
 498.5 -198.5 l 1
 333.5 -198.5 l 1
333 -199 m 1
 333 134 l 1
 499 134 l 1
 499 -199 l 1
 333 -199 l 1
EndSplineSet
EndChar

StartChar: glyph129
Encoding: 385 1097858 129
Width: 0
VWidth: 0
Flags: H
LayerCount: 2
Fore
SplineSet
165.5 467 m 1
 165.5 466.5 l 1
 166 466.5 l 1
 332 466.5 l 1
 332.5 466.5 l 1
 332.5 467 l 1
 332.5 800 l 1
 332.5 800.5 l 1
 332 800.5 l 1
 166 800.5 l 1
 165.5 800.5 l 1
 165.5 800 l 1
 165.5 467 l 1
166.5 467.5 m 1
 166.5 799.5 l 1
 331.5 799.5 l 1
 331.5 467.5 l 1
 166.5 467.5 l 1
166 467 m 1
 166 800 l 1
 332 800 l 1
 332 467 l 1
 166 467 l 1
165.5 -199 m 1
 165.5 -199.5 l 1
 166 -199.5 l 1
 332 -199.5 l 1
 332.5 -199.5 l 1
 332.5 -199 l 1
 332.5 134 l 1
 332.5 134.5 l 1
 332 134.5 l 1
 166 134.5 l 1
 165.5 134.5 l 1
 165.5 134 l 1
 165.5 -199 l 1
166.5 -198.5 m 1
 166.5 133.5 l 1
 331.5 133.5 l 1
 331.5 -198.5 l 1
 166.5 -198.5 l 1
166 -199 m 1
 166 134 l 1
 332 134 l 1
 332 -199 l 1
 166 -199 l 1
EndSplineSet
EndChar

StartChar: glyph130
Encoding: 386 1097859 130
Width: 0
VWidth: 0
Flags: H
LayerCount: 2
Fore
SplineSet
165.5 467 m 1
 165.5 466.5 l 1
 166 466.5 l 1
 332 466.5 l 1
 332.5 466.5 l 1
 332.5 467 l 1
 332.5 800 l 1
 332.5 800.5 l 1
 332 800.5 l 1
 166 800.5 l 1
 165.5 800.5 l 1
 165.5 800 l 1
 165.5 467 l 1
166.5 467.5 m 1
 166.5 799.5 l 1
 331.5 799.5 l 1
 331.5 467.5 l 1
 166.5 467.5 l 1
166 467 m 1
 166 800 l 1
 332 800 l 1
 332 467 l 1
 166 467 l 1
165.5 -199 m 1
 165.5 -199.5 l 1
 166 -199.5 l 1
 332 -199.5 l 1
 332.5 -199.5 l 1
 332.5 -199 l 1
 332.5 134 l 1
 332.5 134.5 l 1
 332 134.5 l 1
 166 134.5 l 1
 165.5 134.5 l 1
 165.5 134 l 1
 165.5 -199 l 1
166.5 -198.5 m 1
 166.5 133.5 l 1
 331.5 133.5 l 1
 331.5 -198.5 l 1
 166.5 -198.5 l 1
166 -199 m 1
 166 134 l 1
 332 134 l 1
 332 -199 l 1
 166 -199 l 1
332.5 -199 m 1
 332.5 -199.5 l 1
 333 -199.5 l 1
 499 -199.5 l 1
 499.5 -199.5 l 1
 499.5 -199 l 1
 499.5 134 l 1
 499.5 134.5 l 1
 499 134.5 l 1
 333 134.5 l 1
 332.5 134.5 l 1
 332.5 134 l 1
 332.5 -199 l 1
333.5 -198.5 m 1
 333.5 133.5 l 1
 498.5 133.5 l 1
 498.5 -198.5 l 1
 333.5 -198.5 l 1
333 -199 m 1
 333 134 l 1
 499 134 l 1
 499 -199 l 1
 333 -199 l 1
EndSplineSet
EndChar

StartChar: glyph131
Encoding: 387 1097860 131
Width: 0
VWidth: 0
Flags: H
LayerCount: 2
Fore
SplineSet
165.5 467 m 1
 165.5 466.5 l 1
 166 466.5 l 1
 332 466.5 l 1
 332.5 466.5 l 1
 332.5 467 l 1
 332.5 800 l 1
 332.5 800.5 l 1
 332 800.5 l 1
 166 800.5 l 1
 165.5 800.5 l 1
 165.5 800 l 1
 165.5 467 l 1
166.5 467.5 m 1
 166.5 799.5 l 1
 331.5 799.5 l 1
 331.5 467.5 l 1
 166.5 467.5 l 1
166 467 m 1
 166 800 l 1
 332 800 l 1
 332 467 l 1
 166 467 l 1
-0.5 -199 m 1
 -0.5 -199.5 l 1
 0 -199.5 l 1
 166 -199.5 l 1
 166.5 -199.5 l 1
 166.5 -199 l 1
 166.5 134 l 1
 166.5 134.5 l 1
 166 134.5 l 1
 0 134.5 l 1
 -0.5 134.5 l 1
 -0.5 134 l 1
 -0.5 -199 l 1
0.5 -198.5 m 1
 0.5 133.5 l 1
 165.5 133.5 l 1
 165.5 -198.5 l 1
 0.5 -198.5 l 1
0 -199 m 1
 0 134 l 1
 166 134 l 1
 166 -199 l 1
 0 -199 l 1
EndSplineSet
EndChar

StartChar: glyph132
Encoding: 388 1097861 132
Width: 0
VWidth: 0
Flags: H
LayerCount: 2
Fore
SplineSet
165.5 467 m 1
 165.5 466.5 l 1
 166 466.5 l 1
 332 466.5 l 1
 332.5 466.5 l 1
 332.5 467 l 1
 332.5 800 l 1
 332.5 800.5 l 1
 332 800.5 l 1
 166 800.5 l 1
 165.5 800.5 l 1
 165.5 800 l 1
 165.5 467 l 1
166.5 467.5 m 1
 166.5 799.5 l 1
 331.5 799.5 l 1
 331.5 467.5 l 1
 166.5 467.5 l 1
166 467 m 1
 166 800 l 1
 332 800 l 1
 332 467 l 1
 166 467 l 1
-0.5 -199 m 1
 -0.5 -199.5 l 1
 0 -199.5 l 1
 166 -199.5 l 1
 166.5 -199.5 l 1
 166.5 -199 l 1
 166.5 134 l 1
 166.5 134.5 l 1
 166 134.5 l 1
 0 134.5 l 1
 -0.5 134.5 l 1
 -0.5 134 l 1
 -0.5 -199 l 1
0.5 -198.5 m 1
 0.5 133.5 l 1
 165.5 133.5 l 1
 165.5 -198.5 l 1
 0.5 -198.5 l 1
0 -199 m 1
 0 134 l 1
 166 134 l 1
 166 -199 l 1
 0 -199 l 1
332.5 -199 m 1
 332.5 -199.5 l 1
 333 -199.5 l 1
 499 -199.5 l 1
 499.5 -199.5 l 1
 499.5 -199 l 1
 499.5 134 l 1
 499.5 134.5 l 1
 499 134.5 l 1
 333 134.5 l 1
 332.5 134.5 l 1
 332.5 134 l 1
 332.5 -199 l 1
333.5 -198.5 m 1
 333.5 133.5 l 1
 498.5 133.5 l 1
 498.5 -198.5 l 1
 333.5 -198.5 l 1
333 -199 m 1
 333 134 l 1
 499 134 l 1
 499 -199 l 1
 333 -199 l 1
EndSplineSet
EndChar

StartChar: glyph133
Encoding: 389 1097862 133
Width: 0
VWidth: 0
Flags: H
LayerCount: 2
Fore
SplineSet
165.5 467 m 1
 165.5 466.5 l 1
 166 466.5 l 1
 332 466.5 l 1
 332.5 466.5 l 1
 332.5 467 l 1
 332.5 800 l 1
 332.5 800.5 l 1
 332 800.5 l 1
 166 800.5 l 1
 165.5 800.5 l 1
 165.5 800 l 1
 165.5 467 l 1
166.5 467.5 m 1
 166.5 799.5 l 1
 331.5 799.5 l 1
 331.5 467.5 l 1
 166.5 467.5 l 1
166 467 m 1
 166 800 l 1
 332 800 l 1
 332 467 l 1
 166 467 l 1
-0.5 -199 m 1
 -0.5 -199.5 l 1
 0 -199.5 l 1
 166 -199.5 l 1
 166.5 -199.5 l 1
 166.5 -199 l 1
 166.5 134 l 1
 166.5 134.5 l 1
 166 134.5 l 1
 0 134.5 l 1
 -0.5 134.5 l 1
 -0.5 134 l 1
 -0.5 -199 l 1
0.5 -198.5 m 1
 0.5 133.5 l 1
 165.5 133.5 l 1
 165.5 -198.5 l 1
 0.5 -198.5 l 1
0 -199 m 1
 0 134 l 1
 166 134 l 1
 166 -199 l 1
 0 -199 l 1
165.5 -199 m 1
 165.5 -199.5 l 1
 166 -199.5 l 1
 332 -199.5 l 1
 332.5 -199.5 l 1
 332.5 -199 l 1
 332.5 134 l 1
 332.5 134.5 l 1
 332 134.5 l 1
 166 134.5 l 1
 165.5 134.5 l 1
 165.5 134 l 1
 165.5 -199 l 1
166.5 -198.5 m 1
 166.5 133.5 l 1
 331.5 133.5 l 1
 331.5 -198.5 l 1
 166.5 -198.5 l 1
166 -199 m 1
 166 134 l 1
 332 134 l 1
 332 -199 l 1
 166 -199 l 1
EndSplineSet
EndChar

StartChar: glyph134
Encoding: 390 1097863 134
Width: 0
VWidth: 0
Flags: H
LayerCount: 2
Fore
SplineSet
165.5 467 m 1
 165.5 466.5 l 1
 166 466.5 l 1
 332 466.5 l 1
 332.5 466.5 l 1
 332.5 467 l 1
 332.5 800 l 1
 332.5 800.5 l 1
 332 800.5 l 1
 166 800.5 l 1
 165.5 800.5 l 1
 165.5 800 l 1
 165.5 467 l 1
166.5 467.5 m 1
 166.5 799.5 l 1
 331.5 799.5 l 1
 331.5 467.5 l 1
 166.5 467.5 l 1
166 467 m 1
 166 800 l 1
 332 800 l 1
 332 467 l 1
 166 467 l 1
-0.5 -199 m 1
 -0.5 -199.5 l 1
 0 -199.5 l 1
 166 -199.5 l 1
 166.5 -199.5 l 1
 166.5 -199 l 1
 166.5 134 l 1
 166.5 134.5 l 1
 166 134.5 l 1
 0 134.5 l 1
 -0.5 134.5 l 1
 -0.5 134 l 1
 -0.5 -199 l 1
0.5 -198.5 m 1
 0.5 133.5 l 1
 165.5 133.5 l 1
 165.5 -198.5 l 1
 0.5 -198.5 l 1
0 -199 m 1
 0 134 l 1
 166 134 l 1
 166 -199 l 1
 0 -199 l 1
165.5 -199 m 1
 165.5 -199.5 l 1
 166 -199.5 l 1
 332 -199.5 l 1
 332.5 -199.5 l 1
 332.5 -199 l 1
 332.5 134 l 1
 332.5 134.5 l 1
 332 134.5 l 1
 166 134.5 l 1
 165.5 134.5 l 1
 165.5 134 l 1
 165.5 -199 l 1
166.5 -198.5 m 1
 166.5 133.5 l 1
 331.5 133.5 l 1
 331.5 -198.5 l 1
 166.5 -198.5 l 1
166 -199 m 1
 166 134 l 1
 332 134 l 1
 332 -199 l 1
 166 -199 l 1
332.5 -199 m 1
 332.5 -199.5 l 1
 333 -199.5 l 1
 499 -199.5 l 1
 499.5 -199.5 l 1
 499.5 -199 l 1
 499.5 134 l 1
 499.5 134.5 l 1
 499 134.5 l 1
 333 134.5 l 1
 332.5 134.5 l 1
 332.5 134 l 1
 332.5 -199 l 1
333.5 -198.5 m 1
 333.5 133.5 l 1
 498.5 133.5 l 1
 498.5 -198.5 l 1
 333.5 -198.5 l 1
333 -199 m 1
 333 134 l 1
 499 134 l 1
 499 -199 l 1
 333 -199 l 1
EndSplineSet
EndChar

StartChar: glyph135
Encoding: 391 1097864 135
Width: 0
VWidth: 0
Flags: H
LayerCount: 2
Fore
SplineSet
165.5 467 m 1
 165.5 466.5 l 1
 166 466.5 l 1
 332 466.5 l 1
 332.5 466.5 l 1
 332.5 467 l 1
 332.5 800 l 1
 332.5 800.5 l 1
 332 800.5 l 1
 166 800.5 l 1
 165.5 800.5 l 1
 165.5 800 l 1
 165.5 467 l 1
166.5 467.5 m 1
 166.5 799.5 l 1
 331.5 799.5 l 1
 331.5 467.5 l 1
 166.5 467.5 l 1
166 467 m 1
 166 800 l 1
 332 800 l 1
 332 467 l 1
 166 467 l 1
332.5 134 m 1
 332.5 133.5 l 1
 333 133.5 l 1
 499 133.5 l 1
 499.5 133.5 l 1
 499.5 134 l 1
 499.5 467 l 1
 499.5 467.5 l 1
 499 467.5 l 1
 333 467.5 l 1
 332.5 467.5 l 1
 332.5 467 l 1
 332.5 134 l 1
333.5 134.5 m 1
 333.5 466.5 l 1
 498.5 466.5 l 1
 498.5 134.5 l 1
 333.5 134.5 l 1
333 134 m 1
 333 467 l 1
 499 467 l 1
 499 134 l 1
 333 134 l 1
EndSplineSet
EndChar

StartChar: glyph136
Encoding: 392 1097865 136
Width: 0
VWidth: 0
Flags: H
LayerCount: 2
Fore
SplineSet
165.5 467 m 1
 165.5 466.5 l 1
 166 466.5 l 1
 332 466.5 l 1
 332.5 466.5 l 1
 332.5 467 l 1
 332.5 800 l 1
 332.5 800.5 l 1
 332 800.5 l 1
 166 800.5 l 1
 165.5 800.5 l 1
 165.5 800 l 1
 165.5 467 l 1
166.5 467.5 m 1
 166.5 799.5 l 1
 331.5 799.5 l 1
 331.5 467.5 l 1
 166.5 467.5 l 1
166 467 m 1
 166 800 l 1
 332 800 l 1
 332 467 l 1
 166 467 l 1
332.5 134 m 1
 332.5 133.5 l 1
 333 133.5 l 1
 499 133.5 l 1
 499.5 133.5 l 1
 499.5 134 l 1
 499.5 467 l 1
 499.5 467.5 l 1
 499 467.5 l 1
 333 467.5 l 1
 332.5 467.5 l 1
 332.5 467 l 1
 332.5 134 l 1
333.5 134.5 m 1
 333.5 466.5 l 1
 498.5 466.5 l 1
 498.5 134.5 l 1
 333.5 134.5 l 1
333 134 m 1
 333 467 l 1
 499 467 l 1
 499 134 l 1
 333 134 l 1
332.5 -199 m 1
 332.5 -199.5 l 1
 333 -199.5 l 1
 499 -199.5 l 1
 499.5 -199.5 l 1
 499.5 -199 l 1
 499.5 134 l 1
 499.5 134.5 l 1
 499 134.5 l 1
 333 134.5 l 1
 332.5 134.5 l 1
 332.5 134 l 1
 332.5 -199 l 1
333.5 -198.5 m 1
 333.5 133.5 l 1
 498.5 133.5 l 1
 498.5 -198.5 l 1
 333.5 -198.5 l 1
333 -199 m 1
 333 134 l 1
 499 134 l 1
 499 -199 l 1
 333 -199 l 1
EndSplineSet
EndChar

StartChar: glyph137
Encoding: 393 1097866 137
Width: 0
VWidth: 0
Flags: H
LayerCount: 2
Fore
SplineSet
165.5 467 m 1
 165.5 466.5 l 1
 166 466.5 l 1
 332 466.5 l 1
 332.5 466.5 l 1
 332.5 467 l 1
 332.5 800 l 1
 332.5 800.5 l 1
 332 800.5 l 1
 166 800.5 l 1
 165.5 800.5 l 1
 165.5 800 l 1
 165.5 467 l 1
166.5 467.5 m 1
 166.5 799.5 l 1
 331.5 799.5 l 1
 331.5 467.5 l 1
 166.5 467.5 l 1
166 467 m 1
 166 800 l 1
 332 800 l 1
 332 467 l 1
 166 467 l 1
332.5 134 m 1
 332.5 133.5 l 1
 333 133.5 l 1
 499 133.5 l 1
 499.5 133.5 l 1
 499.5 134 l 1
 499.5 467 l 1
 499.5 467.5 l 1
 499 467.5 l 1
 333 467.5 l 1
 332.5 467.5 l 1
 332.5 467 l 1
 332.5 134 l 1
333.5 134.5 m 1
 333.5 466.5 l 1
 498.5 466.5 l 1
 498.5 134.5 l 1
 333.5 134.5 l 1
333 134 m 1
 333 467 l 1
 499 467 l 1
 499 134 l 1
 333 134 l 1
165.5 -199 m 1
 165.5 -199.5 l 1
 166 -199.5 l 1
 332 -199.5 l 1
 332.5 -199.5 l 1
 332.5 -199 l 1
 332.5 134 l 1
 332.5 134.5 l 1
 332 134.5 l 1
 166 134.5 l 1
 165.5 134.5 l 1
 165.5 134 l 1
 165.5 -199 l 1
166.5 -198.5 m 1
 166.5 133.5 l 1
 331.5 133.5 l 1
 331.5 -198.5 l 1
 166.5 -198.5 l 1
166 -199 m 1
 166 134 l 1
 332 134 l 1
 332 -199 l 1
 166 -199 l 1
EndSplineSet
EndChar

StartChar: glyph138
Encoding: 394 1097867 138
Width: 0
VWidth: 0
Flags: H
LayerCount: 2
Fore
SplineSet
165.5 467 m 1
 165.5 466.5 l 1
 166 466.5 l 1
 332 466.5 l 1
 332.5 466.5 l 1
 332.5 467 l 1
 332.5 800 l 1
 332.5 800.5 l 1
 332 800.5 l 1
 166 800.5 l 1
 165.5 800.5 l 1
 165.5 800 l 1
 165.5 467 l 1
166.5 467.5 m 1
 166.5 799.5 l 1
 331.5 799.5 l 1
 331.5 467.5 l 1
 166.5 467.5 l 1
166 467 m 1
 166 800 l 1
 332 800 l 1
 332 467 l 1
 166 467 l 1
332.5 134 m 1
 332.5 133.5 l 1
 333 133.5 l 1
 499 133.5 l 1
 499.5 133.5 l 1
 499.5 134 l 1
 499.5 467 l 1
 499.5 467.5 l 1
 499 467.5 l 1
 333 467.5 l 1
 332.5 467.5 l 1
 332.5 467 l 1
 332.5 134 l 1
333.5 134.5 m 1
 333.5 466.5 l 1
 498.5 466.5 l 1
 498.5 134.5 l 1
 333.5 134.5 l 1
333 134 m 1
 333 467 l 1
 499 467 l 1
 499 134 l 1
 333 134 l 1
165.5 -199 m 1
 165.5 -199.5 l 1
 166 -199.5 l 1
 332 -199.5 l 1
 332.5 -199.5 l 1
 332.5 -199 l 1
 332.5 134 l 1
 332.5 134.5 l 1
 332 134.5 l 1
 166 134.5 l 1
 165.5 134.5 l 1
 165.5 134 l 1
 165.5 -199 l 1
166.5 -198.5 m 1
 166.5 133.5 l 1
 331.5 133.5 l 1
 331.5 -198.5 l 1
 166.5 -198.5 l 1
166 -199 m 1
 166 134 l 1
 332 134 l 1
 332 -199 l 1
 166 -199 l 1
332.5 -199 m 1
 332.5 -199.5 l 1
 333 -199.5 l 1
 499 -199.5 l 1
 499.5 -199.5 l 1
 499.5 -199 l 1
 499.5 134 l 1
 499.5 134.5 l 1
 499 134.5 l 1
 333 134.5 l 1
 332.5 134.5 l 1
 332.5 134 l 1
 332.5 -199 l 1
333.5 -198.5 m 1
 333.5 133.5 l 1
 498.5 133.5 l 1
 498.5 -198.5 l 1
 333.5 -198.5 l 1
333 -199 m 1
 333 134 l 1
 499 134 l 1
 499 -199 l 1
 333 -199 l 1
EndSplineSet
EndChar

StartChar: glyph139
Encoding: 395 1097868 139
Width: 0
VWidth: 0
Flags: H
LayerCount: 2
Fore
SplineSet
165.5 467 m 1
 165.5 466.5 l 1
 166 466.5 l 1
 332 466.5 l 1
 332.5 466.5 l 1
 332.5 467 l 1
 332.5 800 l 1
 332.5 800.5 l 1
 332 800.5 l 1
 166 800.5 l 1
 165.5 800.5 l 1
 165.5 800 l 1
 165.5 467 l 1
166.5 467.5 m 1
 166.5 799.5 l 1
 331.5 799.5 l 1
 331.5 467.5 l 1
 166.5 467.5 l 1
166 467 m 1
 166 800 l 1
 332 800 l 1
 332 467 l 1
 166 467 l 1
332.5 134 m 1
 332.5 133.5 l 1
 333 133.5 l 1
 499 133.5 l 1
 499.5 133.5 l 1
 499.5 134 l 1
 499.5 467 l 1
 499.5 467.5 l 1
 499 467.5 l 1
 333 467.5 l 1
 332.5 467.5 l 1
 332.5 467 l 1
 332.5 134 l 1
333.5 134.5 m 1
 333.5 466.5 l 1
 498.5 466.5 l 1
 498.5 134.5 l 1
 333.5 134.5 l 1
333 134 m 1
 333 467 l 1
 499 467 l 1
 499 134 l 1
 333 134 l 1
-0.5 -199 m 1
 -0.5 -199.5 l 1
 0 -199.5 l 1
 166 -199.5 l 1
 166.5 -199.5 l 1
 166.5 -199 l 1
 166.5 134 l 1
 166.5 134.5 l 1
 166 134.5 l 1
 0 134.5 l 1
 -0.5 134.5 l 1
 -0.5 134 l 1
 -0.5 -199 l 1
0.5 -198.5 m 1
 0.5 133.5 l 1
 165.5 133.5 l 1
 165.5 -198.5 l 1
 0.5 -198.5 l 1
0 -199 m 1
 0 134 l 1
 166 134 l 1
 166 -199 l 1
 0 -199 l 1
EndSplineSet
EndChar

StartChar: glyph140
Encoding: 396 1097869 140
Width: 0
VWidth: 0
Flags: H
LayerCount: 2
Fore
SplineSet
165.5 467 m 1
 165.5 466.5 l 1
 166 466.5 l 1
 332 466.5 l 1
 332.5 466.5 l 1
 332.5 467 l 1
 332.5 800 l 1
 332.5 800.5 l 1
 332 800.5 l 1
 166 800.5 l 1
 165.5 800.5 l 1
 165.5 800 l 1
 165.5 467 l 1
166.5 467.5 m 1
 166.5 799.5 l 1
 331.5 799.5 l 1
 331.5 467.5 l 1
 166.5 467.5 l 1
166 467 m 1
 166 800 l 1
 332 800 l 1
 332 467 l 1
 166 467 l 1
332.5 134 m 1
 332.5 133.5 l 1
 333 133.5 l 1
 499 133.5 l 1
 499.5 133.5 l 1
 499.5 134 l 1
 499.5 467 l 1
 499.5 467.5 l 1
 499 467.5 l 1
 333 467.5 l 1
 332.5 467.5 l 1
 332.5 467 l 1
 332.5 134 l 1
333.5 134.5 m 1
 333.5 466.5 l 1
 498.5 466.5 l 1
 498.5 134.5 l 1
 333.5 134.5 l 1
333 134 m 1
 333 467 l 1
 499 467 l 1
 499 134 l 1
 333 134 l 1
-0.5 -199 m 1
 -0.5 -199.5 l 1
 0 -199.5 l 1
 166 -199.5 l 1
 166.5 -199.5 l 1
 166.5 -199 l 1
 166.5 134 l 1
 166.5 134.5 l 1
 166 134.5 l 1
 0 134.5 l 1
 -0.5 134.5 l 1
 -0.5 134 l 1
 -0.5 -199 l 1
0.5 -198.5 m 1
 0.5 133.5 l 1
 165.5 133.5 l 1
 165.5 -198.5 l 1
 0.5 -198.5 l 1
0 -199 m 1
 0 134 l 1
 166 134 l 1
 166 -199 l 1
 0 -199 l 1
332.5 -199 m 1
 332.5 -199.5 l 1
 333 -199.5 l 1
 499 -199.5 l 1
 499.5 -199.5 l 1
 499.5 -199 l 1
 499.5 134 l 1
 499.5 134.5 l 1
 499 134.5 l 1
 333 134.5 l 1
 332.5 134.5 l 1
 332.5 134 l 1
 332.5 -199 l 1
333.5 -198.5 m 1
 333.5 133.5 l 1
 498.5 133.5 l 1
 498.5 -198.5 l 1
 333.5 -198.5 l 1
333 -199 m 1
 333 134 l 1
 499 134 l 1
 499 -199 l 1
 333 -199 l 1
EndSplineSet
EndChar

StartChar: glyph141
Encoding: 397 1097870 141
Width: 0
VWidth: 0
Flags: H
LayerCount: 2
Fore
SplineSet
165.5 467 m 1
 165.5 466.5 l 1
 166 466.5 l 1
 332 466.5 l 1
 332.5 466.5 l 1
 332.5 467 l 1
 332.5 800 l 1
 332.5 800.5 l 1
 332 800.5 l 1
 166 800.5 l 1
 165.5 800.5 l 1
 165.5 800 l 1
 165.5 467 l 1
166.5 467.5 m 1
 166.5 799.5 l 1
 331.5 799.5 l 1
 331.5 467.5 l 1
 166.5 467.5 l 1
166 467 m 1
 166 800 l 1
 332 800 l 1
 332 467 l 1
 166 467 l 1
332.5 134 m 1
 332.5 133.5 l 1
 333 133.5 l 1
 499 133.5 l 1
 499.5 133.5 l 1
 499.5 134 l 1
 499.5 467 l 1
 499.5 467.5 l 1
 499 467.5 l 1
 333 467.5 l 1
 332.5 467.5 l 1
 332.5 467 l 1
 332.5 134 l 1
333.5 134.5 m 1
 333.5 466.5 l 1
 498.5 466.5 l 1
 498.5 134.5 l 1
 333.5 134.5 l 1
333 134 m 1
 333 467 l 1
 499 467 l 1
 499 134 l 1
 333 134 l 1
-0.5 -199 m 1
 -0.5 -199.5 l 1
 0 -199.5 l 1
 166 -199.5 l 1
 166.5 -199.5 l 1
 166.5 -199 l 1
 166.5 134 l 1
 166.5 134.5 l 1
 166 134.5 l 1
 0 134.5 l 1
 -0.5 134.5 l 1
 -0.5 134 l 1
 -0.5 -199 l 1
0.5 -198.5 m 1
 0.5 133.5 l 1
 165.5 133.5 l 1
 165.5 -198.5 l 1
 0.5 -198.5 l 1
0 -199 m 1
 0 134 l 1
 166 134 l 1
 166 -199 l 1
 0 -199 l 1
165.5 -199 m 1
 165.5 -199.5 l 1
 166 -199.5 l 1
 332 -199.5 l 1
 332.5 -199.5 l 1
 332.5 -199 l 1
 332.5 134 l 1
 332.5 134.5 l 1
 332 134.5 l 1
 166 134.5 l 1
 165.5 134.5 l 1
 165.5 134 l 1
 165.5 -199 l 1
166.5 -198.5 m 1
 166.5 133.5 l 1
 331.5 133.5 l 1
 331.5 -198.5 l 1
 166.5 -198.5 l 1
166 -199 m 1
 166 134 l 1
 332 134 l 1
 332 -199 l 1
 166 -199 l 1
EndSplineSet
EndChar

StartChar: glyph142
Encoding: 398 1097871 142
Width: 0
VWidth: 0
Flags: H
LayerCount: 2
Fore
SplineSet
165.5 467 m 1
 165.5 466.5 l 1
 166 466.5 l 1
 332 466.5 l 1
 332.5 466.5 l 1
 332.5 467 l 1
 332.5 800 l 1
 332.5 800.5 l 1
 332 800.5 l 1
 166 800.5 l 1
 165.5 800.5 l 1
 165.5 800 l 1
 165.5 467 l 1
166.5 467.5 m 1
 166.5 799.5 l 1
 331.5 799.5 l 1
 331.5 467.5 l 1
 166.5 467.5 l 1
166 467 m 1
 166 800 l 1
 332 800 l 1
 332 467 l 1
 166 467 l 1
332.5 134 m 1
 332.5 133.5 l 1
 333 133.5 l 1
 499 133.5 l 1
 499.5 133.5 l 1
 499.5 134 l 1
 499.5 467 l 1
 499.5 467.5 l 1
 499 467.5 l 1
 333 467.5 l 1
 332.5 467.5 l 1
 332.5 467 l 1
 332.5 134 l 1
333.5 134.5 m 1
 333.5 466.5 l 1
 498.5 466.5 l 1
 498.5 134.5 l 1
 333.5 134.5 l 1
333 134 m 1
 333 467 l 1
 499 467 l 1
 499 134 l 1
 333 134 l 1
-0.5 -199 m 1
 -0.5 -199.5 l 1
 0 -199.5 l 1
 166 -199.5 l 1
 166.5 -199.5 l 1
 166.5 -199 l 1
 166.5 134 l 1
 166.5 134.5 l 1
 166 134.5 l 1
 0 134.5 l 1
 -0.5 134.5 l 1
 -0.5 134 l 1
 -0.5 -199 l 1
0.5 -198.5 m 1
 0.5 133.5 l 1
 165.5 133.5 l 1
 165.5 -198.5 l 1
 0.5 -198.5 l 1
0 -199 m 1
 0 134 l 1
 166 134 l 1
 166 -199 l 1
 0 -199 l 1
165.5 -199 m 1
 165.5 -199.5 l 1
 166 -199.5 l 1
 332 -199.5 l 1
 332.5 -199.5 l 1
 332.5 -199 l 1
 332.5 134 l 1
 332.5 134.5 l 1
 332 134.5 l 1
 166 134.5 l 1
 165.5 134.5 l 1
 165.5 134 l 1
 165.5 -199 l 1
166.5 -198.5 m 1
 166.5 133.5 l 1
 331.5 133.5 l 1
 331.5 -198.5 l 1
 166.5 -198.5 l 1
166 -199 m 1
 166 134 l 1
 332 134 l 1
 332 -199 l 1
 166 -199 l 1
332.5 -199 m 1
 332.5 -199.5 l 1
 333 -199.5 l 1
 499 -199.5 l 1
 499.5 -199.5 l 1
 499.5 -199 l 1
 499.5 134 l 1
 499.5 134.5 l 1
 499 134.5 l 1
 333 134.5 l 1
 332.5 134.5 l 1
 332.5 134 l 1
 332.5 -199 l 1
333.5 -198.5 m 1
 333.5 133.5 l 1
 498.5 133.5 l 1
 498.5 -198.5 l 1
 333.5 -198.5 l 1
333 -199 m 1
 333 134 l 1
 499 134 l 1
 499 -199 l 1
 333 -199 l 1
EndSplineSet
EndChar

StartChar: glyph143
Encoding: 399 1097872 143
Width: 0
VWidth: 0
Flags: H
LayerCount: 2
Fore
SplineSet
165.5 467 m 1
 165.5 466.5 l 1
 166 466.5 l 1
 332 466.5 l 1
 332.5 466.5 l 1
 332.5 467 l 1
 332.5 800 l 1
 332.5 800.5 l 1
 332 800.5 l 1
 166 800.5 l 1
 165.5 800.5 l 1
 165.5 800 l 1
 165.5 467 l 1
166.5 467.5 m 1
 166.5 799.5 l 1
 331.5 799.5 l 1
 331.5 467.5 l 1
 166.5 467.5 l 1
166 467 m 1
 166 800 l 1
 332 800 l 1
 332 467 l 1
 166 467 l 1
165.5 134 m 1
 165.5 133.5 l 1
 166 133.5 l 1
 332 133.5 l 1
 332.5 133.5 l 1
 332.5 134 l 1
 332.5 467 l 1
 332.5 467.5 l 1
 332 467.5 l 1
 166 467.5 l 1
 165.5 467.5 l 1
 165.5 467 l 1
 165.5 134 l 1
166.5 134.5 m 1
 166.5 466.5 l 1
 331.5 466.5 l 1
 331.5 134.5 l 1
 166.5 134.5 l 1
166 134 m 1
 166 467 l 1
 332 467 l 1
 332 134 l 1
 166 134 l 1
EndSplineSet
EndChar

StartChar: glyph144
Encoding: 400 1097873 144
Width: 0
VWidth: 0
Flags: H
LayerCount: 2
Fore
SplineSet
165.5 467 m 1
 165.5 466.5 l 1
 166 466.5 l 1
 332 466.5 l 1
 332.5 466.5 l 1
 332.5 467 l 1
 332.5 800 l 1
 332.5 800.5 l 1
 332 800.5 l 1
 166 800.5 l 1
 165.5 800.5 l 1
 165.5 800 l 1
 165.5 467 l 1
166.5 467.5 m 1
 166.5 799.5 l 1
 331.5 799.5 l 1
 331.5 467.5 l 1
 166.5 467.5 l 1
166 467 m 1
 166 800 l 1
 332 800 l 1
 332 467 l 1
 166 467 l 1
165.5 134 m 1
 165.5 133.5 l 1
 166 133.5 l 1
 332 133.5 l 1
 332.5 133.5 l 1
 332.5 134 l 1
 332.5 467 l 1
 332.5 467.5 l 1
 332 467.5 l 1
 166 467.5 l 1
 165.5 467.5 l 1
 165.5 467 l 1
 165.5 134 l 1
166.5 134.5 m 1
 166.5 466.5 l 1
 331.5 466.5 l 1
 331.5 134.5 l 1
 166.5 134.5 l 1
166 134 m 1
 166 467 l 1
 332 467 l 1
 332 134 l 1
 166 134 l 1
332.5 -199 m 1
 332.5 -199.5 l 1
 333 -199.5 l 1
 499 -199.5 l 1
 499.5 -199.5 l 1
 499.5 -199 l 1
 499.5 134 l 1
 499.5 134.5 l 1
 499 134.5 l 1
 333 134.5 l 1
 332.5 134.5 l 1
 332.5 134 l 1
 332.5 -199 l 1
333.5 -198.5 m 1
 333.5 133.5 l 1
 498.5 133.5 l 1
 498.5 -198.5 l 1
 333.5 -198.5 l 1
333 -199 m 1
 333 134 l 1
 499 134 l 1
 499 -199 l 1
 333 -199 l 1
EndSplineSet
EndChar

StartChar: glyph145
Encoding: 401 1097874 145
Width: 0
VWidth: 0
Flags: H
LayerCount: 2
Fore
SplineSet
165.5 467 m 1
 165.5 466.5 l 1
 166 466.5 l 1
 332 466.5 l 1
 332.5 466.5 l 1
 332.5 467 l 1
 332.5 800 l 1
 332.5 800.5 l 1
 332 800.5 l 1
 166 800.5 l 1
 165.5 800.5 l 1
 165.5 800 l 1
 165.5 467 l 1
166.5 467.5 m 1
 166.5 799.5 l 1
 331.5 799.5 l 1
 331.5 467.5 l 1
 166.5 467.5 l 1
166 467 m 1
 166 800 l 1
 332 800 l 1
 332 467 l 1
 166 467 l 1
165.5 134 m 1
 165.5 133.5 l 1
 166 133.5 l 1
 332 133.5 l 1
 332.5 133.5 l 1
 332.5 134 l 1
 332.5 467 l 1
 332.5 467.5 l 1
 332 467.5 l 1
 166 467.5 l 1
 165.5 467.5 l 1
 165.5 467 l 1
 165.5 134 l 1
166.5 134.5 m 1
 166.5 466.5 l 1
 331.5 466.5 l 1
 331.5 134.5 l 1
 166.5 134.5 l 1
166 134 m 1
 166 467 l 1
 332 467 l 1
 332 134 l 1
 166 134 l 1
165.5 -199 m 1
 165.5 -199.5 l 1
 166 -199.5 l 1
 332 -199.5 l 1
 332.5 -199.5 l 1
 332.5 -199 l 1
 332.5 134 l 1
 332.5 134.5 l 1
 332 134.5 l 1
 166 134.5 l 1
 165.5 134.5 l 1
 165.5 134 l 1
 165.5 -199 l 1
166.5 -198.5 m 1
 166.5 133.5 l 1
 331.5 133.5 l 1
 331.5 -198.5 l 1
 166.5 -198.5 l 1
166 -199 m 1
 166 134 l 1
 332 134 l 1
 332 -199 l 1
 166 -199 l 1
EndSplineSet
EndChar

StartChar: glyph146
Encoding: 402 1097875 146
Width: 0
VWidth: 0
Flags: H
LayerCount: 2
Fore
SplineSet
165.5 467 m 1
 165.5 466.5 l 1
 166 466.5 l 1
 332 466.5 l 1
 332.5 466.5 l 1
 332.5 467 l 1
 332.5 800 l 1
 332.5 800.5 l 1
 332 800.5 l 1
 166 800.5 l 1
 165.5 800.5 l 1
 165.5 800 l 1
 165.5 467 l 1
166.5 467.5 m 1
 166.5 799.5 l 1
 331.5 799.5 l 1
 331.5 467.5 l 1
 166.5 467.5 l 1
166 467 m 1
 166 800 l 1
 332 800 l 1
 332 467 l 1
 166 467 l 1
165.5 134 m 1
 165.5 133.5 l 1
 166 133.5 l 1
 332 133.5 l 1
 332.5 133.5 l 1
 332.5 134 l 1
 332.5 467 l 1
 332.5 467.5 l 1
 332 467.5 l 1
 166 467.5 l 1
 165.5 467.5 l 1
 165.5 467 l 1
 165.5 134 l 1
166.5 134.5 m 1
 166.5 466.5 l 1
 331.5 466.5 l 1
 331.5 134.5 l 1
 166.5 134.5 l 1
166 134 m 1
 166 467 l 1
 332 467 l 1
 332 134 l 1
 166 134 l 1
165.5 -199 m 1
 165.5 -199.5 l 1
 166 -199.5 l 1
 332 -199.5 l 1
 332.5 -199.5 l 1
 332.5 -199 l 1
 332.5 134 l 1
 332.5 134.5 l 1
 332 134.5 l 1
 166 134.5 l 1
 165.5 134.5 l 1
 165.5 134 l 1
 165.5 -199 l 1
166.5 -198.5 m 1
 166.5 133.5 l 1
 331.5 133.5 l 1
 331.5 -198.5 l 1
 166.5 -198.5 l 1
166 -199 m 1
 166 134 l 1
 332 134 l 1
 332 -199 l 1
 166 -199 l 1
332.5 -199 m 1
 332.5 -199.5 l 1
 333 -199.5 l 1
 499 -199.5 l 1
 499.5 -199.5 l 1
 499.5 -199 l 1
 499.5 134 l 1
 499.5 134.5 l 1
 499 134.5 l 1
 333 134.5 l 1
 332.5 134.5 l 1
 332.5 134 l 1
 332.5 -199 l 1
333.5 -198.5 m 1
 333.5 133.5 l 1
 498.5 133.5 l 1
 498.5 -198.5 l 1
 333.5 -198.5 l 1
333 -199 m 1
 333 134 l 1
 499 134 l 1
 499 -199 l 1
 333 -199 l 1
EndSplineSet
EndChar

StartChar: glyph147
Encoding: 403 1097876 147
Width: 0
VWidth: 0
Flags: H
LayerCount: 2
Fore
SplineSet
165.5 467 m 1
 165.5 466.5 l 1
 166 466.5 l 1
 332 466.5 l 1
 332.5 466.5 l 1
 332.5 467 l 1
 332.5 800 l 1
 332.5 800.5 l 1
 332 800.5 l 1
 166 800.5 l 1
 165.5 800.5 l 1
 165.5 800 l 1
 165.5 467 l 1
166.5 467.5 m 1
 166.5 799.5 l 1
 331.5 799.5 l 1
 331.5 467.5 l 1
 166.5 467.5 l 1
166 467 m 1
 166 800 l 1
 332 800 l 1
 332 467 l 1
 166 467 l 1
165.5 134 m 1
 165.5 133.5 l 1
 166 133.5 l 1
 332 133.5 l 1
 332.5 133.5 l 1
 332.5 134 l 1
 332.5 467 l 1
 332.5 467.5 l 1
 332 467.5 l 1
 166 467.5 l 1
 165.5 467.5 l 1
 165.5 467 l 1
 165.5 134 l 1
166.5 134.5 m 1
 166.5 466.5 l 1
 331.5 466.5 l 1
 331.5 134.5 l 1
 166.5 134.5 l 1
166 134 m 1
 166 467 l 1
 332 467 l 1
 332 134 l 1
 166 134 l 1
-0.5 -199 m 1
 -0.5 -199.5 l 1
 0 -199.5 l 1
 166 -199.5 l 1
 166.5 -199.5 l 1
 166.5 -199 l 1
 166.5 134 l 1
 166.5 134.5 l 1
 166 134.5 l 1
 0 134.5 l 1
 -0.5 134.5 l 1
 -0.5 134 l 1
 -0.5 -199 l 1
0.5 -198.5 m 1
 0.5 133.5 l 1
 165.5 133.5 l 1
 165.5 -198.5 l 1
 0.5 -198.5 l 1
0 -199 m 1
 0 134 l 1
 166 134 l 1
 166 -199 l 1
 0 -199 l 1
EndSplineSet
EndChar

StartChar: glyph148
Encoding: 404 1097877 148
Width: 0
VWidth: 0
Flags: H
LayerCount: 2
Fore
SplineSet
165.5 467 m 1
 165.5 466.5 l 1
 166 466.5 l 1
 332 466.5 l 1
 332.5 466.5 l 1
 332.5 467 l 1
 332.5 800 l 1
 332.5 800.5 l 1
 332 800.5 l 1
 166 800.5 l 1
 165.5 800.5 l 1
 165.5 800 l 1
 165.5 467 l 1
166.5 467.5 m 1
 166.5 799.5 l 1
 331.5 799.5 l 1
 331.5 467.5 l 1
 166.5 467.5 l 1
166 467 m 1
 166 800 l 1
 332 800 l 1
 332 467 l 1
 166 467 l 1
165.5 134 m 1
 165.5 133.5 l 1
 166 133.5 l 1
 332 133.5 l 1
 332.5 133.5 l 1
 332.5 134 l 1
 332.5 467 l 1
 332.5 467.5 l 1
 332 467.5 l 1
 166 467.5 l 1
 165.5 467.5 l 1
 165.5 467 l 1
 165.5 134 l 1
166.5 134.5 m 1
 166.5 466.5 l 1
 331.5 466.5 l 1
 331.5 134.5 l 1
 166.5 134.5 l 1
166 134 m 1
 166 467 l 1
 332 467 l 1
 332 134 l 1
 166 134 l 1
-0.5 -199 m 1
 -0.5 -199.5 l 1
 0 -199.5 l 1
 166 -199.5 l 1
 166.5 -199.5 l 1
 166.5 -199 l 1
 166.5 134 l 1
 166.5 134.5 l 1
 166 134.5 l 1
 0 134.5 l 1
 -0.5 134.5 l 1
 -0.5 134 l 1
 -0.5 -199 l 1
0.5 -198.5 m 1
 0.5 133.5 l 1
 165.5 133.5 l 1
 165.5 -198.5 l 1
 0.5 -198.5 l 1
0 -199 m 1
 0 134 l 1
 166 134 l 1
 166 -199 l 1
 0 -199 l 1
332.5 -199 m 1
 332.5 -199.5 l 1
 333 -199.5 l 1
 499 -199.5 l 1
 499.5 -199.5 l 1
 499.5 -199 l 1
 499.5 134 l 1
 499.5 134.5 l 1
 499 134.5 l 1
 333 134.5 l 1
 332.5 134.5 l 1
 332.5 134 l 1
 332.5 -199 l 1
333.5 -198.5 m 1
 333.5 133.5 l 1
 498.5 133.5 l 1
 498.5 -198.5 l 1
 333.5 -198.5 l 1
333 -199 m 1
 333 134 l 1
 499 134 l 1
 499 -199 l 1
 333 -199 l 1
EndSplineSet
EndChar

